<svg id="svg" version="1.1" width="400" height="120" viewBox="0 0 400 120" xmlns="http://www.w3.org/2000/svg" xmlns:xlink="http://www.w3.org/1999/xlink" ><g id="svgg"><path id="path0" d="M72.750 5.603 C 61.198 7.341,54.605 17.843,54.420 34.799 C 54.394 37.118,54.346 39.038,54.312 39.066 C 54.278 39.094,53.538 39.626,52.667 40.249 C 49.116 42.789,44.693 46.790,42.901 49.083 C 42.543 49.542,42.208 49.954,42.156 50.000 C 42.000 50.139,40.000 52.998,40.000 53.082 C 40.000 53.125,39.752 53.555,39.449 54.038 C 36.744 58.353,35.466 65.252,36.656 69.118 C 36.734 69.374,36.930 70.033,37.091 70.583 C 38.750 76.255,44.882 82.283,51.819 85.058 C 52.186 85.205,52.808 85.470,53.201 85.647 C 53.595 85.823,54.269 86.096,54.699 86.253 L 55.481 86.538 55.577 87.477 C 57.967 110.834,72.458 118.969,92.032 107.941 C 93.051 107.367,93.051 107.366,94.684 108.296 C 115.577 120.191,132.085 107.249,130.515 80.204 C 130.247 75.579,130.111 76.158,131.709 75.106 C 154.035 60.403,156.004 40.100,136.083 29.994 C 133.833 28.853,131.893 27.999,131.553 28.000 C 131.330 28.000,131.269 27.826,130.998 26.417 C 127.069 5.996,112.524 -0.172,94.205 10.815 L 92.994 11.541 91.622 10.707 C 87.669 8.301,83.774 6.713,79.833 5.900 C 78.620 5.649,73.787 5.447,72.750 5.603 M80.802 9.918 C 83.816 10.451,86.579 11.360,89.193 12.680 C 90.493 13.336,90.509 13.272,88.658 14.732 C 84.208 18.241,78.969 23.670,75.498 28.370 C 75.011 29.030,74.728 29.227,73.750 29.591 C 67.848 31.784,62.846 34.035,58.833 36.302 C 56.810 37.445,56.833 37.446,56.834 36.198 C 56.838 22.475,63.385 12.149,73.500 9.913 C 74.825 9.620,79.133 9.623,80.802 9.918 M112.522 9.910 C 119.622 11.269,125.143 16.876,127.502 25.122 C 127.989 26.828,128.085 26.768,125.816 26.190 C 122.989 25.470,121.514 25.181,118.083 24.671 C 115.886 24.345,111.328 24.000,109.217 24.000 L 107.106 24.000 104.466 21.261 C 101.873 18.571,99.521 16.414,96.956 14.374 C 95.469 13.192,95.437 13.307,97.507 12.354 C 99.995 11.208,102.558 10.401,105.417 9.863 C 106.771 9.608,111.093 9.637,112.522 9.910 M94.532 15.772 C 97.481 17.780,99.964 19.807,102.542 22.313 C 104.232 23.955,104.250 24.000,103.235 24.000 C 101.770 24.000,94.976 24.652,92.667 25.014 C 88.633 25.646,85.665 26.254,82.000 27.196 C 77.712 28.299,77.848 28.346,79.610 26.358 C 82.892 22.652,87.487 18.527,91.021 16.113 C 93.252 14.589,92.852 14.628,94.532 15.772 M106.395 26.375 C 106.909 26.902,107.437 27.525,109.117 29.583 C 110.977 31.861,114.333 36.738,114.333 37.162 C 114.333 37.397,114.164 37.497,113.625 37.579 C 110.543 38.053,106.996 40.060,105.521 42.167 C 103.676 44.801,103.616 45.252,105.125 45.107 C 105.744 45.047,107.150 44.957,108.250 44.905 C 111.081 44.773,110.865 44.879,111.759 43.184 C 112.569 41.648,112.921 41.333,113.830 41.333 C 114.554 41.333,114.596 41.792,114.003 43.218 C 113.259 45.004,112.757 45.360,109.500 46.407 C 103.108 48.462,102.075 49.143,100.513 52.333 C 99.021 55.377,98.694 57.027,99.418 57.841 C 100.838 59.436,104.812 59.083,107.317 57.139 C 107.812 56.756,107.893 56.820,107.667 57.417 C 107.410 58.091,107.395 58.088,111.056 58.031 C 115.277 57.965,114.886 58.123,115.829 56.108 C 116.580 54.504,116.814 53.995,117.793 51.833 C 118.021 51.329,118.491 50.309,118.835 49.565 C 119.180 48.822,119.514 48.053,119.576 47.857 C 119.724 47.390,120.137 47.400,120.319 47.875 C 120.398 48.081,120.706 48.775,121.003 49.417 C 121.825 51.194,123.510 55.630,124.402 58.368 L 125.201 60.819 124.753 62.035 C 124.082 63.852,123.318 65.833,122.998 66.583 C 120.602 72.200,118.053 77.139,115.500 81.115 C 115.252 81.502,114.918 81.666,112.679 82.502 C 108.269 84.150,102.605 85.737,98.167 86.570 C 97.388 86.716,96.375 86.907,95.917 86.994 C 93.458 87.461,89.477 87.925,85.742 88.181 C 82.336 88.415,76.086 88.322,75.551 88.031 C 75.103 87.787,70.881 81.920,70.570 81.108 C 70.502 80.932,70.886 80.862,72.367 80.783 C 77.798 80.493,82.244 78.586,85.833 75.007 C 87.801 73.045,88.721 71.510,91.632 65.333 C 93.329 61.733,94.000 60.292,94.000 60.250 C 94.000 60.225,94.329 59.502,94.730 58.644 C 95.132 57.786,95.649 56.671,95.879 56.167 C 96.110 55.663,96.559 54.688,96.877 54.000 C 97.901 51.790,98.333 50.825,98.333 50.750 C 98.333 50.709,98.512 50.280,98.730 49.796 C 101.849 42.886,100.509 39.759,94.101 38.999 C 86.573 38.106,78.031 41.824,74.511 47.527 C 73.419 49.294,69.167 57.911,69.167 58.354 C 69.167 58.437,69.092 58.635,69.000 58.794 C 67.291 61.769,67.813 64.779,70.268 66.100 C 72.586 67.347,77.702 66.534,80.231 64.517 C 81.390 63.593,81.393 63.649,80.314 65.940 C 79.844 66.935,79.254 68.200,79.001 68.750 C 77.598 71.801,76.955 73.019,76.515 73.460 C 75.100 74.875,72.833 74.855,72.833 73.428 C 72.833 72.860,72.976 72.456,73.846 70.555 C 74.122 69.952,74.303 69.414,74.248 69.359 C 74.125 69.236,66.751 69.305,65.540 69.441 C 64.252 69.585,64.154 69.451,62.545 65.333 C 60.758 60.761,60.789 60.985,61.601 58.455 C 64.388 49.780,68.900 40.736,74.177 33.250 C 75.931 30.761,76.191 30.553,78.250 29.997 C 78.525 29.922,79.313 29.699,80.000 29.500 C 84.376 28.233,89.599 27.148,94.000 26.594 C 97.853 26.108,99.912 25.963,104.308 25.867 C 105.865 25.833,105.867 25.834,106.395 26.375 M113.192 26.247 C 118.608 26.849,122.549 27.690,126.737 29.138 C 127.555 29.421,128.320 29.750,128.437 29.868 C 129.032 30.469,129.399 39.055,128.990 42.801 C 128.533 46.996,128.306 48.477,127.647 51.583 C 126.904 55.087,126.311 57.333,126.129 57.333 C 125.971 57.333,125.920 57.214,124.987 54.667 C 124.173 52.443,122.620 48.752,121.570 46.549 L 120.839 45.014 121.188 44.215 C 123.397 39.152,122.675 37.584,117.994 37.279 C 117.218 37.228,116.573 37.182,116.560 37.177 C 116.547 37.171,115.985 36.287,115.310 35.211 C 113.874 32.922,111.597 29.685,109.978 27.630 C 109.349 26.830,108.833 26.137,108.833 26.088 C 108.833 25.922,110.968 26.000,113.192 26.247 M134.948 33.012 C 150.242 42.643,148.575 59.852,131.109 72.653 C 129.910 73.532,129.919 73.541,129.504 71.078 C 129.318 69.981,129.090 68.746,128.996 68.333 C 128.402 65.728,127.597 62.512,127.399 61.950 C 127.078 61.041,127.105 60.600,127.567 59.162 C 127.921 58.060,128.515 56.062,129.003 54.333 C 129.161 53.775,129.825 50.910,130.162 49.333 C 131.202 44.473,131.743 38.030,131.669 31.372 C 131.666 31.104,132.890 31.715,134.948 33.012 M72.667 32.110 C 72.667 32.170,72.003 33.239,71.192 34.485 C 70.381 35.731,69.510 37.125,69.258 37.583 C 69.005 38.042,68.741 38.492,68.671 38.583 C 68.601 38.675,68.297 39.200,67.995 39.750 C 67.693 40.300,67.296 41.012,67.114 41.333 C 65.095 44.888,61.284 53.551,60.241 56.958 C 59.958 57.882,59.486 56.437,58.161 50.583 C 57.365 47.068,56.709 40.374,57.124 39.991 C 58.256 38.946,64.089 35.667,67.833 33.971 C 71.938 32.112,72.667 31.831,72.667 32.110 M241.167 38.439 C 231.754 39.340,225.006 42.754,221.770 48.251 C 220.923 49.690,218.322 54.875,216.253 59.250 C 215.906 59.983,215.172 61.521,214.621 62.667 C 211.020 70.165,210.133 73.004,210.676 75.302 C 212.338 82.344,233.586 82.237,242.785 75.139 C 245.097 73.356,250.913 64.347,250.208 63.641 C 250.128 63.562,246.694 63.516,242.575 63.540 L 235.087 63.583 234.549 64.667 C 234.253 65.262,233.516 66.779,232.911 68.037 C 230.485 73.082,228.670 74.554,226.277 73.418 C 225.161 72.889,225.309 72.362,228.335 66.083 C 228.997 64.708,229.822 62.983,230.168 62.250 C 230.513 61.517,231.282 59.904,231.877 58.667 C 234.107 54.030,235.297 51.549,235.836 50.417 C 237.859 46.166,239.360 44.830,241.645 45.248 C 243.598 45.604,243.510 46.039,240.041 53.167 C 239.126 55.046,238.410 56.640,238.449 56.708 C 238.488 56.777,241.920 56.833,246.076 56.833 L 253.632 56.833 254.338 55.375 C 259.252 45.235,259.252 42.508,254.333 40.121 C 251.600 38.793,245.544 38.020,241.167 38.439 M361.250 38.429 C 355.065 39.018,350.497 40.477,346.661 43.086 C 343.161 45.468,341.870 47.354,337.595 56.333 C 336.500 58.633,335.422 60.891,333.379 65.167 C 328.552 75.271,329.708 78.506,338.750 80.198 C 340.528 80.531,348.312 80.476,350.205 80.118 C 358.907 78.469,364.166 75.265,367.162 69.785 C 369.270 65.930,370.350 63.739,370.209 63.598 C 370.079 63.468,355.436 63.471,355.097 63.601 C 354.952 63.657,354.833 63.762,354.833 63.836 C 354.833 64.131,351.581 70.652,350.961 71.600 C 349.917 73.196,348.566 73.854,346.816 73.619 C 345.208 73.403,345.255 72.495,347.075 68.607 C 347.592 67.501,348.065 66.515,351.204 60.000 C 351.844 58.671,352.615 57.058,352.915 56.417 C 356.002 49.834,357.619 46.794,358.399 46.107 C 359.376 45.247,361.738 44.944,362.594 45.571 C 363.317 46.099,363.040 46.863,359.364 54.500 C 358.812 55.646,358.415 56.640,358.482 56.710 C 358.549 56.780,361.974 56.817,366.093 56.793 L 373.583 56.750 374.536 54.833 C 378.880 46.096,379.031 43.067,375.239 40.672 C 372.557 38.978,366.193 37.958,361.250 38.429 M169.708 39.375 C 169.617 39.490,169.111 40.483,168.583 41.583 C 168.056 42.683,167.154 44.558,166.580 45.750 C 166.006 46.942,165.273 48.479,164.953 49.167 C 164.632 49.854,163.753 51.692,162.999 53.250 C 162.245 54.808,161.308 56.758,160.917 57.583 C 160.526 58.408,159.663 60.208,159.001 61.583 C 158.338 62.958,157.437 64.833,157.000 65.750 C 156.563 66.667,155.662 68.542,154.999 69.917 C 154.337 71.292,153.476 73.092,153.086 73.917 C 152.697 74.742,151.955 76.293,151.439 77.363 C 150.923 78.433,150.500 79.389,150.500 79.488 C 150.500 79.613,152.796 79.667,158.090 79.667 L 165.679 79.667 167.080 76.772 C 167.850 75.180,168.739 73.324,169.055 72.647 C 169.371 71.970,170.283 70.067,171.082 68.417 C 171.881 66.767,172.795 64.854,173.114 64.167 C 173.433 63.480,173.731 62.880,173.777 62.834 C 173.823 62.788,175.973 62.712,178.555 62.667 L 183.250 62.583 185.042 58.943 C 186.028 56.941,186.792 55.235,186.741 55.151 C 186.688 55.067,184.707 55.000,182.250 55.000 C 179.815 55.000,177.812 54.933,177.760 54.850 C 177.709 54.767,178.271 53.437,179.010 51.895 C 179.749 50.353,180.474 48.827,180.621 48.504 C 181.189 47.259,180.817 47.334,186.484 47.331 C 192.055 47.328,191.801 47.368,192.244 46.417 C 192.415 46.050,193.217 44.375,194.027 42.694 C 194.837 41.013,195.500 39.532,195.500 39.402 C 195.500 39.073,169.971 39.046,169.708 39.375 M197.179 39.650 C 196.989 39.916,196.833 40.175,196.833 40.224 C 196.833 40.306,196.360 41.307,193.626 47.000 C 192.683 48.963,192.182 50.010,189.957 54.667 C 189.453 55.721,188.535 57.633,187.916 58.917 C 187.298 60.200,186.398 62.075,185.916 63.083 C 184.840 65.336,183.402 68.333,181.918 71.417 C 181.300 72.700,180.549 74.275,180.249 74.917 C 179.949 75.558,179.324 76.856,178.859 77.800 C 178.290 78.956,178.080 79.541,178.215 79.593 C 178.326 79.635,184.301 79.650,191.492 79.626 L 204.567 79.583 204.866 79.000 C 206.718 75.383,208.325 71.764,208.133 71.643 C 208.014 71.567,205.535 71.504,202.625 71.503 C 199.715 71.501,197.333 71.461,197.333 71.412 C 197.333 71.364,197.662 70.633,198.065 69.787 C 200.483 64.703,201.379 62.908,201.553 62.797 C 201.662 62.728,203.835 62.671,206.384 62.669 L 211.017 62.667 212.759 59.070 C 213.716 57.091,214.500 55.366,214.500 55.236 C 214.500 55.038,213.774 55.000,210.010 55.000 C 207.338 55.000,205.480 54.936,205.421 54.841 C 205.323 54.682,205.748 53.726,207.775 49.542 L 208.845 47.333 213.933 47.333 L 219.021 47.333 220.836 43.586 C 221.834 41.524,222.673 39.706,222.700 39.544 C 222.747 39.266,222.082 39.248,210.137 39.207 L 197.524 39.165 197.179 39.650 M265.442 39.471 C 265.291 39.639,265.167 39.820,265.167 39.874 C 265.167 39.927,264.521 41.309,263.732 42.944 C 262.943 44.579,262.088 46.367,261.833 46.917 C 261.578 47.467,260.715 49.267,259.916 50.917 C 259.117 52.567,258.181 54.517,257.834 55.250 C 257.488 55.983,256.663 57.708,256.001 59.083 C 255.339 60.458,254.458 62.296,254.044 63.167 C 253.630 64.037,252.730 65.912,252.044 67.333 C 251.358 68.754,250.550 70.442,250.250 71.083 C 249.950 71.725,248.944 73.821,248.013 75.740 C 247.083 77.660,246.360 79.328,246.406 79.448 C 246.473 79.624,247.962 79.667,253.994 79.667 L 261.499 79.667 262.437 77.708 C 262.954 76.631,263.732 75.000,264.167 74.083 C 264.602 73.167,265.418 71.460,265.979 70.292 C 266.541 69.123,267.459 67.210,268.020 66.042 C 268.581 64.873,269.481 62.998,270.020 61.875 C 270.559 60.752,271.441 58.915,271.980 57.792 C 272.518 56.669,273.464 54.700,274.082 53.417 C 274.699 52.133,275.487 50.483,275.832 49.750 C 276.177 49.017,277.056 47.179,277.785 45.667 C 278.515 44.154,279.490 42.129,279.952 41.167 C 280.415 40.204,280.760 39.360,280.720 39.292 C 280.536 38.977,265.732 39.151,265.442 39.471 M282.276 39.471 C 282.124 39.639,282.000 39.822,282.000 39.879 C 282.000 39.935,281.430 41.167,280.733 42.616 C 278.817 46.598,278.644 46.996,278.753 47.171 C 278.813 47.269,280.526 47.333,283.093 47.333 C 286.620 47.333,287.333 47.373,287.333 47.567 C 287.333 47.696,286.893 48.689,286.356 49.775 C 285.818 50.861,285.209 52.125,285.001 52.583 C 284.793 53.042,284.117 54.467,283.498 55.750 C 282.880 57.033,281.998 58.871,281.538 59.833 C 281.079 60.796,280.236 62.558,279.664 63.750 C 279.093 64.942,278.213 66.779,277.710 67.833 C 275.700 72.041,274.981 73.539,273.600 76.405 C 272.808 78.048,272.222 79.455,272.298 79.532 C 272.374 79.608,275.804 79.651,279.919 79.627 L 287.400 79.583 287.696 79.000 C 287.998 78.403,289.869 74.501,291.213 71.667 C 291.626 70.796,292.505 68.958,293.168 67.583 C 293.830 66.208,294.655 64.483,295.001 63.750 C 295.347 63.017,296.280 61.067,297.075 59.417 C 297.870 57.767,299.023 55.367,299.636 54.083 C 300.248 52.800,301.237 50.775,301.833 49.583 L 302.917 47.417 307.323 47.372 C 311.784 47.327,312.333 47.249,312.333 46.656 C 312.333 46.587,313.086 44.973,314.007 43.070 C 314.927 41.166,315.642 39.509,315.595 39.388 C 315.441 38.987,282.640 39.069,282.276 39.471 M316.344 41.208 C 315.811 42.331,314.870 44.300,314.253 45.583 C 313.636 46.867,312.793 48.629,312.378 49.500 C 311.964 50.371,311.100 52.171,310.459 53.500 C 308.774 56.993,307.599 59.452,306.944 60.855 C 306.629 61.531,305.717 63.433,304.917 65.083 C 304.118 66.733,303.255 68.533,303.000 69.083 C 302.744 69.633,301.793 71.621,300.887 73.500 C 299.981 75.379,298.970 77.479,298.640 78.167 C 298.311 78.854,298.074 79.473,298.114 79.542 C 298.154 79.610,304.111 79.667,311.351 79.667 L 324.516 79.667 325.851 76.875 C 326.586 75.340,327.439 73.558,327.748 72.917 C 328.467 71.422,328.851 71.526,322.542 71.512 C 319.677 71.505,317.333 71.435,317.333 71.357 C 317.333 71.229,318.791 68.133,320.693 64.222 C 321.514 62.533,321.021 62.667,326.425 62.667 L 330.990 62.667 331.848 60.875 C 332.320 59.890,333.112 58.236,333.608 57.200 C 334.104 56.164,334.465 55.245,334.411 55.158 C 334.354 55.065,332.483 55.000,329.837 55.000 C 326.823 55.000,325.342 54.942,325.302 54.823 C 325.253 54.676,326.531 51.912,328.380 48.167 L 328.750 47.417 333.861 47.333 C 336.673 47.288,339.005 47.212,339.045 47.167 C 339.085 47.121,339.531 46.221,340.036 45.167 C 340.541 44.112,341.368 42.387,341.873 41.333 C 342.378 40.279,342.759 39.360,342.719 39.292 C 342.680 39.223,336.947 39.167,329.981 39.167 L 317.314 39.167 316.344 41.208 M54.833 42.668 C 54.833 43.025,54.902 43.677,54.985 44.117 C 55.069 44.557,55.226 45.479,55.335 46.167 C 55.508 47.260,55.887 49.240,56.341 51.417 C 56.621 52.765,57.494 55.971,58.110 57.917 C 58.830 60.190,58.899 61.212,58.439 62.750 C 57.652 65.379,56.793 69.386,56.275 72.833 C 55.745 76.373,55.652 77.310,55.551 80.200 C 55.477 82.336,55.390 83.173,55.239 83.231 C 54.909 83.358,49.600 80.406,49.167 79.855 C 49.121 79.797,48.552 79.320,47.903 78.795 C 44.914 76.380,42.442 72.888,41.441 69.667 C 40.806 67.623,40.750 67.199,40.750 64.417 C 40.750 60.480,41.229 58.526,43.123 54.750 C 44.999 51.007,49.163 46.109,53.221 42.870 C 54.651 41.728,54.833 41.706,54.833 42.668 M88.905 45.429 C 89.383 45.907,89.199 46.838,88.193 49.018 C 85.676 54.471,85.523 54.799,84.614 56.667 C 83.369 59.227,82.208 60.333,80.767 60.333 C 79.059 60.333,79.093 59.291,80.927 55.403 C 81.433 54.329,82.005 53.105,82.196 52.683 C 83.365 50.114,84.699 47.487,85.145 46.880 C 86.124 45.547,88.216 44.740,88.905 45.429 M111.238 49.208 C 111.091 49.680,110.306 51.425,109.618 52.809 C 108.254 55.555,106.289 55.013,107.594 52.250 C 108.292 50.772,108.636 50.360,109.833 49.566 C 111.080 48.739,111.412 48.655,111.238 49.208 M98.245 60.794 C 97.967 60.993,97.453 62.289,97.574 62.486 C 97.696 62.682,115.738 62.757,116.242 62.563 C 116.518 62.458,117.167 61.280,117.167 60.885 C 117.167 60.643,98.582 60.553,98.245 60.794 M62.644 69.981 L 63.160 71.045 62.721 72.314 C 61.235 76.611,62.753 79.480,67.024 80.445 L 68.211 80.713 69.062 82.065 C 69.531 82.808,70.567 84.386,71.366 85.570 C 73.016 88.019,73.014 88.001,71.714 87.808 C 65.769 86.924,61.244 85.877,58.625 84.779 L 58.000 84.517 58.000 80.358 C 58.000 75.218,58.346 71.888,59.408 66.798 C 60.048 63.730,60.030 63.732,61.161 66.527 C 61.693 67.841,62.360 69.396,62.644 69.981 M126.160 64.708 C 126.244 64.915,126.431 65.683,126.575 66.417 C 126.719 67.150,126.911 68.125,127.001 68.583 C 127.533 71.304,127.907 74.647,127.711 74.942 C 127.358 75.473,119.176 80.000,118.568 80.000 C 118.235 80.000,118.229 80.015,119.354 78.041 C 120.291 76.398,123.667 69.659,123.667 69.432 C 123.667 69.379,123.918 68.791,124.225 68.126 C 124.531 67.461,124.998 66.335,125.262 65.625 C 125.771 64.255,125.915 64.108,126.160 64.708 M128.054 81.385 C 128.028 84.644,127.765 87.613,127.329 89.583 C 125.679 97.042,123.032 101.833,118.783 105.054 C 114.016 108.666,108.461 109.509,101.333 107.701 C 99.743 107.297,96.138 105.829,96.043 105.547 C 96.011 105.449,96.693 104.836,97.560 104.184 C 103.355 99.828,109.686 92.958,114.647 85.640 C 116.405 83.047,116.427 83.023,117.667 82.508 C 118.171 82.298,119.033 81.930,119.583 81.689 C 121.092 81.027,125.970 78.592,126.917 78.027 C 128.087 77.329,128.088 77.330,128.054 81.385 M113.167 84.508 C 113.167 84.605,112.603 85.437,111.914 86.358 C 106.446 93.671,100.685 99.237,94.551 103.133 C 92.847 104.215,93.152 104.259,90.657 102.577 C 86.353 99.676,83.434 97.089,78.444 91.750 C 76.964 90.167,76.818 90.237,81.854 90.111 C 84.249 90.051,86.893 89.923,87.729 89.827 C 92.088 89.323,93.499 89.147,94.333 89.003 C 99.217 88.164,101.489 87.683,105.000 86.748 C 108.311 85.866,110.023 85.351,111.833 84.692 C 112.898 84.304,113.167 84.267,113.167 84.508 M229.159 86.195 C 228.235 87.206,228.203 87.500,229.014 87.500 C 229.483 87.500,229.722 87.407,229.872 87.167 C 229.987 86.983,230.201 86.833,230.348 86.833 C 230.495 86.833,230.751 86.983,230.917 87.167 C 231.104 87.373,231.430 87.500,231.776 87.500 C 232.536 87.500,232.509 87.109,231.686 86.208 C 230.777 85.214,230.060 85.210,229.159 86.195 M59.950 87.923 C 63.627 88.899,70.727 90.000,73.340 90.000 C 74.511 90.000,74.491 89.984,76.770 92.746 C 80.508 97.277,85.010 101.644,88.716 104.333 C 89.411 104.837,89.984 105.344,89.990 105.459 C 90.011 105.879,85.866 107.463,82.960 108.145 C 77.392 109.454,70.794 108.087,66.926 104.823 C 66.662 104.600,66.189 104.198,65.877 103.930 C 62.701 101.211,59.918 95.583,58.676 89.367 C 58.312 87.541,58.349 87.498,59.950 87.923 M216.667 87.980 C 211.640 89.057,212.364 97.450,217.500 97.634 C 220.216 97.731,223.010 94.920,220.760 94.353 C 219.757 94.101,219.717 94.108,219.601 94.570 C 219.181 96.246,216.731 96.530,215.788 95.013 C 215.300 94.229,215.245 91.563,215.700 90.733 C 216.504 89.266,218.537 89.176,219.445 90.568 L 219.807 91.122 220.603 90.920 C 221.527 90.685,221.626 90.518,221.277 89.783 C 220.605 88.367,218.572 87.572,216.667 87.980 M248.500 87.981 C 244.526 88.840,243.844 95.448,247.538 97.293 C 249.801 98.423,253.333 96.982,253.333 94.929 C 253.333 94.069,251.763 94.020,251.232 94.864 C 250.106 96.652,247.896 96.370,247.340 94.368 C 246.366 90.860,248.979 88.046,251.071 90.351 L 251.750 91.099 252.500 90.906 C 255.118 90.234,251.230 87.391,248.500 87.981 M304.333 87.982 C 300.973 88.700,299.634 93.522,302.037 96.253 C 304.011 98.495,307.598 98.127,308.898 95.550 C 309.264 94.823,309.240 94.686,308.708 94.484 C 307.592 94.058,307.370 94.089,307.114 94.703 C 306.006 97.355,302.848 95.904,302.835 92.739 C 302.824 89.770,306.197 88.247,307.175 90.779 C 307.311 91.129,307.345 91.133,308.175 90.914 C 309.258 90.629,309.263 90.623,308.949 89.964 C 308.219 88.430,306.232 87.577,304.333 87.982 M323.500 87.980 C 319.301 88.894,318.770 95.541,322.750 97.355 C 326.049 98.859,329.256 96.627,329.245 92.833 C 329.235 89.259,326.856 87.249,323.500 87.980 M342.000 87.980 C 337.812 88.892,337.279 95.545,341.250 97.355 C 344.548 98.859,347.752 96.629,347.748 92.833 C 347.745 89.278,345.345 87.251,342.000 87.980 M352.583 87.980 C 348.403 88.755,347.662 95.306,351.537 97.237 C 353.181 98.056,356.120 97.719,357.508 96.551 L 358.011 96.128 357.964 94.356 L 357.917 92.583 355.879 92.537 L 353.842 92.490 353.740 92.898 C 353.539 93.697,353.694 93.913,354.501 93.961 C 355.879 94.042,356.026 94.117,355.968 94.709 C 355.791 96.522,352.349 96.452,351.387 94.616 C 349.729 91.452,353.133 87.910,355.482 90.355 C 356.772 91.697,358.329 90.703,357.156 89.287 C 356.221 88.157,354.413 87.641,352.583 87.980 M148.410 88.207 C 148.365 88.325,148.348 90.483,148.372 93.002 L 148.417 97.583 149.083 97.627 C 150.167 97.697,150.229 97.587,150.186 95.667 C 150.137 93.456,150.093 93.500,152.354 93.500 L 154.167 93.500 154.167 92.750 C 154.167 92.269,154.092 91.995,153.958 91.985 C 153.844 91.976,153.024 91.982,152.138 91.998 C 150.360 92.029,150.164 91.918,150.169 90.886 C 150.175 89.663,150.141 89.681,152.560 89.630 L 154.750 89.583 154.750 88.833 L 154.750 88.083 151.621 88.038 C 149.192 88.003,148.474 88.041,148.410 88.207 M156.436 88.260 C 156.379 88.407,156.333 90.506,156.333 92.924 C 156.333 98.241,155.870 97.689,160.287 97.629 L 163.583 97.583 163.583 96.833 L 163.583 96.083 161.000 96.000 L 158.417 95.917 158.365 95.009 C 158.267 93.282,158.172 93.349,160.794 93.296 L 163.083 93.250 163.133 92.652 C 163.207 91.769,162.992 91.683,160.573 91.630 L 158.417 91.583 158.417 90.667 L 158.417 89.750 160.917 89.667 L 163.417 89.583 163.417 88.833 L 163.417 88.083 159.977 88.038 C 156.950 87.999,156.526 88.025,156.436 88.260 M165.285 88.104 C 165.220 88.169,165.167 90.270,165.167 92.772 C 165.167 97.814,165.134 97.670,166.281 97.664 C 167.193 97.659,167.176 97.761,167.128 92.739 L 167.083 88.083 166.244 88.034 C 165.782 88.007,165.350 88.038,165.285 88.104 M169.124 88.098 C 168.847 88.376,168.980 97.457,169.264 97.566 C 170.606 98.081,171.000 97.576,171.000 95.344 L 171.000 93.667 171.630 93.667 C 172.510 93.667,172.807 93.929,174.065 95.818 C 175.339 97.732,175.167 97.646,177.667 97.611 L 179.583 97.583 179.870 97.008 C 180.028 96.692,180.230 96.223,180.320 95.967 L 180.483 95.500 182.394 95.500 L 184.306 95.500 184.598 96.292 C 185.066 97.562,186.376 98.179,187.089 97.467 C 187.134 97.422,186.529 95.780,185.746 93.818 C 184.037 89.535,184.134 89.773,183.693 88.792 L 183.338 88.000 182.368 88.000 C 181.404 88.000,181.396 88.004,181.137 88.625 C 180.762 89.524,180.169 91.018,178.877 94.321 C 177.767 97.158,177.452 97.677,177.219 97.056 C 177.025 96.537,175.730 94.613,175.182 94.029 C 174.668 93.481,174.633 93.167,175.087 93.167 C 175.447 93.167,176.434 92.229,176.667 91.665 C 177.131 90.546,176.548 88.975,175.445 88.373 C 174.885 88.067,169.394 87.828,169.124 88.098 M191.611 88.111 C 191.550 88.172,191.500 90.308,191.500 92.858 L 191.500 97.494 191.938 97.603 C 192.960 97.860,196.418 97.556,197.270 97.135 C 200.415 95.580,200.125 89.411,196.852 88.256 C 196.107 87.994,191.847 87.875,191.611 88.111 M201.102 88.260 C 200.923 88.728,200.987 96.997,201.173 97.344 C 201.334 97.646,201.550 97.667,204.464 97.664 C 208.367 97.662,208.333 97.670,208.333 96.735 L 208.333 96.008 205.708 95.963 L 203.083 95.917 203.035 94.818 C 202.970 93.366,202.992 93.353,205.594 93.297 L 207.750 93.250 207.800 92.652 C 207.874 91.769,207.659 91.683,205.239 91.630 L 203.083 91.583 203.083 90.667 L 203.083 89.750 205.583 89.667 L 208.083 89.583 208.083 88.833 L 208.083 88.083 204.644 88.038 C 201.617 87.999,201.193 88.025,201.102 88.260 M223.285 88.104 C 223.220 88.169,223.167 90.304,223.167 92.848 L 223.167 97.474 223.667 97.583 C 223.942 97.644,224.393 97.643,224.669 97.583 L 225.172 97.472 225.128 92.778 L 225.083 88.083 224.244 88.034 C 223.782 88.007,223.350 88.038,223.285 88.104 M227.114 88.108 C 226.844 88.379,226.987 97.459,227.264 97.566 C 227.409 97.621,228.941 97.667,230.668 97.667 C 234.175 97.667,234.398 97.602,234.301 96.604 L 234.250 96.083 231.762 96.037 C 228.859 95.983,228.833 95.971,228.833 94.656 C 228.833 93.423,228.812 93.434,231.417 93.333 L 233.583 93.250 233.583 92.500 L 233.583 91.750 231.250 91.667 L 228.917 91.583 228.863 91.019 C 228.734 89.668,228.710 89.681,231.460 89.629 L 233.917 89.583 233.917 88.833 L 233.917 88.083 230.573 88.038 C 228.734 88.014,227.177 88.045,227.114 88.108 M235.934 88.264 C 235.879 88.409,235.833 90.499,235.833 92.910 C 235.833 97.792,235.819 97.729,236.947 97.636 L 237.583 97.583 237.667 94.690 C 237.765 91.277,237.571 91.257,239.845 94.917 C 241.696 97.897,241.741 97.933,243.128 97.561 L 243.505 97.460 243.461 92.772 L 243.417 88.083 242.583 88.083 L 241.750 88.083 241.657 91.000 C 241.605 92.604,241.549 93.954,241.532 93.999 C 241.514 94.044,240.717 92.819,239.759 91.277 C 238.802 89.735,237.930 88.367,237.822 88.237 C 237.539 87.896,236.068 87.917,235.934 88.264 M255.119 88.104 C 254.901 88.321,254.978 97.245,255.200 97.467 C 255.425 97.692,256.472 97.732,256.794 97.528 C 256.958 97.424,256.995 96.352,256.961 92.739 L 256.917 88.083 256.077 88.034 C 255.615 88.007,255.184 88.038,255.119 88.104 M261.527 88.218 C 261.420 88.346,261.155 88.930,260.937 89.517 C 260.719 90.103,259.961 92.065,259.253 93.875 C 257.880 97.381,257.839 97.668,258.703 97.664 C 259.741 97.660,259.925 97.528,260.282 96.530 L 260.619 95.583 262.410 95.536 C 264.450 95.482,264.518 95.512,264.932 96.664 C 265.236 97.510,265.463 97.662,266.417 97.662 C 267.498 97.661,267.468 97.454,265.824 93.583 C 265.747 93.400,265.300 92.275,264.833 91.083 C 263.620 87.992,263.693 88.093,262.621 88.034 C 262.003 88.000,261.659 88.058,261.527 88.218 M271.667 92.747 L 271.667 97.494 272.042 97.586 C 272.248 97.637,273.842 97.657,275.583 97.631 L 278.750 97.583 278.801 96.792 L 278.852 96.000 276.279 96.000 C 273.360 96.000,273.507 96.080,273.502 94.492 C 273.499 93.375,273.593 93.333,276.117 93.333 L 278.333 93.333 278.333 92.587 C 278.333 91.676,278.346 91.681,275.583 91.624 C 273.347 91.578,273.326 91.564,273.576 90.233 L 273.680 89.676 276.120 89.629 L 278.560 89.583 278.682 89.127 C 278.984 87.993,279.005 88.000,275.147 88.000 L 271.667 88.000 271.667 92.747 M283.568 88.231 C 283.517 88.361,283.501 88.719,283.530 89.026 L 283.583 89.583 284.958 89.632 L 286.333 89.680 286.333 93.587 L 286.333 97.494 286.751 97.599 C 286.981 97.656,287.429 97.654,287.748 97.595 L 288.327 97.486 288.372 93.618 L 288.417 89.750 289.750 89.667 L 291.083 89.583 291.083 88.833 L 291.083 88.083 287.371 88.038 C 284.283 88.001,283.643 88.034,283.568 88.231 M292.444 88.111 C 292.176 88.380,292.322 97.460,292.597 97.566 C 292.742 97.621,294.308 97.667,296.077 97.667 C 299.635 97.667,299.733 97.638,299.636 96.636 L 299.583 96.083 297.000 96.000 L 294.417 95.917 294.417 94.667 L 294.417 93.417 296.750 93.333 L 299.083 93.250 299.137 92.687 C 299.219 91.835,299.030 91.758,296.617 91.667 L 294.417 91.583 294.417 90.667 L 294.417 89.750 296.583 89.709 C 299.475 89.655,299.500 89.647,299.500 88.848 C 299.500 88.413,299.414 88.169,299.236 88.101 C 298.876 87.963,292.583 87.972,292.444 88.111 M310.944 88.111 C 310.883 88.172,310.833 90.306,310.833 92.854 L 310.833 97.485 311.402 97.592 C 312.642 97.824,312.653 97.800,312.704 94.795 C 312.732 93.194,312.817 92.088,312.917 92.055 C 313.008 92.025,313.789 93.166,314.650 94.591 C 316.348 97.399,316.597 97.667,317.517 97.667 C 318.510 97.667,318.510 97.665,318.461 92.646 L 318.417 88.083 317.583 88.083 L 316.750 88.083 316.704 90.971 C 316.649 94.478,316.701 94.467,314.815 91.350 C 312.740 87.921,312.810 88.000,311.856 88.000 C 311.416 88.000,311.006 88.050,310.944 88.111 M331.125 88.176 C 330.859 88.335,330.833 88.744,330.833 92.906 L 330.833 97.461 331.208 97.562 C 331.415 97.617,332.868 97.663,334.438 97.664 C 337.602 97.667,337.731 97.625,337.636 96.636 L 337.583 96.083 335.250 96.000 L 332.917 95.917 332.833 92.000 L 332.750 88.083 332.083 88.042 C 331.717 88.020,331.285 88.080,331.125 88.176 M359.778 88.111 C 359.509 88.380,359.656 97.460,359.930 97.566 C 360.332 97.720,360.985 97.687,361.344 97.494 C 361.668 97.321,361.866 89.048,361.566 88.264 C 361.462 87.994,360.018 87.871,359.778 88.111 M366.015 88.367 C 365.932 88.578,365.410 89.930,364.855 91.372 C 364.299 92.814,363.685 94.389,363.489 94.872 C 363.293 95.355,363.074 95.900,363.004 96.083 C 362.933 96.267,362.787 96.635,362.679 96.902 C 362.439 97.495,362.626 97.660,363.542 97.664 C 364.203 97.667,364.833 97.217,364.833 96.742 C 364.833 96.600,364.948 96.262,365.088 95.992 L 365.342 95.500 367.215 95.500 L 369.089 95.500 369.482 96.490 C 369.901 97.545,370.057 97.673,370.889 97.655 C 372.066 97.629,372.065 97.642,371.009 95.000 C 370.477 93.671,369.998 92.471,369.944 92.333 C 369.890 92.196,369.485 91.183,369.043 90.083 L 368.241 88.083 367.203 88.034 C 366.252 87.988,366.152 88.016,366.015 88.367 M326.193 90.019 C 327.804 91.166,327.609 95.032,325.902 95.809 C 323.598 96.859,321.575 94.622,322.241 91.760 C 322.703 89.771,324.645 88.916,326.193 90.019 M344.667 89.980 C 346.249 91.136,346.185 94.674,344.564 95.678 C 342.328 97.063,340.262 94.946,340.740 91.761 C 341.018 89.904,343.206 88.913,344.667 89.980 M174.424 90.076 C 175.494 91.145,174.671 92.000,172.571 92.000 L 171.000 92.000 171.000 90.833 L 171.000 89.667 172.508 89.667 C 173.886 89.667,174.050 89.702,174.424 90.076 M196.281 89.992 C 197.872 90.962,197.826 94.965,196.215 95.733 C 195.558 96.047,193.823 96.090,193.533 95.800 C 193.322 95.589,193.236 90.448,193.434 89.930 C 193.591 89.523,195.583 89.566,196.281 89.992 M263.166 91.917 C 263.787 93.578,263.746 93.741,262.695 93.801 C 261.432 93.873,261.278 93.691,261.695 92.616 C 262.585 90.316,262.571 90.323,263.166 91.917 M183.061 92.189 C 183.603 93.758,183.568 93.827,182.226 93.831 C 181.147 93.834,181.063 93.646,181.579 92.384 C 181.797 91.852,182.016 91.285,182.065 91.125 C 182.258 90.505,182.607 90.878,183.061 92.189 M367.867 92.228 C 368.460 93.765,368.408 93.860,367.000 93.793 C 365.922 93.742,365.913 93.708,366.524 91.957 C 367.023 90.525,367.227 90.566,367.867 92.228 M322.024 104.249 C 320.106 104.847,319.187 107.406,320.126 109.530 C 321.411 112.435,325.866 111.813,326.532 108.635 C 327.161 105.640,324.831 103.373,322.024 104.249 M301.278 104.278 C 301.022 104.533,301.154 111.172,301.417 111.273 C 302.187 111.569,302.483 111.220,302.534 109.957 L 302.583 108.750 303.791 108.630 C 306.285 108.381,307.451 106.376,305.966 104.890 C 305.362 104.286,301.742 103.813,301.278 104.278 M309.058 104.294 C 308.952 104.362,308.662 104.942,308.415 105.583 C 308.167 106.225,307.871 106.975,307.756 107.250 C 307.642 107.525,307.381 108.200,307.176 108.750 C 306.971 109.300,306.689 110.025,306.549 110.361 C 305.950 111.803,307.434 111.778,308.134 110.333 L 308.417 109.750 309.750 109.750 L 311.083 109.750 311.366 110.333 C 311.841 111.314,312.843 111.769,313.093 111.117 C 313.177 110.899,310.784 104.760,310.465 104.375 C 310.278 104.149,309.368 104.097,309.058 104.294 M327.235 104.585 C 327.079 105.204,327.411 105.477,328.389 105.533 L 329.250 105.583 329.296 108.373 C 329.341 111.156,329.342 111.163,329.738 111.262 C 330.740 111.513,330.833 111.255,330.833 108.244 L 330.833 105.500 331.747 105.500 C 332.582 105.500,332.669 105.464,332.765 105.084 C 332.988 104.196,332.899 104.167,330.008 104.167 L 327.340 104.167 327.235 104.585 M333.875 104.273 C 333.718 104.339,333.667 105.196,333.667 107.744 C 333.667 111.476,333.676 111.505,334.790 111.225 L 335.173 111.129 335.128 107.689 L 335.083 104.250 334.583 104.218 C 334.308 104.200,333.990 104.225,333.875 104.273 M336.619 104.270 C 336.290 104.598,336.491 111.141,336.833 111.250 C 337.716 111.530,337.833 111.294,337.833 109.239 C 337.833 106.814,337.927 106.815,339.417 109.254 C 340.593 111.181,341.305 111.762,341.837 111.229 C 342.046 111.020,342.078 104.512,341.872 104.305 C 341.205 103.639,340.919 104.186,340.833 106.293 C 340.730 108.816,340.717 108.816,339.148 106.291 C 337.873 104.240,337.193 103.696,336.619 104.270 M345.460 104.708 C 345.173 105.310,345.069 105.561,344.411 107.250 C 344.160 107.892,343.863 108.642,343.749 108.917 C 342.851 111.087,342.855 111.324,343.785 111.331 C 344.212 111.334,344.410 111.140,344.801 110.333 L 345.083 109.750 346.414 109.750 L 347.745 109.750 348.121 110.542 C 348.436 111.206,348.571 111.333,348.957 111.331 C 349.986 111.325,349.918 110.901,348.249 106.917 C 348.134 106.642,347.872 106.004,347.667 105.500 C 347.035 103.942,346.003 103.572,345.460 104.708 M359.278 104.278 C 359.022 104.533,359.154 111.172,359.417 111.273 C 360.187 111.569,360.483 111.220,360.534 109.957 L 360.583 108.750 361.729 108.637 C 364.274 108.385,365.466 106.390,363.966 104.890 C 363.362 104.286,359.742 103.813,359.278 104.278 M365.792 104.261 C 365.470 104.590,365.653 111.140,365.986 111.246 C 366.910 111.539,367.167 111.227,367.167 109.810 C 367.167 107.769,367.925 107.804,369.376 109.913 C 370.374 111.364,370.899 111.656,371.648 111.182 C 371.903 111.020,371.010 109.362,370.341 108.757 C 369.901 108.359,369.910 108.119,370.371 107.915 C 371.718 107.317,371.778 105.196,370.467 104.478 C 370.037 104.242,365.993 104.054,365.792 104.261 M314.111 104.444 C 313.799 104.756,313.995 110.986,314.322 111.161 C 315.289 111.678,319.167 111.294,319.167 110.681 C 319.167 110.152,318.781 110.015,317.158 109.965 L 315.583 109.917 315.538 107.125 L 315.492 104.333 314.857 104.333 C 314.508 104.333,314.172 104.383,314.111 104.444 M324.054 105.517 C 325.742 106.286,325.385 109.756,323.584 110.094 C 322.249 110.345,321.333 109.376,321.334 107.717 C 321.335 105.860,322.587 104.848,324.054 105.517 M304.770 105.923 C 305.334 106.784,304.628 107.417,303.234 107.303 C 302.571 107.249,302.263 106.524,302.567 105.732 C 302.741 105.279,304.444 105.427,304.770 105.923 M362.770 105.923 C 363.334 106.784,362.628 107.417,361.234 107.303 C 360.571 107.249,360.263 106.524,360.567 105.732 C 360.741 105.279,362.444 105.427,362.770 105.923 M369.738 105.762 C 370.481 106.505,369.807 107.167,368.308 107.167 L 367.167 107.167 367.167 106.333 L 367.167 105.500 368.321 105.500 C 369.149 105.500,369.550 105.574,369.738 105.762 M310.218 107.252 C 310.568 108.319,310.505 108.501,309.782 108.497 C 308.900 108.493,308.795 108.336,309.115 107.491 C 309.654 106.062,309.815 106.027,310.218 107.252 M346.907 107.352 C 347.227 108.330,347.159 108.501,346.448 108.497 C 345.574 108.493,345.443 108.324,345.725 107.568 C 345.858 107.210,346.009 106.787,346.061 106.628 C 346.220 106.136,346.622 106.480,346.907 107.352 M352.898 108.238 C 352.593 109.034,352.857 109.248,354.211 109.299 C 355.623 109.352,355.804 109.237,355.598 108.416 C 355.472 107.914,353.083 107.757,352.898 108.238 " stroke="none" fill="#fbf7f8" fill-rule="evenodd"></path><path id="path1" d="M0.000 60.000 L 0.000 120.000 200.000 120.000 L 400.000 120.000 400.000 60.000 L 400.000 0.000 200.000 0.000 L 0.000 0.000 0.000 60.000 M79.833 5.900 C 83.774 6.713,87.669 8.301,91.622 10.707 L 92.994 11.541 94.205 10.815 C 107.141 3.056,118.639 3.825,125.619 12.917 C 128.179 16.250,129.848 20.439,130.998 26.417 C 131.269 27.826,131.330 28.000,131.553 28.000 C 131.893 27.999,133.833 28.853,136.083 29.994 C 156.004 40.100,154.035 60.403,131.709 75.106 C 130.111 76.158,130.247 75.579,130.515 80.204 C 132.085 107.249,115.577 120.191,94.684 108.296 C 93.051 107.366,93.051 107.367,92.032 107.941 C 72.458 118.969,57.967 110.834,55.577 87.477 L 55.481 86.538 54.699 86.253 C 54.269 86.096,53.595 85.823,53.201 85.647 C 52.808 85.470,52.186 85.205,51.819 85.058 C 44.882 82.283,38.750 76.255,37.091 70.583 C 36.930 70.033,36.734 69.374,36.656 69.118 C 35.466 65.252,36.744 58.353,39.449 54.038 C 39.752 53.555,40.000 53.125,40.000 53.082 C 40.000 52.998,42.000 50.139,42.156 50.000 C 42.208 49.954,42.543 49.542,42.901 49.083 C 44.693 46.790,49.116 42.789,52.667 40.249 C 53.538 39.626,54.278 39.094,54.312 39.066 C 54.346 39.038,54.394 37.118,54.420 34.799 C 54.474 29.813,54.808 26.855,55.726 23.235 C 58.300 13.077,64.287 6.876,72.750 5.603 C 73.787 5.447,78.620 5.649,79.833 5.900 M73.500 9.913 C 64.881 11.819,59.386 18.590,57.495 29.633 C 57.010 32.469,56.685 37.062,56.958 37.219 C 57.027 37.258,57.871 36.846,58.833 36.302 C 62.846 34.035,67.848 31.784,73.750 29.591 C 74.728 29.227,75.011 29.030,75.498 28.370 C 78.969 23.670,84.208 18.241,88.658 14.732 C 90.509 13.272,90.493 13.336,89.193 12.680 C 84.225 10.172,77.605 9.005,73.500 9.913 M105.417 9.863 C 102.558 10.401,99.995 11.208,97.507 12.354 C 95.437 13.307,95.469 13.192,96.956 14.374 C 99.521 16.414,101.873 18.571,104.466 21.261 L 107.106 24.000 109.217 24.000 C 114.161 24.000,120.497 24.836,125.816 26.190 C 128.085 26.768,127.989 26.828,127.502 25.122 C 124.375 14.190,115.394 7.985,105.417 9.863 M91.021 16.113 C 87.487 18.527,82.892 22.652,79.610 26.358 C 77.848 28.346,77.712 28.299,82.000 27.196 C 85.665 26.254,88.633 25.646,92.667 25.014 C 94.976 24.652,101.770 24.000,103.235 24.000 C 104.250 24.000,104.232 23.955,102.542 22.313 C 99.632 19.485,93.713 14.833,93.024 14.833 C 92.953 14.833,92.052 15.409,91.021 16.113 M101.333 25.944 C 95.247 26.129,86.748 27.545,80.000 29.500 C 79.313 29.699,78.525 29.922,78.250 29.997 C 76.191 30.553,75.931 30.761,74.177 33.250 C 68.900 40.736,64.388 49.780,61.601 58.455 C 60.789 60.985,60.758 60.761,62.545 65.333 C 64.154 69.451,64.252 69.585,65.540 69.441 C 66.751 69.305,74.125 69.236,74.248 69.359 C 74.303 69.414,74.122 69.952,73.846 70.555 C 72.976 72.456,72.833 72.860,72.833 73.428 C 72.833 74.855,75.100 74.875,76.515 73.460 C 76.955 73.019,77.598 71.801,79.001 68.750 C 79.254 68.200,79.844 66.935,80.314 65.940 C 81.393 63.649,81.390 63.593,80.231 64.517 C 76.605 67.410,70.414 67.421,68.505 64.539 C 67.734 63.375,67.975 60.578,69.000 58.794 C 69.092 58.635,69.167 58.437,69.167 58.354 C 69.167 57.911,73.419 49.294,74.511 47.527 C 78.031 41.824,86.573 38.106,94.101 38.999 C 100.509 39.759,101.849 42.886,98.730 49.796 C 98.512 50.280,98.333 50.709,98.333 50.750 C 98.333 50.825,97.901 51.790,96.877 54.000 C 96.559 54.688,96.110 55.663,95.879 56.167 C 95.649 56.671,95.132 57.786,94.730 58.644 C 94.329 59.502,94.000 60.225,94.000 60.250 C 94.000 60.292,93.329 61.733,91.632 65.333 C 88.721 71.510,87.801 73.045,85.833 75.007 C 82.244 78.586,77.798 80.493,72.367 80.783 C 70.886 80.862,70.502 80.932,70.570 81.108 C 70.881 81.920,75.103 87.787,75.551 88.031 C 76.086 88.322,82.336 88.415,85.742 88.181 C 89.477 87.925,93.458 87.461,95.917 86.994 C 96.375 86.907,97.388 86.716,98.167 86.570 C 102.605 85.737,108.269 84.150,112.679 82.502 C 114.918 81.666,115.252 81.502,115.500 81.115 C 118.053 77.139,120.602 72.200,122.998 66.583 C 123.318 65.833,124.082 63.852,124.753 62.035 L 125.201 60.819 124.402 58.368 C 123.510 55.630,121.825 51.194,121.003 49.417 C 120.706 48.775,120.398 48.081,120.319 47.875 C 120.137 47.400,119.724 47.390,119.576 47.857 C 119.514 48.053,119.180 48.822,118.835 49.565 C 118.491 50.309,118.021 51.329,117.793 51.833 C 116.814 53.995,116.580 54.504,115.829 56.108 C 114.886 58.123,115.277 57.965,111.056 58.031 C 107.395 58.088,107.410 58.091,107.667 57.417 C 107.893 56.820,107.812 56.756,107.317 57.139 C 104.812 59.083,100.838 59.436,99.418 57.841 C 98.694 57.027,99.021 55.377,100.513 52.333 C 102.075 49.143,103.108 48.462,109.500 46.407 C 112.757 45.360,113.259 45.004,114.003 43.218 C 114.596 41.792,114.554 41.333,113.830 41.333 C 112.921 41.333,112.569 41.648,111.759 43.184 C 110.865 44.879,111.081 44.773,108.250 44.905 C 107.150 44.957,105.744 45.047,105.125 45.107 C 103.616 45.252,103.676 44.801,105.521 42.167 C 106.996 40.060,110.543 38.053,113.625 37.579 C 114.771 37.404,114.680 37.207,111.188 32.333 C 110.026 30.712,109.433 29.952,107.612 27.750 C 105.836 25.603,106.479 25.788,101.333 25.944 M108.833 26.088 C 108.833 26.137,109.349 26.830,109.978 27.630 C 111.597 29.685,113.874 32.922,115.310 35.211 C 115.985 36.287,116.547 37.171,116.560 37.177 C 116.573 37.182,117.218 37.228,117.994 37.279 C 122.675 37.584,123.397 39.152,121.188 44.215 L 120.839 45.014 121.570 46.549 C 122.620 48.752,124.173 52.443,124.987 54.667 C 125.920 57.214,125.971 57.333,126.129 57.333 C 126.311 57.333,126.904 55.087,127.647 51.583 C 128.306 48.477,128.533 46.996,128.990 42.801 C 129.399 39.055,129.032 30.469,128.437 29.868 C 127.957 29.383,122.263 27.670,119.417 27.155 C 114.834 26.325,108.833 25.720,108.833 26.088 M131.669 31.372 C 131.743 38.030,131.202 44.473,130.162 49.333 C 129.825 50.910,129.161 53.775,129.003 54.333 C 128.515 56.062,127.921 58.060,127.567 59.162 C 127.105 60.600,127.078 61.041,127.399 61.950 C 127.597 62.512,128.402 65.728,128.996 68.333 C 129.090 68.746,129.318 69.981,129.504 71.078 C 129.919 73.541,129.910 73.532,131.109 72.653 C 148.575 59.852,150.242 42.643,134.948 33.012 C 132.890 31.715,131.666 31.104,131.669 31.372 M71.083 32.526 C 65.346 34.991,58.676 38.559,57.124 39.991 C 56.709 40.374,57.365 47.068,58.161 50.583 C 59.486 56.437,59.958 57.882,60.241 56.958 C 61.284 53.551,65.095 44.888,67.114 41.333 C 67.296 41.012,67.693 40.300,67.995 39.750 C 68.297 39.200,68.601 38.675,68.671 38.583 C 68.741 38.492,69.005 38.042,69.258 37.583 C 69.510 37.125,70.381 35.731,71.192 34.485 C 73.066 31.607,73.069 31.672,71.083 32.526 M249.667 38.737 C 252.895 39.299,254.998 40.174,256.476 41.571 C 259.028 43.984,258.639 46.501,254.338 55.375 L 253.632 56.833 246.076 56.833 C 241.920 56.833,238.488 56.777,238.449 56.708 C 238.410 56.640,239.126 55.046,240.041 53.167 C 243.510 46.039,243.598 45.604,241.645 45.248 C 239.360 44.830,237.859 46.166,235.836 50.417 C 235.297 51.549,234.107 54.030,231.877 58.667 C 231.282 59.904,230.513 61.517,230.168 62.250 C 229.822 62.983,228.997 64.708,228.335 66.083 C 225.309 72.362,225.161 72.889,226.277 73.418 C 228.670 74.554,230.485 73.082,232.911 68.037 C 233.516 66.779,234.253 65.262,234.549 64.667 L 235.087 63.583 242.575 63.540 C 246.694 63.516,250.128 63.562,250.208 63.641 C 250.610 64.043,246.288 71.553,244.529 73.510 C 240.653 77.823,233.106 80.403,224.333 80.412 C 217.452 80.419,214.250 79.607,211.908 77.261 C 209.529 74.877,210.017 72.252,214.621 62.667 C 215.172 61.521,215.906 59.983,216.253 59.250 C 218.322 54.875,220.923 49.690,221.770 48.251 C 225.006 42.754,231.754 39.340,241.167 38.439 C 242.645 38.298,248.277 38.495,249.667 38.737 M369.589 38.728 C 373.650 39.366,376.751 41.113,377.683 43.288 C 378.516 45.231,377.552 48.768,374.536 54.833 L 373.583 56.750 366.093 56.793 C 361.974 56.817,358.549 56.780,358.482 56.710 C 358.415 56.640,358.812 55.646,359.364 54.500 C 363.040 46.863,363.317 46.099,362.594 45.571 C 361.738 44.944,359.376 45.247,358.399 46.107 C 357.619 46.794,356.002 49.834,352.915 56.417 C 352.615 57.058,351.844 58.671,351.204 60.000 C 348.065 66.515,347.592 67.501,347.075 68.607 C 345.255 72.495,345.208 73.403,346.816 73.619 C 348.566 73.854,349.917 73.196,350.961 71.600 C 351.581 70.652,354.833 64.131,354.833 63.836 C 354.833 63.762,354.952 63.657,355.097 63.601 C 355.436 63.471,370.079 63.468,370.209 63.598 C 370.350 63.739,369.270 65.930,367.162 69.785 C 364.166 75.265,358.907 78.469,350.205 80.118 C 348.312 80.476,340.528 80.531,338.750 80.198 C 329.708 78.506,328.552 75.271,333.379 65.167 C 335.422 60.891,336.500 58.633,337.595 56.333 C 341.870 47.354,343.161 45.468,346.661 43.086 C 350.497 40.477,355.065 39.018,361.250 38.429 C 362.600 38.300,368.129 38.499,369.589 38.728 M195.500 39.402 C 195.500 39.532,194.837 41.013,194.027 42.694 C 193.217 44.375,192.415 46.050,192.244 46.417 C 191.801 47.368,192.055 47.328,186.484 47.331 C 180.817 47.334,181.189 47.259,180.621 48.504 C 180.474 48.827,179.749 50.353,179.010 51.895 C 178.271 53.437,177.709 54.767,177.760 54.850 C 177.812 54.933,179.815 55.000,182.250 55.000 C 184.707 55.000,186.688 55.067,186.741 55.151 C 186.792 55.235,186.028 56.941,185.042 58.943 L 183.250 62.583 178.555 62.667 C 175.973 62.712,173.823 62.788,173.777 62.834 C 173.731 62.880,173.433 63.480,173.114 64.167 C 172.795 64.854,171.881 66.767,171.082 68.417 C 170.283 70.067,169.371 71.970,169.055 72.647 C 168.739 73.324,167.850 75.180,167.080 76.772 L 165.679 79.667 158.090 79.667 C 152.796 79.667,150.500 79.613,150.500 79.488 C 150.500 79.389,150.923 78.433,151.439 77.363 C 151.955 76.293,152.697 74.742,153.086 73.917 C 153.476 73.092,154.337 71.292,154.999 69.917 C 155.662 68.542,156.563 66.667,157.000 65.750 C 157.437 64.833,158.338 62.958,159.001 61.583 C 159.663 60.208,160.526 58.408,160.917 57.583 C 161.308 56.758,162.245 54.808,162.999 53.250 C 163.753 51.692,164.632 49.854,164.953 49.167 C 165.273 48.479,166.006 46.942,166.580 45.750 C 167.154 44.558,168.056 42.683,168.583 41.583 C 169.111 40.483,169.617 39.490,169.708 39.375 C 169.971 39.046,195.500 39.073,195.500 39.402 M222.700 39.544 C 222.673 39.706,221.834 41.524,220.836 43.586 L 219.021 47.333 213.933 47.333 L 208.845 47.333 207.775 49.542 C 205.748 53.726,205.323 54.682,205.421 54.841 C 205.480 54.936,207.338 55.000,210.010 55.000 C 213.774 55.000,214.500 55.038,214.500 55.236 C 214.500 55.366,213.716 57.091,212.759 59.070 L 211.017 62.667 206.384 62.669 C 203.835 62.671,201.662 62.728,201.553 62.797 C 201.379 62.908,200.483 64.703,198.065 69.787 C 197.662 70.633,197.333 71.364,197.333 71.412 C 197.333 71.461,199.715 71.501,202.625 71.503 C 205.535 71.504,208.014 71.567,208.133 71.643 C 208.325 71.764,206.718 75.383,204.866 79.000 L 204.567 79.583 191.492 79.626 C 184.301 79.650,178.326 79.635,178.215 79.593 C 178.080 79.541,178.290 78.956,178.859 77.800 C 179.324 76.856,179.949 75.558,180.249 74.917 C 180.549 74.275,181.300 72.700,181.918 71.417 C 183.402 68.333,184.840 65.336,185.916 63.083 C 186.398 62.075,187.298 60.200,187.916 58.917 C 188.535 57.633,189.453 55.721,189.957 54.667 C 192.182 50.010,192.683 48.963,193.626 47.000 C 196.360 41.307,196.833 40.306,196.833 40.224 C 196.833 40.175,196.989 39.916,197.179 39.650 L 197.524 39.165 210.137 39.207 C 222.082 39.248,222.747 39.266,222.700 39.544 M280.720 39.292 C 280.760 39.360,280.415 40.204,279.952 41.167 C 279.490 42.129,278.515 44.154,277.785 45.667 C 277.056 47.179,276.177 49.017,275.832 49.750 C 275.487 50.483,274.699 52.133,274.082 53.417 C 273.464 54.700,272.518 56.669,271.980 57.792 C 271.441 58.915,270.559 60.752,270.020 61.875 C 269.481 62.998,268.581 64.873,268.020 66.042 C 267.459 67.210,266.541 69.123,265.979 70.292 C 265.418 71.460,264.602 73.167,264.167 74.083 C 263.732 75.000,262.954 76.631,262.437 77.708 L 261.499 79.667 253.994 79.667 C 247.962 79.667,246.473 79.624,246.406 79.448 C 246.360 79.328,247.083 77.660,248.013 75.740 C 248.944 73.821,249.950 71.725,250.250 71.083 C 250.550 70.442,251.358 68.754,252.044 67.333 C 252.730 65.912,253.630 64.037,254.044 63.167 C 254.458 62.296,255.339 60.458,256.001 59.083 C 256.663 57.708,257.488 55.983,257.834 55.250 C 258.181 54.517,259.117 52.567,259.916 50.917 C 260.715 49.267,261.578 47.467,261.833 46.917 C 262.088 46.367,262.943 44.579,263.732 42.944 C 264.521 41.309,265.167 39.927,265.167 39.874 C 265.167 39.186,265.381 39.167,273.183 39.167 C 277.288 39.167,280.680 39.223,280.720 39.292 M315.595 39.388 C 315.642 39.509,314.927 41.166,314.007 43.070 C 313.086 44.973,312.333 46.587,312.333 46.656 C 312.333 47.249,311.784 47.327,307.323 47.372 L 302.917 47.417 301.833 49.583 C 301.237 50.775,300.248 52.800,299.636 54.083 C 299.023 55.367,297.870 57.767,297.075 59.417 C 296.280 61.067,295.347 63.017,295.001 63.750 C 294.655 64.483,293.830 66.208,293.168 67.583 C 292.505 68.958,291.626 70.796,291.213 71.667 C 289.869 74.501,287.998 78.403,287.696 79.000 L 287.400 79.583 279.919 79.627 C 275.804 79.651,272.374 79.608,272.298 79.532 C 272.222 79.455,272.808 78.048,273.600 76.405 C 274.981 73.539,275.700 72.041,277.710 67.833 C 278.213 66.779,279.093 64.942,279.664 63.750 C 280.236 62.558,281.079 60.796,281.538 59.833 C 281.998 58.871,282.880 57.033,283.498 55.750 C 284.117 54.467,284.793 53.042,285.001 52.583 C 285.209 52.125,285.818 50.861,286.356 49.775 C 286.893 48.689,287.333 47.696,287.333 47.567 C 287.333 47.373,286.620 47.333,283.093 47.333 C 280.526 47.333,278.813 47.269,278.753 47.171 C 278.644 46.996,278.817 46.598,280.733 42.616 C 281.430 41.167,282.000 39.935,282.000 39.879 C 282.000 39.822,282.124 39.639,282.276 39.471 C 282.640 39.069,315.441 38.987,315.595 39.388 M342.719 39.292 C 342.759 39.360,342.378 40.279,341.873 41.333 C 341.368 42.387,340.541 44.112,340.036 45.167 C 339.531 46.221,339.085 47.121,339.045 47.167 C 339.005 47.212,336.673 47.288,333.861 47.333 L 328.750 47.417 328.380 48.167 C 326.531 51.912,325.253 54.676,325.302 54.823 C 325.342 54.942,326.823 55.000,329.837 55.000 C 332.483 55.000,334.354 55.065,334.411 55.158 C 334.465 55.245,334.104 56.164,333.608 57.200 C 333.112 58.236,332.320 59.890,331.848 60.875 L 330.990 62.667 326.425 62.667 C 321.021 62.667,321.514 62.533,320.693 64.222 C 318.791 68.133,317.333 71.229,317.333 71.357 C 317.333 71.435,319.677 71.505,322.542 71.512 C 328.851 71.526,328.467 71.422,327.748 72.917 C 327.439 73.558,326.586 75.340,325.851 76.875 L 324.516 79.667 311.351 79.667 C 304.111 79.667,298.154 79.610,298.114 79.542 C 298.074 79.473,298.311 78.854,298.640 78.167 C 298.970 77.479,299.981 75.379,300.887 73.500 C 301.793 71.621,302.744 69.633,303.000 69.083 C 303.255 68.533,304.118 66.733,304.917 65.083 C 305.717 63.433,306.629 61.531,306.944 60.855 C 307.599 59.452,308.774 56.993,310.459 53.500 C 311.100 52.171,311.964 50.371,312.378 49.500 C 312.793 48.629,313.636 46.867,314.253 45.583 C 314.870 44.300,315.811 42.331,316.344 41.208 L 317.314 39.167 329.981 39.167 C 336.947 39.167,342.680 39.223,342.719 39.292 M53.221 42.870 C 46.882 47.929,42.335 54.507,40.974 60.583 C 40.668 61.949,40.672 66.965,40.979 68.083 C 42.220 72.600,44.388 75.955,47.903 78.795 C 48.552 79.320,49.121 79.797,49.167 79.855 C 49.600 80.406,54.909 83.358,55.239 83.231 C 55.390 83.173,55.477 82.336,55.551 80.200 C 55.652 77.310,55.745 76.373,56.275 72.833 C 56.793 69.386,57.652 65.379,58.439 62.750 C 58.899 61.212,58.830 60.190,58.110 57.917 C 57.494 55.971,56.621 52.765,56.341 51.417 C 55.887 49.240,55.508 47.260,55.335 46.167 C 55.226 45.479,55.069 44.557,54.985 44.117 C 54.902 43.677,54.833 43.025,54.833 42.668 C 54.833 41.706,54.651 41.728,53.221 42.870 M86.539 45.673 C 85.247 46.414,84.495 47.628,82.196 52.683 C 82.005 53.105,81.433 54.329,80.927 55.403 C 79.093 59.291,79.059 60.333,80.767 60.333 C 82.208 60.333,83.369 59.227,84.614 56.667 C 85.523 54.799,85.676 54.471,88.193 49.018 C 89.813 45.508,89.153 44.174,86.539 45.673 M109.833 49.566 C 108.636 50.360,108.292 50.772,107.594 52.250 C 106.289 55.013,108.254 55.555,109.618 52.809 C 111.694 48.629,111.715 48.318,109.833 49.566 M117.167 60.885 C 117.167 61.280,116.518 62.458,116.242 62.563 C 115.738 62.757,97.696 62.682,97.574 62.486 C 97.453 62.289,97.967 60.993,98.245 60.794 C 98.582 60.553,117.167 60.643,117.167 60.885 M60.005 64.491 C 59.793 64.887,59.129 67.954,58.758 70.250 C 58.186 73.789,58.000 76.271,58.000 80.358 L 58.000 84.517 58.625 84.779 C 61.244 85.877,65.769 86.924,71.714 87.808 C 73.014 88.001,73.016 88.019,71.366 85.570 C 70.567 84.386,69.531 82.808,69.062 82.065 L 68.211 80.713 67.024 80.445 C 62.753 79.480,61.235 76.611,62.721 72.314 L 63.160 71.045 62.644 69.981 C 62.360 69.396,61.693 67.841,61.161 66.527 C 60.303 64.406,60.173 64.177,60.005 64.491 M125.262 65.625 C 124.998 66.335,124.531 67.461,124.225 68.126 C 123.918 68.791,123.667 69.379,123.667 69.432 C 123.667 69.659,120.291 76.398,119.354 78.041 C 118.229 80.015,118.235 80.000,118.568 80.000 C 119.176 80.000,127.358 75.473,127.711 74.942 C 127.907 74.647,127.533 71.304,127.001 68.583 C 126.025 63.599,126.019 63.589,125.262 65.625 M126.917 78.027 C 125.970 78.592,121.092 81.027,119.583 81.689 C 119.033 81.930,118.171 82.298,117.667 82.508 C 116.427 83.023,116.405 83.047,114.647 85.640 C 109.686 92.958,103.355 99.828,97.560 104.184 C 96.693 104.836,96.011 105.449,96.043 105.547 C 96.138 105.829,99.743 107.297,101.333 107.701 C 108.461 109.509,114.016 108.666,118.783 105.054 C 123.032 101.833,125.679 97.042,127.329 89.583 C 127.943 86.810,128.372 78.131,127.917 77.691 C 127.808 77.587,127.458 77.704,126.917 78.027 M111.833 84.692 C 110.023 85.351,108.311 85.866,105.000 86.748 C 101.489 87.683,99.217 88.164,94.333 89.003 C 93.499 89.147,92.088 89.323,87.729 89.827 C 86.893 89.923,84.249 90.051,81.854 90.111 C 76.818 90.237,76.964 90.167,78.444 91.750 C 83.434 97.089,86.353 99.676,90.657 102.577 C 93.152 104.259,92.847 104.215,94.551 103.133 C 100.685 99.237,106.446 93.671,111.914 86.358 C 113.554 84.165,113.549 84.067,111.833 84.692 M231.686 86.208 C 232.509 87.109,232.536 87.500,231.776 87.500 C 231.430 87.500,231.104 87.373,230.917 87.167 C 230.751 86.983,230.495 86.833,230.348 86.833 C 230.201 86.833,229.987 86.983,229.872 87.167 C 229.582 87.632,228.324 87.657,228.444 87.195 C 228.863 85.595,230.633 85.056,231.686 86.208 M58.500 88.075 C 58.500 92.389,62.540 101.074,65.877 103.930 C 66.189 104.198,66.662 104.600,66.926 104.823 C 70.794 108.087,77.392 109.454,82.960 108.145 C 85.866 107.463,90.011 105.879,89.990 105.459 C 89.984 105.344,89.411 104.837,88.716 104.333 C 85.010 101.644,80.508 97.277,76.770 92.746 C 74.491 89.984,74.511 90.000,73.340 90.000 C 70.727 90.000,63.627 88.899,59.950 87.923 C 58.645 87.577,58.500 87.592,58.500 88.075 M219.739 88.281 C 221.506 89.173,221.965 90.574,220.603 90.920 L 219.807 91.122 219.445 90.568 C 218.537 89.176,216.504 89.266,215.700 90.733 C 215.245 91.563,215.300 94.229,215.788 95.013 C 216.731 96.530,219.181 96.246,219.601 94.570 C 219.717 94.108,219.757 94.101,220.760 94.353 C 221.687 94.587,221.730 94.960,220.958 96.089 C 219.006 98.946,214.363 97.911,213.484 94.423 C 212.398 90.109,216.120 86.455,219.739 88.281 M251.781 88.428 C 253.325 89.328,253.694 90.600,252.500 90.906 L 251.750 91.099 251.071 90.351 C 248.979 88.046,246.366 90.860,247.340 94.368 C 247.896 96.370,250.106 96.652,251.232 94.864 C 251.763 94.020,253.333 94.069,253.333 94.929 C 253.333 97.717,248.291 98.672,246.238 96.274 C 242.800 92.257,247.335 85.839,251.781 88.428 M307.367 88.350 C 308.286 88.819,309.433 90.289,309.122 90.600 C 308.730 90.992,307.308 91.123,307.175 90.779 C 306.197 88.247,302.824 89.770,302.835 92.739 C 302.848 95.904,306.006 97.355,307.114 94.703 C 307.370 94.089,307.592 94.058,308.708 94.484 C 309.240 94.686,309.264 94.823,308.898 95.550 C 307.304 98.709,302.158 98.246,301.159 94.854 C 299.802 90.245,303.496 86.375,307.367 88.350 M326.628 88.204 C 330.276 89.760,330.272 95.886,326.621 97.412 C 324.573 98.268,321.591 97.311,320.668 95.502 C 318.450 91.154,322.349 86.379,326.628 88.204 M345.242 88.257 C 348.152 89.473,348.784 94.829,346.245 96.765 C 343.352 98.971,339.253 97.396,338.684 93.859 C 337.998 89.603,341.436 86.667,345.242 88.257 M356.004 88.335 C 357.653 89.177,358.139 90.648,356.840 90.869 C 356.129 90.989,356.071 90.967,355.482 90.355 C 353.133 87.910,349.729 91.452,351.387 94.616 C 352.349 96.452,355.791 96.522,355.968 94.709 C 356.026 94.117,355.879 94.042,354.501 93.961 C 353.694 93.913,353.539 93.697,353.740 92.898 L 353.842 92.490 355.879 92.537 L 357.917 92.583 357.964 94.356 L 358.011 96.128 357.508 96.551 C 355.579 98.174,351.708 98.030,350.228 96.279 C 346.701 92.107,351.218 85.894,356.004 88.335 M154.750 88.833 L 154.750 89.583 152.560 89.630 C 150.141 89.681,150.175 89.663,150.169 90.886 C 150.164 91.918,150.360 92.029,152.138 91.998 C 153.024 91.982,153.844 91.976,153.958 91.985 C 154.092 91.995,154.167 92.269,154.167 92.750 L 154.167 93.500 152.354 93.500 C 150.093 93.500,150.137 93.456,150.186 95.667 C 150.229 97.587,150.167 97.697,149.083 97.627 L 148.417 97.583 148.372 93.002 C 148.348 90.483,148.365 88.325,148.410 88.207 C 148.474 88.041,149.192 88.003,151.621 88.038 L 154.750 88.083 154.750 88.833 M163.417 88.833 L 163.417 89.583 160.917 89.667 L 158.417 89.750 158.417 90.667 L 158.417 91.583 160.573 91.630 C 162.992 91.683,163.207 91.769,163.133 92.652 L 163.083 93.250 160.794 93.296 C 158.172 93.349,158.267 93.282,158.365 95.009 L 158.417 95.917 161.000 96.000 L 163.583 96.083 163.583 96.833 L 163.583 97.583 160.287 97.629 C 155.870 97.689,156.333 98.241,156.333 92.924 C 156.333 90.506,156.379 88.407,156.436 88.260 C 156.526 88.025,156.950 87.999,159.977 88.038 L 163.417 88.083 163.417 88.833 M167.128 92.739 C 167.176 97.761,167.193 97.659,166.281 97.664 C 165.134 97.670,165.167 97.814,165.167 92.772 C 165.167 87.685,165.102 87.967,166.244 88.034 L 167.083 88.083 167.128 92.739 M175.445 88.373 C 176.548 88.975,177.131 90.546,176.667 91.665 C 176.434 92.229,175.447 93.167,175.087 93.167 C 174.633 93.167,174.668 93.481,175.182 94.029 C 175.730 94.613,177.025 96.537,177.219 97.056 C 177.452 97.677,177.767 97.158,178.877 94.321 C 180.169 91.018,180.762 89.524,181.137 88.625 C 181.396 88.004,181.404 88.000,182.368 88.000 L 183.338 88.000 183.693 88.792 C 184.134 89.773,184.037 89.535,185.746 93.818 C 186.529 95.780,187.134 97.422,187.089 97.467 C 186.376 98.179,185.066 97.562,184.598 96.292 L 184.306 95.500 182.394 95.500 L 180.483 95.500 180.320 95.967 C 180.230 96.223,180.028 96.692,179.870 97.008 L 179.583 97.583 177.667 97.611 C 175.167 97.646,175.339 97.732,174.065 95.818 C 172.807 93.929,172.510 93.667,171.630 93.667 L 171.000 93.667 171.000 95.344 C 171.000 97.576,170.606 98.081,169.264 97.566 C 168.980 97.457,168.847 88.376,169.124 88.098 C 169.394 87.828,174.885 88.067,175.445 88.373 M196.852 88.256 C 200.125 89.411,200.415 95.580,197.270 97.135 C 196.418 97.556,192.960 97.860,191.938 97.603 L 191.500 97.494 191.500 92.858 C 191.500 90.308,191.550 88.172,191.611 88.111 C 191.847 87.875,196.107 87.994,196.852 88.256 M208.083 88.833 L 208.083 89.583 205.583 89.667 L 203.083 89.750 203.083 90.667 L 203.083 91.583 205.239 91.630 C 207.659 91.683,207.874 91.769,207.800 92.652 L 207.750 93.250 205.594 93.297 C 202.992 93.353,202.970 93.366,203.035 94.818 L 203.083 95.917 205.708 95.963 L 208.333 96.008 208.333 96.735 C 208.333 97.670,208.367 97.662,204.464 97.664 C 201.550 97.667,201.334 97.646,201.173 97.344 C 200.987 96.997,200.923 88.728,201.102 88.260 C 201.193 88.025,201.617 87.999,204.644 88.038 L 208.083 88.083 208.083 88.833 M225.128 92.778 L 225.172 97.472 224.669 97.583 C 224.393 97.643,223.942 97.644,223.667 97.583 L 223.167 97.474 223.167 92.848 C 223.167 87.678,223.102 87.967,224.244 88.034 L 225.083 88.083 225.128 92.778 M233.917 88.833 L 233.917 89.583 231.460 89.629 C 228.710 89.681,228.734 89.668,228.863 91.019 L 228.917 91.583 231.250 91.667 L 233.583 91.750 233.583 92.500 L 233.583 93.250 231.417 93.333 C 228.812 93.434,228.833 93.423,228.833 94.656 C 228.833 95.971,228.859 95.983,231.762 96.037 L 234.250 96.083 234.301 96.604 C 234.398 97.602,234.175 97.667,230.668 97.667 C 228.941 97.667,227.409 97.621,227.264 97.566 C 226.987 97.459,226.844 88.379,227.114 88.108 C 227.177 88.045,228.734 88.014,230.573 88.038 L 233.917 88.083 233.917 88.833 M237.822 88.237 C 237.930 88.367,238.802 89.735,239.759 91.277 C 240.717 92.819,241.514 94.044,241.532 93.999 C 241.549 93.954,241.605 92.604,241.657 91.000 L 241.750 88.083 242.583 88.083 L 243.417 88.083 243.461 92.772 L 243.505 97.460 243.128 97.561 C 241.741 97.933,241.696 97.897,239.845 94.917 C 237.571 91.257,237.765 91.277,237.667 94.690 L 237.583 97.583 236.947 97.636 C 235.819 97.729,235.833 97.792,235.833 92.910 C 235.833 90.499,235.879 88.409,235.934 88.264 C 236.068 87.917,237.539 87.896,237.822 88.237 M256.961 92.739 C 257.010 97.838,257.045 97.660,255.992 97.664 C 254.994 97.668,255.000 97.700,255.000 92.744 C 255.000 87.687,254.936 87.967,256.077 88.034 L 256.917 88.083 256.961 92.739 M263.753 88.500 C 263.879 88.729,264.365 89.892,264.833 91.083 C 265.300 92.275,265.747 93.400,265.824 93.583 C 267.468 97.454,267.498 97.661,266.417 97.662 C 265.463 97.662,265.236 97.510,264.932 96.664 C 264.518 95.512,264.450 95.482,262.410 95.536 L 260.619 95.583 260.282 96.530 C 259.925 97.528,259.741 97.660,258.703 97.664 C 257.839 97.668,257.880 97.381,259.253 93.875 C 259.961 92.065,260.719 90.103,260.937 89.517 C 261.486 88.039,261.558 87.976,262.621 88.034 C 263.384 88.076,263.558 88.147,263.753 88.500 M278.716 88.336 C 278.764 88.520,278.749 88.876,278.682 89.127 L 278.560 89.583 276.120 89.629 L 273.680 89.676 273.576 90.233 C 273.326 91.564,273.347 91.578,275.583 91.624 C 278.346 91.681,278.333 91.676,278.333 92.587 L 278.333 93.333 276.117 93.333 C 273.593 93.333,273.499 93.375,273.502 94.492 C 273.507 96.080,273.360 96.000,276.279 96.000 L 278.852 96.000 278.801 96.792 L 278.750 97.583 275.583 97.631 C 273.842 97.657,272.248 97.637,272.042 97.586 L 271.667 97.494 271.667 92.747 L 271.667 88.000 275.147 88.000 C 278.495 88.000,278.631 88.013,278.716 88.336 M291.083 88.833 L 291.083 89.583 289.750 89.667 L 288.417 89.750 288.372 93.618 L 288.327 97.486 287.748 97.595 C 287.429 97.654,286.981 97.656,286.751 97.599 L 286.333 97.494 286.333 93.587 L 286.333 89.680 284.958 89.632 L 283.583 89.583 283.530 89.026 C 283.427 87.954,283.290 87.989,287.371 88.038 L 291.083 88.083 291.083 88.833 M299.236 88.101 C 299.414 88.169,299.500 88.413,299.500 88.848 C 299.500 89.647,299.475 89.655,296.583 89.709 L 294.417 89.750 294.417 90.667 L 294.417 91.583 296.617 91.667 C 299.030 91.758,299.219 91.835,299.137 92.687 L 299.083 93.250 296.750 93.333 L 294.417 93.417 294.417 94.667 L 294.417 95.917 297.000 96.000 L 299.583 96.083 299.636 96.636 C 299.733 97.638,299.635 97.667,296.077 97.667 C 294.308 97.667,292.742 97.621,292.597 97.566 C 292.322 97.460,292.176 88.380,292.444 88.111 C 292.583 87.972,298.876 87.963,299.236 88.101 M313.018 88.489 C 313.217 88.758,314.025 90.045,314.815 91.350 C 316.701 94.467,316.649 94.478,316.704 90.971 L 316.750 88.083 317.583 88.083 L 318.417 88.083 318.461 92.646 C 318.510 97.665,318.510 97.667,317.517 97.667 C 316.597 97.667,316.348 97.399,314.650 94.591 C 313.789 93.166,313.008 92.025,312.917 92.055 C 312.817 92.088,312.732 93.194,312.704 94.795 C 312.653 97.800,312.642 97.824,311.402 97.592 L 310.833 97.485 310.833 92.854 C 310.833 90.306,310.883 88.172,310.944 88.111 C 311.295 87.761,312.664 88.010,313.018 88.489 M332.833 92.000 L 332.917 95.917 335.250 96.000 L 337.583 96.083 337.636 96.636 C 337.731 97.625,337.602 97.667,334.438 97.664 C 332.868 97.663,331.415 97.617,331.208 97.562 L 330.833 97.461 330.833 92.906 C 330.833 87.785,330.787 87.963,332.083 88.042 L 332.750 88.083 332.833 92.000 M361.566 88.264 C 361.866 89.048,361.668 97.321,361.344 97.494 C 360.985 97.687,360.332 97.720,359.930 97.566 C 359.656 97.460,359.509 88.380,359.778 88.111 C 360.018 87.871,361.462 87.994,361.566 88.264 M369.043 90.083 C 369.485 91.183,369.890 92.196,369.944 92.333 C 369.998 92.471,370.477 93.671,371.009 95.000 C 372.065 97.642,372.066 97.629,370.889 97.655 C 370.057 97.673,369.901 97.545,369.482 96.490 L 369.089 95.500 367.215 95.500 L 365.342 95.500 365.088 95.992 C 364.948 96.262,364.833 96.600,364.833 96.742 C 364.833 97.217,364.203 97.667,363.542 97.664 C 362.626 97.660,362.439 97.495,362.679 96.902 C 362.787 96.635,362.933 96.267,363.004 96.083 C 363.074 95.900,363.293 95.355,363.489 94.872 C 363.685 94.389,364.299 92.814,364.855 91.372 C 365.410 89.930,365.932 88.578,366.015 88.367 C 366.152 88.016,366.252 87.988,367.203 88.034 L 368.241 88.083 369.043 90.083 M323.910 89.670 C 321.740 90.332,321.449 94.690,323.505 95.753 C 325.488 96.778,327.236 95.414,327.245 92.833 C 327.253 90.367,325.884 89.068,323.910 89.670 M342.392 89.675 C 340.269 90.319,339.989 94.710,342.005 95.753 C 343.989 96.779,345.740 95.413,345.747 92.833 C 345.753 90.353,344.388 89.069,342.392 89.675 M171.000 90.833 L 171.000 92.000 172.571 92.000 C 174.070 92.000,174.158 91.980,174.488 91.561 C 175.387 90.418,174.601 89.667,172.508 89.667 L 171.000 89.667 171.000 90.833 M193.434 89.930 C 193.236 90.448,193.322 95.589,193.533 95.800 C 194.068 96.335,196.517 95.878,196.965 95.161 C 197.496 94.311,197.516 91.631,196.999 90.665 C 196.518 89.765,193.719 89.188,193.434 89.930 M262.274 91.184 C 261.179 93.724,261.205 93.886,262.695 93.801 C 263.746 93.741,263.787 93.578,263.166 91.917 C 262.674 90.599,262.565 90.510,262.274 91.184 M182.065 91.125 C 182.016 91.285,181.797 91.852,181.579 92.384 C 181.063 93.646,181.147 93.834,182.226 93.831 C 183.568 93.827,183.603 93.758,183.061 92.189 C 182.607 90.878,182.258 90.505,182.065 91.125 M366.524 91.957 C 365.913 93.708,365.922 93.742,367.000 93.793 C 368.408 93.860,368.460 93.765,367.867 92.228 C 367.227 90.566,367.023 90.525,366.524 91.957 M324.379 104.263 C 326.565 105.008,327.392 108.264,325.873 110.141 C 324.338 112.037,321.082 111.691,320.126 109.530 C 318.722 106.355,321.267 103.203,324.379 104.263 M304.901 104.326 C 305.855 104.547,306.363 105.134,306.458 106.124 C 306.612 107.726,305.872 108.422,303.791 108.630 L 302.583 108.750 302.534 109.957 C 302.483 111.220,302.187 111.569,301.417 111.273 C 301.154 111.172,301.022 104.533,301.278 104.278 C 301.441 104.114,304.144 104.150,304.901 104.326 M310.465 104.375 C 310.784 104.760,313.177 110.899,313.093 111.117 C 312.843 111.769,311.841 111.314,311.366 110.333 L 311.083 109.750 309.750 109.750 L 308.417 109.750 308.134 110.333 C 307.434 111.778,305.950 111.803,306.549 110.361 C 306.689 110.025,306.971 109.300,307.176 108.750 C 307.381 108.200,307.642 107.525,307.756 107.250 C 307.871 106.975,308.167 106.225,308.415 105.583 C 308.662 104.942,308.952 104.362,309.058 104.294 C 309.368 104.097,310.278 104.149,310.465 104.375 M332.773 104.417 C 333.048 105.133,332.701 105.500,331.747 105.500 L 330.833 105.500 330.833 108.244 C 330.833 111.255,330.740 111.513,329.738 111.262 C 329.342 111.163,329.341 111.156,329.296 108.373 L 329.250 105.583 328.389 105.533 C 327.411 105.477,327.079 105.204,327.235 104.585 L 327.340 104.167 330.008 104.167 C 332.229 104.167,332.693 104.209,332.773 104.417 M335.128 107.689 L 335.173 111.129 334.790 111.225 C 333.676 111.505,333.667 111.476,333.667 107.744 C 333.667 104.095,333.650 104.157,334.583 104.218 L 335.083 104.250 335.128 107.689 M339.148 106.291 C 340.717 108.816,340.730 108.816,340.833 106.293 C 340.919 104.186,341.205 103.639,341.872 104.305 C 342.078 104.512,342.046 111.020,341.837 111.229 C 341.305 111.762,340.593 111.181,339.417 109.254 C 337.927 106.815,337.833 106.814,337.833 109.239 C 337.833 111.294,337.716 111.530,336.833 111.250 C 336.491 111.141,336.290 104.598,336.619 104.270 C 337.193 103.696,337.873 104.240,339.148 106.291 M347.127 104.375 C 347.220 104.490,347.463 104.996,347.667 105.500 C 347.872 106.004,348.134 106.642,348.249 106.917 C 349.918 110.901,349.986 111.325,348.957 111.331 C 348.571 111.333,348.436 111.206,348.121 110.542 L 347.745 109.750 346.414 109.750 L 345.083 109.750 344.801 110.333 C 344.410 111.140,344.212 111.334,343.785 111.331 C 342.855 111.324,342.851 111.087,343.749 108.917 C 343.863 108.642,344.160 107.892,344.411 107.250 C 345.627 104.132,345.605 104.167,346.339 104.167 C 346.680 104.167,347.035 104.260,347.127 104.375 M362.901 104.326 C 364.313 104.653,364.965 106.292,364.185 107.553 C 363.752 108.254,363.219 108.490,361.729 108.637 L 360.583 108.750 360.534 109.957 C 360.483 111.220,360.187 111.569,359.417 111.273 C 359.154 111.172,359.022 104.533,359.278 104.278 C 359.441 104.114,362.144 104.150,362.901 104.326 M370.467 104.478 C 371.778 105.196,371.718 107.317,370.371 107.915 C 369.910 108.119,369.901 108.359,370.341 108.757 C 371.010 109.362,371.903 111.020,371.648 111.182 C 370.899 111.656,370.374 111.364,369.376 109.913 C 367.925 107.804,367.167 107.769,367.167 109.810 C 367.167 111.227,366.910 111.539,365.986 111.246 C 365.653 111.140,365.470 104.590,365.792 104.261 C 365.993 104.054,370.037 104.242,370.467 104.478 M315.538 107.125 L 315.583 109.917 317.158 109.965 C 318.781 110.015,319.167 110.152,319.167 110.681 C 319.167 111.193,318.611 111.333,316.583 111.333 C 313.801 111.333,314.000 111.607,314.000 107.772 C 314.000 104.213,313.970 104.333,314.857 104.333 L 315.492 104.333 315.538 107.125 M322.376 105.505 C 320.915 106.092,320.972 109.324,322.455 109.943 C 323.913 110.553,325.167 109.487,325.167 107.637 C 325.167 105.974,323.802 104.931,322.376 105.505 M302.567 105.732 C 302.263 106.524,302.571 107.249,303.234 107.303 C 304.628 107.417,305.334 106.784,304.770 105.923 C 304.444 105.427,302.741 105.279,302.567 105.732 M360.567 105.732 C 360.263 106.524,360.571 107.249,361.234 107.303 C 362.628 107.417,363.334 106.784,362.770 105.923 C 362.444 105.427,360.741 105.279,360.567 105.732 M367.167 106.333 L 367.167 107.167 368.308 107.167 C 369.496 107.167,370.000 106.906,370.000 106.290 C 370.000 105.726,369.519 105.500,368.321 105.500 L 367.167 105.500 367.167 106.333 M309.551 106.542 C 308.716 107.652,308.815 108.493,309.782 108.497 C 310.505 108.501,310.568 108.319,310.218 107.252 C 309.903 106.295,309.810 106.196,309.551 106.542 M346.061 106.628 C 346.009 106.787,345.858 107.210,345.725 107.568 C 345.443 108.324,345.574 108.493,346.448 108.497 C 347.159 108.501,347.227 108.330,346.907 107.352 C 346.622 106.480,346.220 106.136,346.061 106.628 M355.598 108.416 C 355.804 109.237,355.623 109.352,354.211 109.299 C 352.857 109.248,352.593 109.034,352.898 108.238 C 353.083 107.757,355.472 107.914,355.598 108.416 " stroke="none" fill="#a30b43" fill-rule="evenodd"></path></g></svg>