<?xml version="1.0" encoding="UTF-8" standalone="no"?>
<!-- Generator: Adobe Illustrator 23.0.1, SVG Export Plug-In . SVG Version: 6.00 Build 0)  -->

<svg
   xmlns:dc="http://purl.org/dc/elements/1.1/"
   xmlns:cc="http://creativecommons.org/ns#"
   xmlns:rdf="http://www.w3.org/1999/02/22-rdf-syntax-ns#"
   xmlns:svg="http://www.w3.org/2000/svg"
   xmlns="http://www.w3.org/2000/svg"
   xmlns:sodipodi="http://sodipodi.sourceforge.net/DTD/sodipodi-0.dtd"
   xmlns:inkscape="http://www.inkscape.org/namespaces/inkscape"
   version="1.1"
   id="Camada_1"
   x="0px"
   y="0px"
   viewBox="0 0 715.00225 230"
   xml:space="preserve"
   inkscape:version="0.91 r13725"
   sodipodi:docname="logo-corpadrao.svg"
   width="715"
   height="230"><metadata
     id="metadata3550"><rdf:RDF><cc:Work
         rdf:about=""><dc:format>image/svg+xml</dc:format><dc:type
           rdf:resource="http://purl.org/dc/dcmitype/StillImage" /><dc:title></dc:title></cc:Work></rdf:RDF></metadata><defs
     id="defs3548" /><sodipodi:namedview
     pagecolor="#ffffff"
     bordercolor="#666666"
     borderopacity="1"
     objecttolerance="10"
     gridtolerance="10"
     guidetolerance="10"
     inkscape:pageopacity="0"
     inkscape:pageshadow="2"
     inkscape:window-width="1920"
     inkscape:window-height="1007"
     id="namedview3546"
     showgrid="false"
     inkscape:zoom="1.3875925"
     inkscape:cx="420.73353"
     inkscape:cy="78.735722"
     inkscape:window-x="0"
     inkscape:window-y="27"
     inkscape:window-maximized="1"
     inkscape:current-layer="Camada_1"
     units="px"
     width="840mm" /><style
     type="text/css"
     id="style3524">
	.st0{fill:#861742;}
	.st1{fill-rule:evenodd;clip-rule:evenodd;fill:#861742;}
	.st2{fill:none;stroke:#000000;stroke-width:0.5669;stroke-miterlimit:22.9256;}
</style><path
     class="st0"
     d="m 703.06918,110.96149 -31.81,0 7.01,-14.640012 c 2.04,-4.250012 2.95,-6.910021 2.79,-7.980024 -0.17,-1.050003 -1.41,-1.580006 -3.73,-1.580006 -2.63,0 -4.59,0.640003 -5.92,1.910006 -1.32,1.290003 -3,4.060012 -5.04,8.310024 l -18.71,39.040012 c -1.96,4.09 -2.88,6.75 -2.77,7.99 0.12,1.26 1.4,1.88 3.87,1.88 2.37,0 4.22,-0.62 5.54,-1.88 1.32,-1.24 3.1,-4.17 5.31,-8.77 l 5.04,-10.53 31.81,0 -1.56,3.26 c -4.16,8.68 -8.02,14.85 -11.54,18.48 -3.52,3.63 -9.02,6.82 -16.44,9.55 -7.42,2.73 -15.64,4.11 -24.59,4.11 -9.34,0 -16.46,-1.17 -21.39,-3.49 -4.92,-2.32 -7.41,-5.53 -7.41,-9.62 0.01,-4.11 1.98,-10.28 5.93,-18.52 l 11.76,-24.55 c 2.9,-6.060009 5.39,-10.600021 7.43,-13.63003 2.07,-3.030009 5.25,-5.950018 9.61,-8.750027 4.33,-2.800003 9.55,-5.020003 15.64,-6.630003 6.08,-1.59 12.58,-2.41 19.47,-2.41 9.39,0 16.52,1.26 21.42,3.74 4.89,2.5 7.4,5.600003 7.55,9.320015 0.13,3.720012 -1.7,9.52003 -5.46,17.370045 l -3.81,8.02 z m -116.88,-36.65006 53.06,0 -8.06,16.820033 -21.23,0 -7.63,15.930027 19.86,0 -7.67,16 -19.86,0 -8.86,18.48 23.35,0 -8.06,16.82 -55.18,0 40.28,-84.05006 z m -3.1,0 -8.06,16.820033 -18.88,0 -32.22,67.240027 -31.81,0 32.22,-67.240027 -18.83,0 8.06,-16.820033 69.52,0 z m -72.68,0 -40.27,84.06006 -31.83,0 40.27,-84.06006 31.83,0 z m -56.63,36.65006 -31.81,0 7.01,-14.640012 c 2.04,-4.250012 2.95,-6.910021 2.79,-7.980024 -0.17,-1.050003 -1.41,-1.580006 -3.73,-1.580006 -2.63,0 -4.59,0.640003 -5.92,1.910006 -1.32,1.290003 -3,4.060012 -5.04,8.310024 l -18.71,39.040012 c -1.96,4.09 -2.87,6.75 -2.77,7.99 0.12,1.26 1.4,1.88 3.87,1.88 2.37,0 4.22,-0.62 5.54,-1.88 1.32,-1.24 3.11,-4.17 5.31,-8.77 l 5.04,-10.53 31.81,0 -1.56,3.26 c -4.16,8.68 -8.02,14.85 -11.54,18.48 -3.52,3.63 -9.02,6.82 -16.44,9.55 -7.42,2.73 -15.64,4.11 -24.59,4.11 -9.34,0 -16.46,-1.17 -21.39,-3.49 -4.92,-2.32 -7.41,-5.53 -7.41,-9.62 0.01,-4.11 1.98,-10.28 5.93,-18.52 l 11.76,-24.55 c 2.9,-6.060009 5.39,-10.600021 7.43,-13.63003 2.07,-3.030009 5.25,-5.950018 9.61,-8.750027 4.33,-2.800003 9.55,-5.020003 15.63,-6.630003 6.08,-1.59 12.58,-2.41 19.47,-2.41 9.39,0 16.52,1.26 21.42,3.74 4.89,2.5 7.4,5.600003 7.55,9.320015 0.13,3.720012 -1.7,9.52003 -5.46,17.370045 l -3.8,8.02 z m -116.87,-36.65006 53.06,0 -8.06,16.820033 -21.23,0 -7.63,15.930027 19.86,0 -7.67,16 -19.86,0 -8.86,18.48 23.35,0 -8.06,16.82 -55.18,0 40.28,-84.05006 z m -57.43,0 53.89,0 -8.06,16.820033 -22.06,0 -7.63,15.930027 19.63,0 -7.67,16 -19.63,0 -16.91,35.3 -31.83,0 40.27,-84.05006 z"
     id="path3526"
     inkscape:connector-curvature="0"
     style="fill:#861742" /><path
     class="st1"
     d="m 107.47918,50.45143 c 59.8,-12.359996 113.92,4.92 120.88,38.590027 6.96,33.670033 -35.87,70.990033 -95.67,83.360033 -59.800009,12.36 -113.920009,-4.92 -120.880009,-38.59 -6.9600004,-33.68 35.87,-71.00006 95.670009,-83.36006 m -0.7,-3.4 c 64.83,-13.399996 123.34,4.56 130.69,40.110021 7.35,35.550039 -39.25,75.230039 -104.07,88.640039 -64.830009,13.4 -123.340009,-4.56 -130.6900094,-40.11 -7.35,-35.55 39.2400004,-75.23006 104.0700094,-88.64006 z"
     id="path3528"
     inkscape:connector-curvature="0"
     style="clip-rule:evenodd;fill:#861742;fill-rule:evenodd" /><path
     class="st1"
     d="m 174.85918,88.231454 c 26.89,54.820036 23.67,111.540036 -7.2,126.680036 -30.87,15.14 -77.700002,-17.02 -104.590009,-71.84 -26.89,-54.820036 -23.67,-111.540056 7.2,-126.680056 30.870009,-15.1400017 77.700009,17.02 104.590009,71.84002 m 3.12,-1.520006 c 29.15,59.430042 26.37,120.570042 -6.22,136.560042 -32.59,15.99 -82.650002,-19.23 -111.800009,-78.66 -29.15,-59.430045 -26.37,-120.570056 6.22,-136.5600564 C 98.769178,-7.9385694 148.81918,27.271434 177.97918,86.711448 Z"
     id="path3530"
     inkscape:connector-curvature="0"
     style="clip-rule:evenodd;fill:#861742;fill-rule:evenodd" /><path
     class="st1"
     d="m 65.249171,88.231454 c -26.89,54.820036 -23.67,111.540036 7.2,126.680036 30.870009,15.14 77.700009,-17.02 104.590009,-71.84 26.89,-54.820036 23.67,-111.540056 -7.2,-126.680056 -30.87,-15.1400017 -77.700002,17.02 -104.590009,71.84002 m -3.11,-1.520006 c -29.15,59.430042 -26.37,120.570042 6.22,136.560042 32.590009,15.99 82.650009,-19.23 111.800009,-78.66 29.15,-59.430045 26.37,-120.570056 -6.22,-136.5600564 -32.59,-15.990003 -82.650002,19.2200004 -111.800009,78.6600144 z"
     id="path3532"
     inkscape:connector-curvature="0"
     style="clip-rule:evenodd;fill:#861742;fill-rule:evenodd" /><path
     class="st0"
     d="m 692.47918,187.75149 -2.73,-7.36 -2.68,7.36 5.41,0 z m 7.37,7.84 -4.36,0 -1.73,-4.5 -7.92,0 -1.63,4.5 -4.25,0 7.72,-19.82 4.23,0 7.94,19.82 z m -25.69,0 0,-19.82 4,0 0,19.82 -4,0 z m -12.19,-7.29 0,-3.34 8.62,0 0,7.9 c -0.84,0.81 -2.05,1.53 -3.65,2.15 -1.59,0.61 -3.2,0.92 -4.83,0.92 -2.07,0 -3.88,-0.43 -5.42,-1.3 -1.54,-0.87 -2.7,-2.11 -3.47,-3.73 -0.78,-1.62 -1.16,-3.38 -1.16,-5.28 0,-2.06 0.43,-3.9 1.3,-5.5 0.87,-1.6 2.13,-2.83 3.8,-3.69 1.27,-0.66 2.85,-0.99 4.74,-0.99 2.46,0 4.38,0.52 5.76,1.55 1.38,1.03 2.28,2.46 2.67,4.28 l -3.97,0.74 c -0.28,-0.97 -0.81,-1.74 -1.58,-2.31 -0.77,-0.56 -1.73,-0.84 -2.88,-0.84 -1.75,0 -3.14,0.55 -4.17,1.66 -1.03,1.11 -1.55,2.75 -1.55,4.94 0,2.35 0.52,4.12 1.57,5.29 1.04,1.18 2.41,1.76 4.11,1.76 0.84,0 1.68,-0.17 2.52,-0.49 0.84,-0.33 1.56,-0.73 2.17,-1.2 l 0,-2.51 -4.58,0 z m -27.45,-2.63 c 0,2.24 0.52,3.95 1.56,5.1 1.04,1.16 2.35,1.73 3.95,1.73 1.59,0 2.9,-0.57 3.93,-1.73 1.02,-1.15 1.53,-2.87 1.53,-5.17 0,-2.27 -0.5,-3.96 -1.49,-5.08 -1,-1.12 -2.32,-1.68 -3.97,-1.68 -1.65,0 -2.98,0.57 -3.99,1.7 -1.01,1.14 -1.52,2.84 -1.52,5.13 z m -4.12,0.13 c 0,-2.02 0.3,-3.71 0.9,-5.08 0.45,-1.01 1.07,-1.92 1.85,-2.72 0.78,-0.8 1.63,-1.39 2.56,-1.78 1.24,-0.53 2.66,-0.78 4.27,-0.78 2.92,0 5.26,0.9 7.01,2.72 1.75,1.81 2.63,4.33 2.63,7.55 0,3.2 -0.87,5.7 -2.61,7.51 -1.74,1.8 -4.07,2.71 -6.97,2.71 -2.95,0 -5.29,-0.9 -7.03,-2.69 -1.74,-1.81 -2.61,-4.29 -2.61,-7.44 z m -15.99,9.79 0,-19.66 4,0 0,16.32 9.95,0 0,3.34 -13.95,0 z m -18.33,-9.92 c 0,2.24 0.52,3.95 1.56,5.1 1.04,1.16 2.35,1.73 3.95,1.73 1.59,0 2.9,-0.57 3.93,-1.73 1.02,-1.15 1.53,-2.87 1.53,-5.17 0,-2.27 -0.5,-3.96 -1.49,-5.08 -1,-1.12 -2.32,-1.68 -3.97,-1.68 -1.65,0 -2.98,0.57 -3.99,1.7 -1.02,1.14 -1.52,2.84 -1.52,5.13 z m -4.12,0.13 c 0,-2.02 0.3,-3.71 0.9,-5.08 0.45,-1.01 1.07,-1.92 1.85,-2.72 0.78,-0.8 1.63,-1.39 2.56,-1.78 1.24,-0.53 2.66,-0.78 4.27,-0.78 2.92,0 5.26,0.9 7.01,2.72 1.75,1.81 2.63,4.33 2.63,7.55 0,3.2 -0.87,5.7 -2.61,7.51 -1.74,1.8 -4.07,2.71 -6.97,2.71 -2.95,0 -5.29,-0.9 -7.03,-2.69 -1.75,-1.81 -2.61,-4.29 -2.61,-7.44 z m -19.15,9.79 0,-19.82 3.89,0 8.11,13.23 0,-13.23 3.72,0 0,19.82 -4.02,0 -7.99,-12.92 0,12.92 -3.71,0 z m -7.35,-7.29 3.88,1.23 c -0.59,2.16 -1.58,3.77 -2.97,4.82 -1.38,1.05 -3.14,1.57 -5.26,1.57 -2.63,0 -4.79,-0.9 -6.49,-2.69 -1.69,-1.8 -2.54,-4.26 -2.54,-7.37 0,-3.3 0.85,-5.86 2.56,-7.69 1.7,-1.82 3.94,-2.74 6.72,-2.74 2.42,0 4.39,0.72 5.91,2.15 0.9,0.84 1.58,2.06 2.03,3.65 l -3.96,0.95 c -0.23,-1.03 -0.72,-1.84 -1.47,-2.44 -0.74,-0.6 -1.65,-0.89 -2.71,-0.89 -1.47,0 -2.66,0.53 -3.58,1.58 -0.91,1.05 -1.37,2.76 -1.37,5.12 0,2.51 0.45,4.29 1.35,5.35 0.9,1.07 2.07,1.6 3.51,1.6 1.07,0 1.98,-0.34 2.75,-1.02 0.75,-0.66 1.3,-1.73 1.64,-3.18 z m -31.15,7.29 0,-19.82 14.69,0 0,3.35 -10.69,0 0,4.39 9.95,0 0,3.34 -9.95,0 0,5.39 11.07,0 0,3.34 -15.07,0 z m -12.45,0 0,-16.46 -5.88,0 0,-3.35 15.75,0 0,3.35 -5.86,0 0,16.46 -4.01,0 z m -30.62,0 0,-19.82 14.69,0 0,3.35 -10.69,0 0,4.39 9.95,0 0,3.34 -9.95,0 0,5.39 11.07,0 0,3.34 -15.07,0 z m -16.15,-7.84 -2.73,-7.36 -2.68,7.36 5.41,0 z m 7.37,7.84 -4.36,0 -1.73,-4.5 -7.92,0 -1.63,4.5 -4.25,0 7.72,-19.82 4.23,0 7.94,19.82 z m -25.69,0 0,-19.82 4,0 0,19.82 -4,0 z m -7.19,-7.29 3.88,1.23 c -0.6,2.16 -1.58,3.77 -2.97,4.82 -1.38,1.05 -3.14,1.57 -5.26,1.57 -2.63,0 -4.79,-0.9 -6.49,-2.69 -1.69,-1.8 -2.54,-4.26 -2.54,-7.37 0,-3.3 0.85,-5.86 2.56,-7.69 1.7,-1.82 3.94,-2.74 6.72,-2.74 2.42,0 4.39,0.72 5.91,2.15 0.9,0.84 1.58,2.06 2.03,3.65 l -3.96,0.95 c -0.23,-1.03 -0.72,-1.84 -1.47,-2.44 -0.74,-0.6 -1.65,-0.89 -2.71,-0.89 -1.47,0 -2.66,0.53 -3.58,1.58 -0.91,1.05 -1.37,2.76 -1.37,5.12 0,2.51 0.45,4.29 1.35,5.35 0.9,1.07 2.07,1.6 3.51,1.6 1.07,0 1.98,-0.34 2.75,-1.02 0.75,-0.66 1.3,-1.73 1.64,-3.18 z m -32.64,7.29 0,-19.82 3.89,0 8.11,13.23 0,-13.23 3.72,0 0,19.82 -4.02,0 -7.99,-12.92 0,12.92 -3.71,0 z m -15.96,-20.96 2.84,-3.99 3.52,0 2.8,3.99 -3.05,0 -1.57,-2.01 -1.46,2.01 -3.08,0 z m -2.54,20.96 0,-19.82 14.69,0 0,3.35 -10.69,0 0,4.39 9.95,0 0,3.34 -9.95,0 0,5.39 11.07,0 0,3.34 -15.07,0 z m -7.82,0 0,-19.82 4,0 0,19.82 -4,0 z m -7.19,-7.29 3.88,1.23 c -0.59,2.16 -1.58,3.77 -2.97,4.82 -1.38,1.05 -3.14,1.57 -5.26,1.57 -2.63,0 -4.79,-0.9 -6.49,-2.69 -1.69,-1.8 -2.54,-4.26 -2.54,-7.37 0,-3.3 0.85,-5.86 2.56,-7.69 1.7,-1.82 3.94,-2.74 6.72,-2.74 2.42,0 4.39,0.72 5.91,2.15 0.9,0.84 1.58,2.06 2.03,3.65 l -3.96,0.95 c -0.23,-1.03 -0.72,-1.84 -1.47,-2.44 -0.74,-0.6 -1.65,-0.89 -2.71,-0.89 -1.47,0 -2.66,0.53 -3.58,1.58 -0.91,1.05 -1.37,2.76 -1.37,5.12 0,2.51 0.45,4.29 1.35,5.35 0.9,1.07 2.07,1.6 3.51,1.6 1.07,0 1.98,-0.34 2.75,-1.02 0.76,-0.66 1.3,-1.73 1.64,-3.18 z m -38.84,7.29 0,-19.82 14.69,0 0,3.35 -10.69,0 0,4.39 9.95,0 0,3.34 -9.95,0 0,5.39 11.07,0 0,3.34 -15.07,0 z m -16.01,-16.47 0,13.12 2.99,0 c 1.12,0 1.92,-0.06 2.42,-0.19 0.65,-0.16 1.19,-0.43 1.62,-0.82 0.43,-0.39 0.78,-1.03 1.05,-1.91 0.27,-0.89 0.41,-2.1 0.41,-3.63 0,-1.53 -0.14,-2.7 -0.41,-3.53 -0.27,-0.82 -0.65,-1.46 -1.13,-1.92 -0.49,-0.46 -1.11,-0.77 -1.85,-0.93 -0.56,-0.13 -1.65,-0.19 -3.29,-0.19 l -1.81,0 z m -4,-3.35 7.31,0 c 1.65,0 2.9,0.13 3.77,0.38 1.16,0.34 2.16,0.95 2.99,1.83 0.83,0.87 1.46,1.94 1.9,3.21 0.43,1.27 0.65,2.83 0.65,4.69 0,1.63 -0.2,3.04 -0.61,4.22 -0.49,1.44 -1.2,2.61 -2.12,3.5 -0.69,0.68 -1.63,1.2 -2.81,1.58 -0.88,0.28 -2.06,0.42 -3.54,0.42 l -7.53,0 0,-19.83 z m -16.14,11.98 -2.73,-7.36 -2.68,7.36 5.41,0 z m 7.37,7.84 -4.36,0 -1.73,-4.5 -7.92,0 -1.63,4.5 -4.25,0 7.72,-19.82 4.23,0 7.94,19.82 z m -33.85,-11.44 2.96,0 c 1.92,0 3.12,-0.08 3.6,-0.24 0.48,-0.16 0.85,-0.44 1.12,-0.84 0.27,-0.4 0.41,-0.89 0.41,-1.49 0,-0.67 -0.18,-1.2 -0.53,-1.62 -0.36,-0.41 -0.86,-0.67 -1.51,-0.78 -0.32,-0.04 -1.3,-0.07 -2.92,-0.07 l -3.12,0 0,5.04 z m -4,11.44 0,-19.82 8.43,0 c 2.12,0 3.65,0.18 4.61,0.54 0.96,0.36 1.73,0.99 2.31,1.9 0.58,0.91 0.86,1.95 0.86,3.12 0,1.49 -0.44,2.72 -1.31,3.69 -0.87,0.96 -2.18,1.58 -3.92,1.83 0.87,0.51 1.58,1.06 2.15,1.67 0.56,0.6 1.32,1.67 2.28,3.22 l 2.42,3.87 -4.79,0 -2.89,-4.31 c -1.03,-1.54 -1.73,-2.51 -2.11,-2.91 -0.38,-0.4 -0.78,-0.67 -1.2,-0.83 -0.42,-0.15 -1.09,-0.22 -2.02,-0.22 l -0.81,0 0,8.27 -4.01,0 z m -7.83,0 0,-19.82 4,0 0,19.82 -4,0 z m -18.34,0 0,-19.82 14.69,0 0,3.35 -10.69,0 0,4.39 9.95,0 0,3.34 -9.95,0 0,5.39 11.07,0 0,3.34 -15.07,0 z m -16.89,0 0,-19.82 13.59,0 0,3.35 -9.58,0 0,4.69 8.27,0 0,3.35 -8.27,0 0,8.42 -4.01,0 z"
     id="path3534"
     inkscape:connector-curvature="0"
     style="fill:#861742" /><path
     class="st0"
     d="m 689.63918,215.59149 2.19,0 c 1.42,0 2.3,-0.06 2.66,-0.18 0.35,-0.12 0.63,-0.33 0.83,-0.62 0.2,-0.29 0.3,-0.66 0.3,-1.1 0,-0.49 -0.13,-0.89 -0.4,-1.2 -0.26,-0.3 -0.63,-0.49 -1.11,-0.57 -0.24,-0.03 -0.96,-0.05 -2.16,-0.05 l -2.31,0 0,3.72 z m -2.97,8.46 0,-14.66 6.23,0 c 1.57,0 2.71,0.13 3.41,0.4 0.71,0.26 1.28,0.73 1.71,1.4 0.43,0.68 0.64,1.44 0.64,2.31 0,1.1 -0.32,2.01 -0.97,2.73 -0.65,0.72 -1.61,1.17 -2.89,1.35 0.64,0.37 1.16,0.78 1.58,1.23 0.42,0.45 0.98,1.24 1.68,2.38 l 1.79,2.86 -3.54,0 -2.12,-3.2 c -0.76,-1.14 -1.28,-1.85 -1.57,-2.15 -0.28,-0.29 -0.58,-0.5 -0.89,-0.61 -0.32,-0.11 -0.82,-0.16 -1.5,-0.16 l -0.6,0 0,6.12 -2.96,0 z m -10.69,-12.18 0,4.18 1.61,0 c 1.16,0 1.94,-0.08 2.33,-0.23 0.39,-0.15 0.7,-0.39 0.92,-0.72 0.22,-0.33 0.33,-0.71 0.33,-1.14 0,-0.54 -0.16,-0.98 -0.47,-1.32 -0.31,-0.35 -0.71,-0.57 -1.19,-0.65 -0.35,-0.06 -1.06,-0.1 -2.12,-0.1 l -1.41,0 z m -2.96,12.18 0,-14.66 4.74,0 c 1.8,0 2.97,0.07 3.51,0.22 0.84,0.22 1.54,0.7 2.11,1.44 0.57,0.74 0.85,1.69 0.85,2.86 0,0.9 -0.16,1.65 -0.49,2.27 -0.33,0.61 -0.74,1.1 -1.24,1.45 -0.5,0.35 -1.01,0.58 -1.53,0.69 -0.71,0.14 -1.73,0.21 -3.06,0.21 l -1.92,0 0,5.53 -2.97,0 z m -12.85,-3.91 0,-2.8 5.53,0 0,2.8 -5.53,0 z m -11.59,-1.91 -2.04,-5.42 -1.98,5.42 4.02,0 z m 5.43,5.82 -3.2,0 -1.27,-3.34 -5.88,0 -1.22,3.34 -3.14,0 5.69,-14.66 3.14,0 5.88,14.66 z m -27.98,0 0,-14.66 2.87,0 6.03,9.82 0,-9.82 2.74,0 0,14.66 -2.96,0 -5.94,-9.63 0,9.63 -2.74,0 z m -5.79,0 0,-14.66 2.97,0 0,14.66 -2.97,0 z m -9.11,0 0,-12.18 -4.34,0 0,-2.48 11.63,0 0,2.48 -4.32,0 0,12.18 -2.97,0 z m -16.78,-7.34 c 0,1.66 0.39,2.92 1.15,3.78 0.77,0.86 1.74,1.29 2.92,1.29 1.18,0 2.15,-0.43 2.91,-1.28 0.76,-0.85 1.14,-2.13 1.14,-3.83 0,-1.68 -0.37,-2.94 -1.11,-3.76 -0.74,-0.83 -1.72,-1.24 -2.94,-1.24 -1.22,0 -2.21,0.42 -2.95,1.26 -0.74,0.83 -1.12,2.09 -1.12,3.78 z m -3.05,0.1 c 0,-1.49 0.23,-2.75 0.67,-3.77 0.33,-0.75 0.79,-1.42 1.36,-2.01 0.58,-0.59 1.21,-1.03 1.89,-1.32 0.91,-0.39 1.97,-0.58 3.16,-0.58 2.16,0 3.89,0.67 5.19,2.01 1.3,1.34 1.94,3.21 1.94,5.6 0,2.37 -0.64,4.23 -1.93,5.56 -1.29,1.34 -3.01,2.01 -5.16,2.01 -2.18,0 -3.92,-0.67 -5.2,-2 -1.27,-1.33 -1.92,-3.16 -1.92,-5.5 z m -11.81,7.24 0,-14.53 2.97,0 0,12.06 7.35,0 0,2.48 -10.32,0 z m -7.08,-5.82 -2.04,-5.42 -1.98,5.42 4.02,0 z m 5.42,5.82 -3.2,0 -1.27,-3.34 -5.88,0 -1.22,3.34 -3.14,0 5.69,-14.66 3.14,0 5.88,14.66 z m -22.37,-12.18 0,4.18 1.61,0 c 1.16,0 1.94,-0.08 2.33,-0.23 0.39,-0.15 0.7,-0.39 0.92,-0.72 0.22,-0.33 0.33,-0.71 0.33,-1.14 0,-0.54 -0.16,-0.98 -0.47,-1.32 -0.31,-0.35 -0.71,-0.57 -1.19,-0.65 -0.35,-0.06 -1.06,-0.1 -2.12,-0.1 l -1.41,0 z m -2.96,12.18 0,-14.66 4.75,0 c 1.8,0 2.97,0.07 3.51,0.22 0.84,0.22 1.54,0.7 2.11,1.44 0.57,0.74 0.85,1.69 0.85,2.86 0,0.9 -0.16,1.65 -0.49,2.27 -0.33,0.61 -0.74,1.1 -1.24,1.45 -0.5,0.35 -1.01,0.58 -1.53,0.69 -0.71,0.14 -1.73,0.21 -3.06,0.21 l -1.92,0 0,5.53 -2.98,0 z"
     id="path3536"
     inkscape:connector-curvature="0"
     style="fill:#861742" /><polygon
     class="st1"
     points="268.73,647.45 270.74,643.34 310.46,643.34 308.45,647.45 "
     id="polygon3538"
     style="clip-rule:evenodd;fill:#861742;fill-rule:evenodd"
     transform="translate(-139.81082,-524.54851)" /><path
     class="st0"
     d="m 158.73918,93.581469 c -2.92,1.580006 -4.82,2.750009 -5.7,3.500012 -0.88,0.75 -1.86,2.300006 -2.92,4.610009 -0.87,1.9 -1.29,3.14 -1.23,3.69 0.06,0.55 0.63,0.82 1.71,0.77 1.04,-0.04 1.82,-0.3 2.32,-0.78 0.5,-0.48 1.2,-1.72 2.13,-3.74 1.22,-2.690006 2.45,-5.370012 3.69,-8.050021 m -1.27,-7.870024 c -5.01,0.290003 -10,0.580003 -14.92,0.870003 1.61,-3.480009 3.25,-6.150018 4.95,-8.000018 1.72,-1.87 4.3,-3.63 7.74,-5.26 3.45,-1.64 7.43,-2.61 12.01,-2.93 5.42,-0.38 9.2,0.08 11.31,1.39 2.12,1.31 2.99,3.08 2.61,5.35 -0.38,2.26 -2.24,7.080012 -5.64,14.520033 -3.25,7.120021 -6.51,14.240027 -9.77,21.390027 -5.34,0.2 -10.62,0.4 -15.86,0.59 0.56,-1.23 1.12,-2.45 1.69,-3.68 -1.75,1.64 -3.57,2.88 -5.47,3.73 -1.9,0.84 -3.88,1.31 -5.92,1.39 -3.67,0.13 -6.01,-0.65 -7.03,-2.34 -1.03,-1.7 -0.74,-4.27 0.87,-7.76 0.52,-1.14 1.05,-2.28 1.58,-3.42 1.57,-3.390006 3.29,-5.700015 5.16,-6.960018 1.86,-1.250003 6.24,-2.960009 13.08,-5.170015 4.88,-1.570006 7.57,-2.720009 8.04,-3.350009 0.47,-0.630003 0.92,-1.410006 1.34,-2.350009 1.07,-2.330006 1.56,-3.770009 1.46,-4.370009 -0.09,-0.58 -0.68,-0.85 -1.72,-0.78 -1.07,0.07 -1.83,0.35 -2.3,0.85 -0.45,0.49 -1.23,1.910003 -2.3,4.230009 -0.29,0.710003 -0.6,1.390006 -0.91,2.060006 z M 93.579178,110.72149 c -1.64,3.51 -2.16,5.65 -1.54,6.44 0.61,0.79 1.45,1.15 2.51,1.12 1.59,-0.05 3,-0.62 4.23,-1.69 1.250002,-1.09 2.580002,-3.17 4.010002,-6.24 2.36,-5.05 4.71,-10.09 7.06,-15.120015 1.72,-3.680012 2.48,-6.060018 2.3,-7.150021 -0.18,-1.090006 -1.1,-1.580006 -2.74,-1.480006 -0.98,0.06 -2.21,0.560003 -3.68,1.490006 -1.45,0.930003 -3.09,3.290009 -4.88,7.110021 -2.430002,5.160015 -4.840002,10.330015 -7.270002,15.520015 z m -34.090007,26.45 c 7.21,-0.14 14.51,-0.29 21.910003,-0.43 -1.840003,3.92 -2.940003,6.4 -3.300003,7.41 -0.36,1.02 -0.31,1.88 0.17,2.57 0.47,0.68 1.4,1.03 2.79,1.01 1.160003,-0.01 2.270003,-0.36 3.340003,-1.03 1.06,-0.66 1.88,-1.51 2.470004,-2.56 0.59,-1.06 1.61,-3.16 3.09,-6.32 2.09,-4.47 4.17,-8.95 6.26,-13.41 -2.17,2.27 -4.64,3.98 -7.4,5.16 -2.760004,1.17 -5.790004,1.81 -9.070007,1.89 -4.06,0.1 -7.15,-0.86 -9.27,-2.81 -2.11,-1.95 -2.89,-4.32 -2.37,-7.14 0.51,-2.8 1.9,-6.61 4.18,-11.43 1.02,-2.17 2.05,-4.34 3.06,-6.5 2.7,-5.710009 4.92,-9.960021 6.710003,-12.76003 1.8,-2.810006 4.270004,-5.460015 7.390004,-7.920024 3.17,-2.500006 6.84,-4.530006 11.130002,-6.100006 4.27,-1.56 8.87,-2.54 13.77,-2.88 6.15,-0.43 10.88,-0.01 14.14,1.26 3.3,1.29 5.4,3.31 6.26,6.110003 0.87,2.800009 0.75,5.810018 -0.39,9.030027 -1.16,3.250009 -3.91,9.540027 -8.25,18.91003 -1.83,3.96 -3.66,7.92 -5.5,11.9 -4.73,10.2 -8.05,17.05 -9.96,20.53 -1.91,3.47 -4.79,6.77 -8.6,9.87 -3.800002,3.1 -8.050002,5.43 -12.750002,6.97 -4.690004,1.54 -9.590007,2.29 -14.720007,2.29 -6.29,0 -10.95,-0.94 -13.97,-2.82 -3.02,-1.88 -4.57,-4.53 -4.66,-7.93 -0.1,-3.43 1.11,-7.72 3.54,-12.87 z"
     id="path3540"
     inkscape:connector-curvature="0"
     style="fill:#861742" /></svg>