<?xml version="1.0" encoding="utf-8"?>
<!-- Generator: Adobe Illustrator 23.0.1, SVG Export Plug-In . SVG Version: 6.00 Build 0)  -->
<svg version="1.1" id="Camada_1" xmlns="http://www.w3.org/2000/svg" xmlns:xlink="http://www.w3.org/1999/xlink" x="0px" y="0px"
	 viewBox="0 0 963.78 1360.63" style="enable-background:new 0 0 963.78 1360.63;" xml:space="preserve">
<style type="text/css">
	.st0{fill-rule:evenodd;clip-rule:evenodd;}
	.st1{fill:none;stroke:#000000;stroke-width:0.5669;stroke-miterlimit:22.9256;}
</style>
<path d="M842.88,635.51h-31.81l7.01-14.64c2.04-4.25,2.95-6.91,2.79-7.98c-0.17-1.05-1.41-1.58-3.73-1.58
	c-2.63,0-4.59,0.64-5.92,1.91c-1.32,1.29-3,4.06-5.04,8.31l-18.71,39.04c-1.96,4.09-2.88,6.75-2.77,7.99
	c0.12,1.26,1.4,1.88,3.87,1.88c2.37,0,4.22-0.62,5.54-1.88c1.32-1.24,3.1-4.17,5.31-8.77l5.04-10.53h31.81l-1.56,3.26
	c-4.16,8.68-8.02,14.85-11.54,18.48c-3.52,3.63-9.02,6.82-16.44,9.55c-7.42,2.73-15.64,4.11-24.59,4.11
	c-9.34,0-16.46-1.17-21.39-3.49c-4.92-2.32-7.41-5.53-7.41-9.62c0.01-4.11,1.98-10.28,5.93-18.52l11.76-24.55
	c2.9-6.06,5.39-10.6,7.43-13.63c2.07-3.03,5.25-5.95,9.61-8.75c4.33-2.8,9.55-5.02,15.64-6.63c6.08-1.59,12.58-2.41,19.47-2.41
	c9.39,0,16.52,1.26,21.42,3.74c4.89,2.5,7.4,5.6,7.55,9.32c0.13,3.72-1.7,9.52-5.46,17.37L842.88,635.51z M726,598.86h53.06
	l-8.06,16.82h-21.23l-7.63,15.93h19.86l-7.67,16h-19.86l-8.86,18.48h23.35l-8.06,16.82h-55.18L726,598.86z M722.9,598.86
	l-8.06,16.82h-18.88l-32.22,67.24h-31.81l32.22-67.24h-18.83l8.06-16.82H722.9z M650.22,598.86l-40.27,84.06h-31.83l40.27-84.06
	H650.22z M593.59,635.51h-31.81l7.01-14.64c2.04-4.25,2.95-6.91,2.79-7.98c-0.17-1.05-1.41-1.58-3.73-1.58
	c-2.63,0-4.59,0.64-5.92,1.91c-1.32,1.29-3,4.06-5.04,8.31l-18.71,39.04c-1.96,4.09-2.87,6.75-2.77,7.99
	c0.12,1.26,1.4,1.88,3.87,1.88c2.37,0,4.22-0.62,5.54-1.88c1.32-1.24,3.11-4.17,5.31-8.77l5.04-10.53h31.81l-1.56,3.26
	c-4.16,8.68-8.02,14.85-11.54,18.48c-3.52,3.63-9.02,6.82-16.44,9.55c-7.42,2.73-15.64,4.11-24.59,4.11
	c-9.34,0-16.46-1.17-21.39-3.49c-4.92-2.32-7.41-5.53-7.41-9.62c0.01-4.11,1.98-10.28,5.93-18.52l11.76-24.55
	c2.9-6.06,5.39-10.6,7.43-13.63c2.07-3.03,5.25-5.95,9.61-8.75c4.33-2.8,9.55-5.02,15.63-6.63c6.08-1.59,12.58-2.41,19.47-2.41
	c9.39,0,16.52,1.26,21.42,3.74c4.89,2.5,7.4,5.6,7.55,9.32c0.13,3.72-1.7,9.52-5.46,17.37L593.59,635.51z M476.72,598.86h53.06
	l-8.06,16.82h-21.23l-7.63,15.93h19.86l-7.67,16h-19.86l-8.86,18.48h23.35l-8.06,16.82h-55.18L476.72,598.86z M419.29,598.86h53.89
	l-8.06,16.82h-22.06l-7.63,15.93h19.63l-7.67,16h-19.63l-16.91,35.3h-31.83L419.29,598.86z"/>
<path class="st0" d="M247.29,575c59.8-12.36,113.92,4.92,120.88,38.59c6.96,33.67-35.87,70.99-95.67,83.36
	c-59.8,12.36-113.92-4.92-120.88-38.59C144.66,624.68,187.49,587.36,247.29,575 M246.59,571.6c64.83-13.4,123.34,4.56,130.69,40.11
	c7.35,35.55-39.25,75.23-104.07,88.64c-64.83,13.4-123.34-4.56-130.69-40.11C135.17,624.69,181.76,585.01,246.59,571.6z"/>
<path class="st0" d="M314.67,612.78c26.89,54.82,23.67,111.54-7.2,126.68c-30.87,15.14-77.7-17.02-104.59-71.84
	c-26.89-54.82-23.67-111.54,7.2-126.68C240.95,525.8,287.78,557.96,314.67,612.78 M317.79,611.26
	c29.15,59.43,26.37,120.57-6.22,136.56c-32.59,15.99-82.65-19.23-111.8-78.66c-29.15-59.43-26.37-120.57,6.22-136.56
	C238.58,516.61,288.63,551.82,317.79,611.26z"/>
<path class="st0" d="M205.06,612.78c-26.89,54.82-23.67,111.54,7.2,126.68c30.87,15.14,77.7-17.02,104.59-71.84
	c26.89-54.82,23.67-111.54-7.2-126.68C278.78,525.8,231.95,557.96,205.06,612.78 M201.95,611.26
	c-29.15,59.43-26.37,120.57,6.22,136.56c32.59,15.99,82.65-19.23,111.8-78.66c29.15-59.43,26.37-120.57-6.22-136.56
	C281.16,516.61,231.1,551.82,201.95,611.26z"/>
<path d="M832.29,712.3l-2.73-7.36l-2.68,7.36H832.29z M839.66,720.14h-4.36l-1.73-4.5h-7.92l-1.63,4.5h-4.25l7.72-19.82h4.23
	L839.66,720.14z M813.97,720.14v-19.82h4v19.82H813.97z M801.78,712.85v-3.34h8.62v7.9c-0.84,0.81-2.05,1.53-3.65,2.15
	c-1.59,0.61-3.2,0.92-4.83,0.92c-2.07,0-3.88-0.43-5.42-1.3c-1.54-0.87-2.7-2.11-3.47-3.73c-0.78-1.62-1.16-3.38-1.16-5.28
	c0-2.06,0.43-3.9,1.3-5.5c0.87-1.6,2.13-2.83,3.8-3.69c1.27-0.66,2.85-0.99,4.74-0.99c2.46,0,4.38,0.52,5.76,1.55
	c1.38,1.03,2.28,2.46,2.67,4.28l-3.97,0.74c-0.28-0.97-0.81-1.74-1.58-2.31c-0.77-0.56-1.73-0.84-2.88-0.84
	c-1.75,0-3.14,0.55-4.17,1.66c-1.03,1.11-1.55,2.75-1.55,4.94c0,2.35,0.52,4.12,1.57,5.29c1.04,1.18,2.41,1.76,4.11,1.76
	c0.84,0,1.68-0.17,2.52-0.49c0.84-0.33,1.56-0.73,2.17-1.2v-2.51H801.78z M774.33,710.22c0,2.24,0.52,3.95,1.56,5.1
	c1.04,1.16,2.35,1.73,3.95,1.73c1.59,0,2.9-0.57,3.93-1.73c1.02-1.15,1.53-2.87,1.53-5.17c0-2.27-0.5-3.96-1.49-5.08
	c-1-1.12-2.32-1.68-3.97-1.68c-1.65,0-2.98,0.57-3.99,1.7C774.84,706.23,774.33,707.93,774.33,710.22z M770.21,710.35
	c0-2.02,0.3-3.71,0.9-5.08c0.45-1.01,1.07-1.92,1.85-2.72c0.78-0.8,1.63-1.39,2.56-1.78c1.24-0.53,2.66-0.78,4.27-0.78
	c2.92,0,5.26,0.9,7.01,2.72c1.75,1.81,2.63,4.33,2.63,7.55c0,3.2-0.87,5.7-2.61,7.51c-1.74,1.8-4.07,2.71-6.97,2.71
	c-2.95,0-5.29-0.9-7.03-2.69C771.08,715.98,770.21,713.5,770.21,710.35z M754.22,720.14v-19.66h4v16.32h9.95v3.34H754.22z
	 M735.89,710.22c0,2.24,0.52,3.95,1.56,5.1c1.04,1.16,2.35,1.73,3.95,1.73c1.59,0,2.9-0.57,3.93-1.73c1.02-1.15,1.53-2.87,1.53-5.17
	c0-2.27-0.5-3.96-1.49-5.08c-1-1.12-2.32-1.68-3.97-1.68c-1.65,0-2.98,0.57-3.99,1.7C736.39,706.23,735.89,707.93,735.89,710.22z
	 M731.77,710.35c0-2.02,0.3-3.71,0.9-5.08c0.45-1.01,1.07-1.92,1.85-2.72c0.78-0.8,1.63-1.39,2.56-1.78
	c1.24-0.53,2.66-0.78,4.27-0.78c2.92,0,5.26,0.9,7.01,2.72c1.75,1.81,2.63,4.33,2.63,7.55c0,3.2-0.87,5.7-2.61,7.51
	c-1.74,1.8-4.07,2.71-6.97,2.71c-2.95,0-5.29-0.9-7.03-2.69C732.63,715.98,731.77,713.5,731.77,710.35z M712.62,720.14v-19.82h3.89
	l8.11,13.23v-13.23h3.72v19.82h-4.02l-7.99-12.92v12.92H712.62z M705.27,712.85l3.88,1.23c-0.59,2.16-1.58,3.77-2.97,4.82
	c-1.38,1.05-3.14,1.57-5.26,1.57c-2.63,0-4.79-0.9-6.49-2.69c-1.69-1.8-2.54-4.26-2.54-7.37c0-3.3,0.85-5.86,2.56-7.69
	c1.7-1.82,3.94-2.74,6.72-2.74c2.42,0,4.39,0.72,5.91,2.15c0.9,0.84,1.58,2.06,2.03,3.65l-3.96,0.95c-0.23-1.03-0.72-1.84-1.47-2.44
	c-0.74-0.6-1.65-0.89-2.71-0.89c-1.47,0-2.66,0.53-3.58,1.58c-0.91,1.05-1.37,2.76-1.37,5.12c0,2.51,0.45,4.29,1.35,5.35
	c0.9,1.07,2.07,1.6,3.51,1.6c1.07,0,1.98-0.34,2.75-1.02C704.38,715.37,704.93,714.3,705.27,712.85z M674.12,720.14v-19.82h14.69
	v3.35h-10.69v4.39h9.95v3.34h-9.95v5.39h11.07v3.34H674.12z M661.67,720.14v-16.46h-5.88v-3.35h15.75v3.35h-5.86v16.46H661.67z
	 M631.05,720.14v-19.82h14.69v3.35h-10.69v4.39H645v3.34h-9.95v5.39h11.07v3.34H631.05z M614.9,712.3l-2.73-7.36l-2.68,7.36H614.9z
	 M622.27,720.14h-4.36l-1.73-4.5h-7.92l-1.63,4.5h-4.25l7.72-19.82h4.23L622.27,720.14z M596.58,720.14v-19.82h4v19.82H596.58z
	 M589.39,712.85l3.88,1.23c-0.6,2.16-1.58,3.77-2.97,4.82c-1.38,1.05-3.14,1.57-5.26,1.57c-2.63,0-4.79-0.9-6.49-2.69
	c-1.69-1.8-2.54-4.26-2.54-7.37c0-3.3,0.85-5.86,2.56-7.69c1.7-1.82,3.94-2.74,6.72-2.74c2.42,0,4.39,0.72,5.91,2.15
	c0.9,0.84,1.58,2.06,2.03,3.65l-3.96,0.95c-0.23-1.03-0.72-1.84-1.47-2.44c-0.74-0.6-1.65-0.89-2.71-0.89
	c-1.47,0-2.66,0.53-3.58,1.58c-0.91,1.05-1.37,2.76-1.37,5.12c0,2.51,0.45,4.29,1.35,5.35c0.9,1.07,2.07,1.6,3.51,1.6
	c1.07,0,1.98-0.34,2.75-1.02C588.5,715.37,589.05,714.3,589.39,712.85z M556.75,720.14v-19.82h3.89l8.11,13.23v-13.23h3.72v19.82
	h-4.02l-7.99-12.92v12.92H556.75z M540.79,699.18l2.84-3.99h3.52l2.8,3.99h-3.05l-1.57-2.01l-1.46,2.01H540.79z M538.25,720.14
	v-19.82h14.69v3.35h-10.69v4.39h9.95v3.34h-9.95v5.39h11.07v3.34H538.25z M530.43,720.14v-19.82h4v19.82H530.43z M523.24,712.85
	l3.88,1.23c-0.59,2.16-1.58,3.77-2.97,4.82c-1.38,1.05-3.14,1.57-5.26,1.57c-2.63,0-4.79-0.9-6.49-2.69
	c-1.69-1.8-2.54-4.26-2.54-7.37c0-3.3,0.85-5.86,2.56-7.69c1.7-1.82,3.94-2.74,6.72-2.74c2.42,0,4.39,0.72,5.91,2.15
	c0.9,0.84,1.58,2.06,2.03,3.65l-3.96,0.95c-0.23-1.03-0.72-1.84-1.47-2.44c-0.74-0.6-1.65-0.89-2.71-0.89
	c-1.47,0-2.66,0.53-3.58,1.58c-0.91,1.05-1.37,2.76-1.37,5.12c0,2.51,0.45,4.29,1.35,5.35c0.9,1.07,2.07,1.6,3.51,1.6
	c1.07,0,1.98-0.34,2.75-1.02C522.36,715.37,522.9,714.3,523.24,712.85z M484.4,720.14v-19.82h14.69v3.35H488.4v4.39h9.95v3.34h-9.95
	v5.39h11.07v3.34H484.4z M468.39,703.67v13.12h2.99c1.12,0,1.92-0.06,2.42-0.19c0.65-0.16,1.19-0.43,1.62-0.82
	c0.43-0.39,0.78-1.03,1.05-1.91c0.27-0.89,0.41-2.1,0.41-3.63c0-1.53-0.14-2.7-0.41-3.53c-0.27-0.82-0.65-1.46-1.13-1.92
	c-0.49-0.46-1.11-0.77-1.85-0.93c-0.56-0.13-1.65-0.19-3.29-0.19H468.39z M464.39,700.32h7.31c1.65,0,2.9,0.13,3.77,0.38
	c1.16,0.34,2.16,0.95,2.99,1.83c0.83,0.87,1.46,1.94,1.9,3.21c0.43,1.27,0.65,2.83,0.65,4.69c0,1.63-0.2,3.04-0.61,4.22
	c-0.49,1.44-1.2,2.61-2.12,3.5c-0.69,0.68-1.63,1.2-2.81,1.58c-0.88,0.28-2.06,0.42-3.54,0.42h-7.53V700.32z M448.25,712.3
	l-2.73-7.36l-2.68,7.36H448.25z M455.62,720.14h-4.36l-1.73-4.5h-7.92l-1.63,4.5h-4.25l7.72-19.82h4.23L455.62,720.14z
	 M421.77,708.7h2.96c1.92,0,3.12-0.08,3.6-0.24c0.48-0.16,0.85-0.44,1.12-0.84c0.27-0.4,0.41-0.89,0.41-1.49
	c0-0.67-0.18-1.2-0.53-1.62c-0.36-0.41-0.86-0.67-1.51-0.78c-0.32-0.04-1.3-0.07-2.92-0.07h-3.12V708.7z M417.77,720.14v-19.82h8.43
	c2.12,0,3.65,0.18,4.61,0.54c0.96,0.36,1.73,0.99,2.31,1.9c0.58,0.91,0.86,1.95,0.86,3.12c0,1.49-0.44,2.72-1.31,3.69
	c-0.87,0.96-2.18,1.58-3.92,1.83c0.87,0.51,1.58,1.06,2.15,1.67c0.56,0.6,1.32,1.67,2.28,3.22l2.42,3.87h-4.79l-2.89-4.31
	c-1.03-1.54-1.73-2.51-2.11-2.91c-0.38-0.4-0.78-0.67-1.2-0.83c-0.42-0.15-1.09-0.22-2.02-0.22h-0.81v8.27H417.77z M409.94,720.14
	v-19.82h4v19.82H409.94z M391.6,720.14v-19.82h14.69v3.35H395.6v4.39h9.95v3.34h-9.95v5.39h11.07v3.34H391.6z M374.71,720.14v-19.82
	h13.59v3.35h-9.58v4.69h8.27v3.35h-8.27v8.42H374.71z"/>
<path d="M829.45,740.14h2.19c1.42,0,2.3-0.06,2.66-0.18c0.35-0.12,0.63-0.33,0.83-0.62c0.2-0.29,0.3-0.66,0.3-1.1
	c0-0.49-0.13-0.89-0.4-1.2c-0.26-0.3-0.63-0.49-1.11-0.57c-0.24-0.03-0.96-0.05-2.16-0.05h-2.31V740.14z M826.48,748.6v-14.66h6.23
	c1.57,0,2.71,0.13,3.41,0.4c0.71,0.26,1.28,0.73,1.71,1.4c0.43,0.68,0.64,1.44,0.64,2.31c0,1.1-0.32,2.01-0.97,2.73
	s-1.61,1.17-2.89,1.35c0.64,0.37,1.16,0.78,1.58,1.23c0.42,0.45,0.98,1.24,1.68,2.38l1.79,2.86h-3.54l-2.12-3.2
	c-0.76-1.14-1.28-1.85-1.57-2.15c-0.28-0.29-0.58-0.5-0.89-0.61c-0.32-0.11-0.82-0.16-1.5-0.16h-0.6v6.12H826.48z M815.79,736.42
	v4.18h1.61c1.16,0,1.94-0.08,2.33-0.23c0.39-0.15,0.7-0.39,0.92-0.72c0.22-0.33,0.33-0.71,0.33-1.14c0-0.54-0.16-0.98-0.47-1.32
	c-0.31-0.35-0.71-0.57-1.19-0.65c-0.35-0.06-1.06-0.1-2.12-0.1H815.79z M812.83,748.6v-14.66h4.74c1.8,0,2.97,0.07,3.51,0.22
	c0.84,0.22,1.54,0.7,2.11,1.44c0.57,0.74,0.85,1.69,0.85,2.86c0,0.9-0.16,1.65-0.49,2.27c-0.33,0.61-0.74,1.1-1.24,1.45
	c-0.5,0.35-1.01,0.58-1.53,0.69c-0.71,0.14-1.73,0.21-3.06,0.21h-1.92v5.53H812.83z M799.98,744.69v-2.8h5.53v2.8H799.98z
	 M788.39,742.78l-2.04-5.42l-1.98,5.42H788.39z M793.82,748.6h-3.2l-1.27-3.34h-5.88l-1.22,3.34h-3.14l5.69-14.66h3.14L793.82,748.6
	z M765.84,748.6v-14.66h2.87l6.03,9.82v-9.82h2.74v14.66h-2.96l-5.94-9.63v9.63H765.84z M760.05,748.6v-14.66h2.97v14.66H760.05z
	 M750.94,748.6v-12.18h-4.34v-2.48h11.63v2.48h-4.32v12.18H750.94z M734.16,741.26c0,1.66,0.39,2.92,1.15,3.78
	c0.77,0.86,1.74,1.29,2.92,1.29c1.18,0,2.15-0.43,2.91-1.28c0.76-0.85,1.14-2.13,1.14-3.83c0-1.68-0.37-2.94-1.11-3.76
	c-0.74-0.83-1.72-1.24-2.94-1.24c-1.22,0-2.21,0.42-2.95,1.26C734.54,738.31,734.16,739.57,734.16,741.26z M731.11,741.36
	c0-1.49,0.23-2.75,0.67-3.77c0.33-0.75,0.79-1.42,1.36-2.01c0.58-0.59,1.21-1.03,1.89-1.32c0.91-0.39,1.97-0.58,3.16-0.58
	c2.16,0,3.89,0.67,5.19,2.01c1.3,1.34,1.94,3.21,1.94,5.6c0,2.37-0.64,4.23-1.93,5.56c-1.29,1.34-3.01,2.01-5.16,2.01
	c-2.18,0-3.92-0.67-5.2-2C731.76,745.53,731.11,743.7,731.11,741.36z M719.3,748.6v-14.53h2.97v12.06h7.35v2.48H719.3z
	 M712.22,742.78l-2.04-5.42l-1.98,5.42H712.22z M717.64,748.6h-3.2l-1.27-3.34h-5.88l-1.22,3.34h-3.14l5.69-14.66h3.14L717.64,748.6
	z M695.27,736.42v4.18h1.61c1.16,0,1.94-0.08,2.33-0.23c0.39-0.15,0.7-0.39,0.92-0.72c0.22-0.33,0.33-0.71,0.33-1.14
	c0-0.54-0.16-0.98-0.47-1.32c-0.31-0.35-0.71-0.57-1.19-0.65c-0.35-0.06-1.06-0.1-2.12-0.1H695.27z M692.31,748.6v-14.66h4.75
	c1.8,0,2.97,0.07,3.51,0.22c0.84,0.22,1.54,0.7,2.11,1.44c0.57,0.74,0.85,1.69,0.85,2.86c0,0.9-0.16,1.65-0.49,2.27
	c-0.33,0.61-0.74,1.1-1.24,1.45c-0.5,0.35-1.01,0.58-1.53,0.69c-0.71,0.14-1.73,0.21-3.06,0.21h-1.92v5.53H692.31z"/>
<polygon class="st0" points="270.74,643.34 310.46,643.34 308.45,647.45 268.73,647.45 "/>
<path d="M298.55,618.13c-2.92,1.58-4.82,2.75-5.7,3.5c-0.88,0.75-1.86,2.3-2.92,4.61c-0.87,1.9-1.29,3.14-1.23,3.69
	c0.06,0.55,0.63,0.82,1.71,0.77c1.04-0.04,1.82-0.3,2.32-0.78c0.5-0.48,1.2-1.72,2.13-3.74
	C296.08,623.49,297.31,620.81,298.55,618.13 M297.28,610.26c-5.01,0.29-10,0.58-14.92,0.87c1.61-3.48,3.25-6.15,4.95-8
	c1.72-1.87,4.3-3.63,7.74-5.26c3.45-1.64,7.43-2.61,12.01-2.93c5.42-0.38,9.2,0.08,11.31,1.39c2.12,1.31,2.99,3.08,2.61,5.35
	c-0.38,2.26-2.24,7.08-5.64,14.52c-3.25,7.12-6.51,14.24-9.77,21.39c-5.34,0.2-10.62,0.4-15.86,0.59c0.56-1.23,1.12-2.45,1.69-3.68
	c-1.75,1.64-3.57,2.88-5.47,3.73c-1.9,0.84-3.88,1.31-5.92,1.39c-3.67,0.13-6.01-0.65-7.03-2.34c-1.03-1.7-0.74-4.27,0.87-7.76
	c0.52-1.14,1.05-2.28,1.58-3.42c1.57-3.39,3.29-5.7,5.16-6.96c1.86-1.25,6.24-2.96,13.08-5.17c4.88-1.57,7.57-2.72,8.04-3.35
	c0.47-0.63,0.92-1.41,1.34-2.35c1.07-2.33,1.56-3.77,1.46-4.37c-0.09-0.58-0.68-0.85-1.72-0.78c-1.07,0.07-1.83,0.35-2.3,0.85
	c-0.45,0.49-1.23,1.91-2.3,4.23C297.9,608.91,297.59,609.59,297.28,610.26z M233.39,635.27c-1.64,3.51-2.16,5.65-1.54,6.44
	c0.61,0.79,1.45,1.15,2.51,1.12c1.59-0.05,3-0.62,4.23-1.69c1.25-1.09,2.58-3.17,4.01-6.24c2.36-5.05,4.71-10.09,7.06-15.12
	c1.72-3.68,2.48-6.06,2.3-7.15c-0.18-1.09-1.1-1.58-2.74-1.48c-0.98,0.06-2.21,0.56-3.68,1.49c-1.45,0.93-3.09,3.29-4.88,7.11
	C238.23,624.91,235.82,630.08,233.39,635.27z M199.3,661.72c7.21-0.14,14.51-0.29,21.91-0.43c-1.84,3.92-2.94,6.4-3.3,7.41
	c-0.36,1.02-0.31,1.88,0.17,2.57c0.47,0.68,1.4,1.03,2.79,1.01c1.16-0.01,2.27-0.36,3.34-1.03c1.06-0.66,1.88-1.51,2.47-2.56
	c0.59-1.06,1.61-3.16,3.09-6.32c2.09-4.47,4.17-8.95,6.26-13.41c-2.17,2.27-4.64,3.98-7.4,5.16c-2.76,1.17-5.79,1.81-9.07,1.89
	c-4.06,0.1-7.15-0.86-9.27-2.81c-2.11-1.95-2.89-4.32-2.37-7.14c0.51-2.8,1.9-6.61,4.18-11.43c1.02-2.17,2.05-4.34,3.06-6.5
	c2.7-5.71,4.92-9.96,6.71-12.76c1.8-2.81,4.27-5.46,7.39-7.92c3.17-2.5,6.84-4.53,11.13-6.1c4.27-1.56,8.87-2.54,13.77-2.88
	c6.15-0.43,10.88-0.01,14.14,1.26c3.3,1.29,5.4,3.31,6.26,6.11c0.87,2.8,0.75,5.81-0.39,9.03c-1.16,3.25-3.91,9.54-8.25,18.91
	c-1.83,3.96-3.66,7.92-5.5,11.9c-4.73,10.2-8.05,17.05-9.96,20.53c-1.91,3.47-4.79,6.77-8.6,9.87c-3.8,3.1-8.05,5.43-12.75,6.97
	c-4.69,1.54-9.59,2.29-14.72,2.29c-6.29,0-10.95-0.94-13.97-2.82c-3.02-1.88-4.57-4.53-4.66-7.93
	C195.66,671.16,196.87,666.87,199.3,661.72z"/>
<line class="st1" x1="935.31" y1="1360.63" x2="935.31" y2="1338.78"/>
<line class="st1" x1="962.81" y1="1332.05" x2="940.97" y2="1332.05"/>
</svg>
