<svg width="711" height="223" viewBox="0 0 711 223" fill="none" xmlns="http://www.w3.org/2000/svg">
<g clip-path="url(#clip0_319_19)">
<path d="M701.1 106.8H669.3L676.3 92.1999C678.3 87.8999 679.3 85.2999 679.1 84.1999C678.9 83.0999 677.7 82.5999 675.4 82.5999C672.8 82.5999 670.8 83.1999 669.5 84.4999C668.2 85.7999 666.5 88.5999 664.5 92.7999L645.8 131.8C643.8 135.9 642.9 138.6 643 139.8C643.1 141 644.4 141.7 646.9 141.7C648.9 141.8 650.9 141.2 652.4 139.8C653.7 138.6 655.5 135.6 657.7 131L662.7 120.5H694.5L692.9 123.8C688.7 132.5 684.9 138.7 681.4 142.3C677.9 145.9 672.4 149.1 665 151.9C657.1 154.7 648.8 156.1 640.4 156C631.1 156 623.9 154.8 619 152.5C614.1 150.2 611.6 147 611.6 142.9C611.6 138.8 613.6 132.6 617.5 124.4L629.3 99.7999C631.5 95.0999 633.9 90.5999 636.7 86.1999C639.3 82.6999 642.6 79.6999 646.3 77.3999C651.1 74.3999 656.4 72.1999 661.9 70.7999C668.3 69.1999 674.8 68.3999 681.4 68.3999C690.8 68.3999 697.9 69.6999 702.8 72.0999C707.7 74.4999 710.2 77.6999 710.3 81.3999C710.4 85.0999 708.6 90.8999 704.8 98.7999L701.1 106.8ZM584.2 70.1999H637.3L629.2 86.9999H608L600.4 102.9H620.3L612.6 118.9H592.7L583.8 137.4H607.1L599 154.2H544L584.2 70.1999ZM581.1 70.1999L573.1 86.9999H554.2L522 154.2H490.2L522.4 86.9999H503.6L511.7 70.1999H581.1ZM508.5 70.1999L468.2 154.3H436.4L476.7 70.1999H508.5ZM451.8 106.8H420L427 92.1999C429 87.8999 430 85.2999 429.8 84.1999C429.6 83.0999 428.4 82.5999 426.1 82.5999C423.5 82.5999 421.5 83.1999 420.2 84.4999C418.9 85.7999 417.2 88.5999 415.2 92.7999L396.5 131.8C394.5 135.9 393.6 138.6 393.7 139.8C393.8 141 395.1 141.7 397.6 141.7C399.6 141.8 401.6 141.2 403.1 139.8C404.4 138.6 406.2 135.6 408.4 131L413.4 120.5H445.2L443.6 123.8C439.4 132.5 435.6 138.7 432.1 142.3C428.6 145.9 423.1 149.1 415.7 151.9C407.8 154.7 399.5 156.1 391.1 156C381.8 156 374.6 154.8 369.7 152.5C364.8 150.2 362.3 147 362.3 142.9C362.3 138.8 364.3 132.6 368.2 124.4L380 99.7999C382.2 95.0999 384.6 90.5999 387.4 86.1999C390 82.6999 393.3 79.6999 397 77.3999C401.8 74.3999 407.1 72.1999 412.6 70.7999C419 69.1999 425.5 68.3999 432.1 68.3999C441.5 68.3999 448.6 69.6999 453.5 72.0999C458.4 74.4999 460.9 77.6999 461 81.3999C461.1 85.0999 459.3 90.8999 455.5 98.7999L451.8 106.8ZM335 70.1999H388L380 86.9999H358.8L351.2 102.9H371L363.3 118.9H343.4L334.5 137.4H357.9L349.8 154.2H294.6C294.7 154.2 335 70.1999 335 70.1999ZM277.5 70.1999H331.4L323.4 86.9999H301.3L293.7 102.9H313.3L305.6 118.9H286L269.1 154.2H237.3L277.5 70.1999Z" fill="white"/>
<path fill-rule="evenodd" clip-rule="evenodd" d="M105.5 46.2998C165.3 33.8998 219.4 51.1998 226.4 84.8998C233.4 118.6 190.5 155.9 130.7 168.3C70.8998 180.7 16.7998 163.4 9.79978 129.7C2.79978 95.9998 45.6998 58.6998 105.5 46.2998ZM104.8 42.8998C169.6 29.4998 228.1 47.4998 235.5 82.9998C242.9 118.5 196.2 158.2 131.4 171.6C66.5998 185 8.09978 167.1 0.799776 131.6C-6.50022 96.0998 39.9998 56.2998 104.8 42.8998Z" fill="white"/>
<path fill-rule="evenodd" clip-rule="evenodd" d="M172.9 84.1C199.8 138.9 196.6 195.6 165.7 210.8C134.8 226 87.9995 193.8 61.0995 139C34.1995 84.2 37.4995 27.4 68.2995 12.3C99.0995 -2.79996 146 29.3 172.9 84.1ZM176 82.6C205.1 142 202.4 203.2 169.8 219.2C137.2 235.2 87.1995 199.9 57.9995 140.5C28.7995 81.1 31.5995 19.9 64.1995 3.90003C96.7995 -12.1 146.9 23.1 176 82.6Z" fill="white"/>
<path fill-rule="evenodd" clip-rule="evenodd" d="M63.2997 84.1C36.3997 138.9 39.5997 195.6 70.4997 210.8C101.4 226 148.2 193.8 175.1 139C202 84.2 198.8 27.5 167.9 12.3C137 -2.89996 90.1997 29.3 63.2997 84.1ZM60.1997 82.6C30.9997 142 33.7997 203.2 66.3997 219.1C98.9997 235 149.1 199.9 178.2 140.4C207.3 80.9 204.6 19.9 172 3.90003C139.4 -12.1 89.2997 23.1 60.1997 82.6Z" fill="white"/>
<path d="M690.5 183.6L687.8 176.2L685.1 183.6H690.5ZM697.9 191.5H693.5L691.8 187H683.9L682.3 191.5H678L685.7 171.7H689.9L697.9 191.5ZM672.2 191.5V171.7H676.2V191.5H672.2ZM660 184.2V180.9H668.6V188.8C667.5 189.8 666.3 190.5 664.9 190.9C663.4 191.5 661.7 191.8 660.1 191.8C658.2 191.9 656.3 191.4 654.7 190.5C653.2 189.6 652 188.3 651.2 186.8C650.4 185.2 650 183.3 650 181.5C649.9 179.6 650.4 177.7 651.3 176C652.2 174.4 653.5 173.1 655.1 172.3C656.6 171.6 658.2 171.2 659.8 171.3C661.9 171.2 663.9 171.7 665.6 172.9C667 174 667.9 175.5 668.3 177.2L664.3 177.9C664 177 663.5 176.2 662.7 175.6C661.9 175 660.8 174.7 659.8 174.8C658.2 174.7 656.7 175.4 655.6 176.5C654.5 177.9 654 179.6 654.1 181.4C654.1 183.8 654.6 185.5 655.7 186.7C656.7 187.9 658.2 188.6 659.8 188.5C660.7 188.5 661.5 188.3 662.3 188C663.1 187.7 663.8 187.3 664.5 186.8V184.3L660 184.2ZM632.6 181.5C632.5 183.3 633 185.2 634.2 186.6C635.2 187.8 636.7 188.4 638.2 188.3C639.7 188.3 641.1 187.7 642.1 186.6C643.1 185.5 643.6 183.7 643.6 181.4C643.6 179.1 643.1 177.4 642.1 176.3C640 174.1 636.4 174 634.2 176.2L634.1 176.3C633 177.8 632.5 179.6 632.6 181.5ZM628.5 181.7C628.5 180 628.8 178.2 629.4 176.6C629.9 175.6 630.5 174.7 631.2 173.9C631.9 173.1 632.8 172.5 633.8 172.1C635.2 171.6 636.6 171.3 638.1 171.3C640.7 171.2 643.3 172.2 645.1 174C646.9 175.8 647.7 178.3 647.7 181.6C647.8 184.3 646.9 187 645.1 189.1C643.3 190.9 640.7 191.9 638.1 191.8C635.5 191.9 632.9 191 631.1 189.1C629.3 187.3 628.5 184.8 628.5 181.7ZM612.5 191.5V171.8H616.5V188.1H626.5V191.4L612.5 191.5ZM594.1 181.5C594 183.3 594.5 185.2 595.7 186.6C596.7 187.8 598.2 188.4 599.7 188.3C601.2 188.3 602.6 187.7 603.6 186.6C604.6 185.5 605.1 183.7 605.1 181.4C605.1 179.1 604.6 177.4 603.6 176.3C601.5 174.1 597.9 174 595.7 176.2L595.6 176.3C594.5 177.8 594 179.6 594.1 181.5ZM590 181.7C590 180 590.3 178.2 590.9 176.6C591.4 175.6 592 174.7 592.7 173.9C593.4 173.1 594.3 172.5 595.3 172.1C596.7 171.6 598.1 171.3 599.6 171.3C602.2 171.2 604.8 172.2 606.6 174C608.4 175.8 609.2 178.3 609.2 181.6C609.3 184.3 608.4 187 606.6 189.1C604.8 190.9 602.2 191.9 599.6 191.8C597 191.9 594.4 191 592.6 189.1C590.8 187 589.8 184.4 590 181.7ZM570.9 191.5V171.7H574.8L582.9 184.9V171.7H586.6V191.5H582.6L574.6 178.6V191.5H570.9ZM563.5 184.2L567.4 185.4C567 187.3 565.9 189 564.4 190.2C562.9 191.3 561 191.9 559.1 191.8C556.6 191.9 554.3 190.9 552.6 189.1C550.8 187.1 549.9 184.4 550.1 181.7C550.1 178.4 550.9 175.8 552.7 174C554.4 172.2 556.9 171.2 559.4 171.3C561.6 171.2 563.7 172 565.3 173.4C566.3 174.4 567 175.6 567.3 177L563.3 177.9C563.1 176.9 562.6 176.1 561.8 175.5C561 174.9 560.1 174.6 559.1 174.6C557.7 174.5 556.4 175.1 555.5 176.2C554.5 177.7 554 179.5 554.1 181.3C554 183.2 554.4 185.1 555.4 186.7C556.3 187.8 557.5 188.3 558.9 188.3C559.9 188.3 560.9 188 561.7 187.3C562.6 186.5 563.3 185.4 563.5 184.2ZM532.4 191.5V171.7H547.1V175.1H536.4V179.5H546.4V182.8H536.4V188.2H547.5V191.5H532.4ZM519.9 191.5V175H514V171.6H529.8V175H523.9V191.5H519.9ZM489.3 191.5V171.7H504V175.1H493.3V179.5H503.3V182.8H493.3V188.2H504.4V191.5H489.3ZM473.1 183.6L470.4 176.2L467.7 183.6H473.1ZM480.5 191.5H476.1L474.4 187H466.5L464.9 191.5H460.6L468.3 171.7H472.5L480.5 191.5ZM454.8 191.5V171.7H458.8V191.5H454.8ZM447.6 184.2L451.5 185.4C451.1 187.3 450 189 448.5 190.2C447 191.3 445.1 191.9 443.2 191.8C440.7 191.9 438.4 190.9 436.7 189.1C434.9 187.1 434 184.4 434.2 181.7C434.2 178.4 435.1 175.8 436.8 174C438.5 172.2 441 171.2 443.5 171.3C445.7 171.2 447.8 172 449.4 173.4C450.4 174.4 451.1 175.6 451.4 177L447.4 177.9C447.2 176.9 446.7 176.1 445.9 175.5C445.1 174.9 444.2 174.6 443.2 174.6C441.8 174.5 440.5 175.1 439.6 176.2C438.6 177.7 438.1 179.5 438.2 181.3C438.2 183.8 438.7 185.6 439.6 186.7C440.5 187.8 441.7 188.3 443.1 188.3C444.1 188.3 445.1 188 445.9 187.3C446.8 186.5 447.4 185.4 447.6 184.2ZM415 191.5V171.7H418.9L427 184.9V171.7H430.7V191.5H426.7L418.7 178.6V191.5H415ZM399 170.5L401.8 166.5H405.3L408.1 170.5H405.1L403.5 168.5L402 170.5H399ZM396.5 191.5V171.7H411.2V175.1H400.5V179.5H410.5V182.8H400.5V188.2H411.6V191.5H396.5ZM388.7 191.5V171.7H392.7V191.5H388.7ZM381.5 184.2L385.4 185.4C385 187.3 383.9 189 382.4 190.2C380.9 191.3 379 191.9 377.1 191.8C374.6 191.9 372.3 190.9 370.6 189.1C368.8 187.1 367.9 184.4 368.1 181.7C368.1 178.4 369 175.8 370.7 174C372.4 172.2 374.9 171.2 377.4 171.3C379.6 171.2 381.7 172 383.3 173.4C384.3 174.4 385 175.6 385.3 177L381.3 177.9C381.1 176.9 380.6 176.1 379.8 175.5C379 174.9 378.1 174.6 377.1 174.6C375.7 174.5 374.4 175.1 373.5 176.2C372.5 177.7 372 179.5 372.1 181.3C372.1 183.8 372.6 185.6 373.5 186.7C374.4 187.8 375.6 188.3 377 188.3C378 188.3 379 188 379.8 187.3C380.6 186.4 381.2 185.3 381.5 184.2ZM342.6 191.5V171.7H357.3V175.1H346.6V179.5H356.6V182.8H346.6V188.2H357.7V191.5H342.6ZM326.6 175V188.1H329.6C330.4 188.1 331.2 188 332 187.9C332.6 187.8 333.1 187.5 333.6 187.1C334.1 186.6 334.5 185.9 334.6 185.2C334.9 184 335.1 182.8 335 181.6C335.1 180.4 334.9 179.2 334.6 178.1C334.4 177.4 334 176.7 333.5 176.2C333 175.7 332.3 175.4 331.6 175.3C330.5 175.1 329.4 175.1 328.3 175.1L326.6 175ZM322.6 171.6H329.9C331.2 171.5 332.5 171.7 333.7 172C334.9 172.3 335.9 172.9 336.7 173.8C337.6 174.7 338.2 175.8 338.6 177C339 178.5 339.2 180.1 339.2 181.7C339.2 183.1 339 184.5 338.6 185.9C338.2 187.2 337.4 188.4 336.5 189.4C335.7 190.1 334.7 190.7 333.7 191C332.6 191.3 331.4 191.4 330.2 191.4H322.7L322.6 171.6ZM306.5 183.6L303.8 176.2L301.1 183.6H306.5ZM313.9 191.5H309.5L307.8 187H299.9L298.3 191.5H294L301.7 171.7H305.9L313.9 191.5ZM280 180H283C284.2 180 285.4 180 286.6 179.8C287.1 179.7 287.5 179.4 287.7 179C288 178.5 288.1 178 288.1 177.5C288.1 176.9 287.9 176.4 287.6 175.9C287.2 175.5 286.7 175.2 286.1 175.1C285.8 175.1 284.8 175 283.2 175H280V180ZM276 191.5V171.7H284.4C285.9 171.7 287.5 171.8 289 172.2C290 172.5 290.8 173.2 291.3 174.1C291.9 175 292.2 176.1 292.2 177.2C292.3 178.6 291.8 179.9 290.9 180.9C289.9 182 288.5 182.6 287 182.7C287.8 183.1 288.5 183.7 289.1 184.4C289.9 185.4 290.7 186.5 291.4 187.6L293.8 191.5H289L286.1 187.2C285.5 186.2 284.8 185.2 284 184.3C283.7 183.9 283.3 183.7 282.8 183.5C282.1 183.4 281.5 183.3 280.8 183.3H280V191.6L276 191.5ZM268.2 191.5V171.7H272.2V191.5H268.2ZM249.8 191.5V171.7H264.5V175.1H253.8V179.5H263.8V182.8H253.9V188.2H265V191.5H249.8ZM233 191.5V171.7H246.6V175.1H237V179.8H245.3V183.2H237V191.6L233 191.5Z" fill="white"/>
<path d="M687.7 211.5H689.9C690.8 211.5 691.7 211.5 692.6 211.3C692.9 211.2 693.2 211 693.4 210.7C693.6 210.4 693.7 210 693.7 209.6C693.7 209.2 693.6 208.7 693.3 208.4C693 208.1 692.6 207.9 692.2 207.8C692 207.8 691.2 207.7 690 207.7H687.7V211.5ZM684.7 219.9V205.2H690.9C692 205.1 693.2 205.3 694.3 205.6C695 205.9 695.6 206.4 696 207C696.4 207.7 696.6 208.5 696.6 209.3C696.7 210.3 696.3 211.3 695.6 212C694.8 212.8 693.8 213.3 692.7 213.4C693.3 213.8 693.8 214.2 694.3 214.6C695 215.3 695.5 216.1 696 217L697.8 219.9H694.3L692.2 216.7C691.7 216 691.2 215.2 690.6 214.6C690.4 214.3 690 214.1 689.7 214C689.2 213.9 688.7 213.8 688.2 213.8H687.6V219.9H684.7ZM674 207.7V211.9H675.6C676.4 211.9 677.1 211.9 677.9 211.7C678.3 211.6 678.6 211.3 678.8 211C679 210.7 679.1 210.3 679.1 209.9C679.1 209.4 678.9 209 678.6 208.6C678.3 208.2 677.9 208 677.4 208C676.7 207.9 676 207.9 675.3 207.9L674 207.7ZM671.1 219.9V205.2H675.8C677 205.2 678.1 205.2 679.3 205.4C680.1 205.6 680.9 206.1 681.4 206.8C682 207.6 682.3 208.7 682.2 209.7C682.2 210.5 682 211.3 681.7 212C681.4 212.6 681 213.1 680.5 213.4C680.1 213.8 679.6 214 679 214.1C678 214.2 676.9 214.3 675.9 214.3H674V219.8L671.1 219.9ZM658.2 216V213.2H663.7V216H658.2ZM646.6 214.1L644.6 208.7L642.6 214.1H646.6ZM652.1 219.9H648.9L647.6 216.6H641.7L640.5 219.9H637.4L643.1 205.2H646.2L652.1 219.9ZM624.1 219.9V205.2H627L633 215V205.2H635.7V219.9H632.7L626.8 210.3V219.9H624.1ZM618.3 219.9V205.2H621.3V219.9H618.3ZM609.2 219.9V207.7H604.9V205.2H616.5V207.7H612.2V219.9H609.2ZM592.4 212.6C592.3 214 592.7 215.3 593.6 216.4C594.3 217.3 595.4 217.7 596.5 217.7C597.6 217.8 598.7 217.3 599.4 216.4C600.2 215.3 600.6 214 600.5 212.6C600.6 211.2 600.2 209.9 599.4 208.8C598.7 208 597.6 207.5 596.5 207.6C595.4 207.6 594.3 208 593.5 208.9C592.6 209.9 592.3 211.2 592.4 212.6ZM589.4 212.7C589.3 211.4 589.6 210.1 590.1 208.9C590.4 208.1 590.9 207.5 591.5 206.9C592 206.3 592.7 205.9 593.4 205.6C594.4 205.2 595.5 205 596.6 205C598.5 204.9 600.4 205.6 601.8 207C603.2 208.5 603.8 210.6 603.7 212.6C603.8 214.6 603.1 216.7 601.8 218.2C598.8 220.9 594.4 220.9 591.4 218.2C590 216.7 589.2 214.7 589.4 212.7ZM577.5 219.9V205.4H580.5V217.5H587.8V220L577.5 219.9ZM570.5 214.1L568.5 208.7L566.5 214.1H570.5ZM575.9 219.9H572.7L571.4 216.6H565.5L564.3 219.9H561.2L566.9 205.2H570L575.9 219.9ZM553.5 207.7V211.9H555.1C555.9 211.9 556.6 211.9 557.4 211.7C557.8 211.6 558.1 211.3 558.3 211C558.5 210.7 558.6 210.3 558.6 209.9C558.6 209.4 558.4 209 558.1 208.6C557.8 208.2 557.4 208 556.9 208C556.2 207.9 555.5 207.9 554.8 207.9L553.5 207.7ZM550.6 219.9V205.2H555.4C556.6 205.2 557.7 205.2 558.9 205.4C559.7 205.6 560.5 206.1 561 206.8C561.6 207.6 561.9 208.7 561.8 209.7C561.8 210.5 561.6 211.3 561.3 212C561 212.6 560.6 213.1 560.1 213.4C559.7 213.8 559.2 214 558.6 214.1C557.6 214.2 556.5 214.3 555.5 214.3H553.6V219.8L550.6 219.9Z" fill="white"/>
<path fill-rule="evenodd" clip-rule="evenodd" d="M152.6 111.2H173.4L172.3 114.4H151.6L152.6 111.2Z" fill="white"/>
<path d="M152.1 101.5C152.1 95.8998 155.7 92.8998 164.1 91.8998C163.9 89.9998 163 89.3998 161.2 89.3998C159.6 89.3998 157.9 90.1998 155.6 91.5998L152.8 85.2998C155.9 83.0998 159.2 81.7998 162.6 81.7998C168.2 81.7998 171.9 85.6998 171.9 94.1998V109.1H165.7L165.1 106.6H164.8C163.2 108.5 161.2 109.8 158.9 109.8C154.6 109.6 152.1 105.8 152.1 101.5ZM164 100.8V97.2998C160.6 97.6998 159.5 99.1998 159.5 100.7C159.4 101.6 160.1 102.4 161 102.5C161.1 102.5 161.3 102.5 161.4 102.5C162.6 102.4 163.2 101.8 164 100.8Z" fill="white"/>
<path d="M85.4922 150V97.0312C84.5547 98.151 83.2656 99.0625 81.625 99.7656C79.9844 100.443 78.4349 100.781 76.9766 100.781V89.8047C78.3568 89.5964 79.8411 89.1536 81.4297 88.4766C83.0182 87.7734 84.4896 86.8229 85.8438 85.625C87.224 84.401 88.2786 82.9297 89.0078 81.2109H100.062V150H85.4922ZM126.778 150.039V139.141H106.388V128.398L119.395 81.2109H140.802V127.656H144.473V139.141H140.802V150.039H126.778ZM118.653 127.656H126.778V93.0078L118.653 127.656Z" fill="white"/>
</g>
<defs>
<clipPath id="clip0_319_19">
<rect width="710.3" height="223" fill="white"/>
</clipPath>
</defs>
</svg>
