<?xml version="1.0" encoding="utf-8"?>
<!-- Generator: Adobe Illustrator 27.5.0, SVG Export Plug-In . SVG Version: 6.00 Build 0)  -->
<svg version="1.1" xmlns="http://www.w3.org/2000/svg" xmlns:xlink="http://www.w3.org/1999/xlink" x="0px" y="0px"
	 viewBox="0 0 710.3 223" style="enable-background:new 0 0 710.3 223;" xml:space="preserve">
<style type="text/css">
	.st0{display:none;}
	.st1{display:inline;fill:#656A00;stroke:#000000;stroke-miterlimit:10;}
	.st2{fill:#FFFFFF;}
	.st3{fill-rule:evenodd;clip-rule:evenodd;fill:#FFFFFF;}
</style>
<g id="Camada_2" class="st0">
	<rect x="-184" y="-115" class="st1" width="1068" height="422"/>
</g>
<g id="Camada_1">
	<path class="st2" d="M701.1,106.8h-31.8l7-14.6c2-4.3,3-6.9,2.8-8s-1.4-1.6-3.7-1.6c-2.6,0-4.6,0.6-5.9,1.9s-3,4.1-5,8.3l-18.7,39
		c-2,4.1-2.9,6.8-2.8,8s1.4,1.9,3.9,1.9c2,0.1,4-0.5,5.5-1.9c1.3-1.2,3.1-4.2,5.3-8.8l5-10.5h31.8l-1.6,3.3
		c-4.2,8.7-8,14.9-11.5,18.5s-9,6.8-16.4,9.6c-7.9,2.8-16.2,4.2-24.6,4.1c-9.3,0-16.5-1.2-21.4-3.5s-7.4-5.5-7.4-9.6
		s2-10.3,5.9-18.5l11.8-24.6c2.2-4.7,4.6-9.2,7.4-13.6c2.6-3.5,5.9-6.5,9.6-8.8c4.8-3,10.1-5.2,15.6-6.6c6.4-1.6,12.9-2.4,19.5-2.4
		c9.4,0,16.5,1.3,21.4,3.7s7.4,5.6,7.5,9.3s-1.7,9.5-5.5,17.4L701.1,106.8L701.1,106.8z M584.2,70.2h53.1L629.2,87H608l-7.6,15.9
		h19.9l-7.7,16h-19.9l-8.9,18.5h23.3l-8.1,16.8h-55L584.2,70.2z M581.1,70.2l-8,16.8h-18.9L522,154.2h-31.8L522.4,87h-18.8l8.1-16.8
		H581.1z M508.5,70.2l-40.3,84.1h-31.8l40.3-84.1L508.5,70.2z M451.8,106.8H420l7-14.6c2-4.3,3-6.9,2.8-8s-1.4-1.6-3.7-1.6
		c-2.6,0-4.6,0.6-5.9,1.9s-3,4.1-5,8.3l-18.7,39c-2,4.1-2.9,6.8-2.8,8s1.4,1.9,3.9,1.9c2,0.1,4-0.5,5.5-1.9c1.3-1.2,3.1-4.2,5.3-8.8
		l5-10.5h31.8l-1.6,3.3c-4.2,8.7-8,14.9-11.5,18.5s-9,6.8-16.4,9.6c-7.9,2.8-16.2,4.2-24.6,4.1c-9.3,0-16.5-1.2-21.4-3.5
		s-7.4-5.5-7.4-9.6s2-10.3,5.9-18.5L380,99.8c2.2-4.7,4.6-9.2,7.4-13.6c2.6-3.5,5.9-6.5,9.6-8.8c4.8-3,10.1-5.2,15.6-6.6
		c6.4-1.6,12.9-2.4,19.5-2.4c9.4,0,16.5,1.3,21.4,3.7s7.4,5.6,7.5,9.3s-1.7,9.5-5.5,17.4L451.8,106.8L451.8,106.8z M335,70.2h53
		L380,87h-21.2l-7.6,15.9H371l-7.7,16h-19.9l-8.9,18.5h23.4l-8.1,16.8h-55.2C294.7,154.2,335,70.2,335,70.2z M277.5,70.2h53.9
		l-8,16.8h-22.1l-7.6,15.9h19.6l-7.7,16H286l-16.9,35.3h-31.8L277.5,70.2z"/>
	<path class="st3" d="M105.5,46.3c59.8-12.4,113.9,4.9,120.9,38.6s-35.9,71-95.7,83.4S16.8,163.4,9.8,129.7S45.7,58.7,105.5,46.3
		 M104.8,42.9c64.8-13.4,123.3,4.6,130.7,40.1s-39.3,75.2-104.1,88.6s-123.3-4.5-130.6-40S40,56.3,104.8,42.9z"/>
	<path class="st3" d="M172.9,84.1c26.9,54.8,23.7,111.5-7.2,126.7S88,193.8,61.1,139S37.5,27.4,68.3,12.3S146,29.3,172.9,84.1
		 M176,82.6c29.1,59.4,26.4,120.6-6.2,136.6S87.2,199.9,58,140.5S31.6,19.9,64.2,3.9S146.9,23.1,176,82.6z"/>
	<path class="st3" d="M63.3,84.1c-26.9,54.8-23.7,111.5,7.2,126.7s77.7-17,104.6-71.8s23.7-111.5-7.2-126.7S90.2,29.3,63.3,84.1
		 M60.2,82.6C31,142,33.8,203.2,66.4,219.1s82.7-19.2,111.8-78.7S204.6,19.9,172,3.9S89.3,23.1,60.2,82.6z"/>
	<path class="st2" d="M690.5,183.6l-2.7-7.4l-2.7,7.4H690.5z M697.9,191.5h-4.4l-1.7-4.5h-7.9l-1.6,4.5H678l7.7-19.8h4.2
		L697.9,191.5z M672.2,191.5v-19.8h4v19.8H672.2z M660,184.2v-3.3h8.6v7.9c-1.1,1-2.3,1.7-3.7,2.1c-1.5,0.6-3.2,0.9-4.8,0.9
		c-1.9,0.1-3.8-0.4-5.4-1.3c-1.5-0.9-2.7-2.2-3.5-3.7c-0.8-1.6-1.2-3.5-1.2-5.3c-0.1-1.9,0.4-3.8,1.3-5.5c0.9-1.6,2.2-2.9,3.8-3.7
		c1.5-0.7,3.1-1.1,4.7-1c2.1-0.1,4.1,0.4,5.8,1.6c1.4,1.1,2.3,2.6,2.7,4.3l-4,0.7c-0.3-0.9-0.8-1.7-1.6-2.3s-1.9-0.9-2.9-0.8
		c-1.6-0.1-3.1,0.6-4.2,1.7c-1.1,1.4-1.6,3.1-1.5,4.9c0,2.4,0.5,4.1,1.6,5.3c1,1.2,2.5,1.9,4.1,1.8c0.9,0,1.7-0.2,2.5-0.5
		s1.5-0.7,2.2-1.2v-2.5L660,184.2L660,184.2z M632.6,181.5c-0.1,1.8,0.4,3.7,1.6,5.1c1,1.2,2.5,1.8,4,1.7c1.5,0,2.9-0.6,3.9-1.7
		c1-1.1,1.5-2.9,1.5-5.2s-0.5-4-1.5-5.1c-2.1-2.2-5.7-2.3-7.9-0.1l-0.1,0.1C633,177.8,632.5,179.6,632.6,181.5z M628.5,181.7
		c0-1.7,0.3-3.5,0.9-5.1c0.5-1,1.1-1.9,1.8-2.7s1.6-1.4,2.6-1.8c1.4-0.5,2.8-0.8,4.3-0.8c2.6-0.1,5.2,0.9,7,2.7s2.6,4.3,2.6,7.6
		c0.1,2.7-0.8,5.4-2.6,7.5c-1.8,1.8-4.4,2.8-7,2.7c-2.6,0.1-5.2-0.8-7-2.7C629.3,187.3,628.5,184.8,628.5,181.7z M612.5,191.5v-19.7
		h4v16.3h10v3.3L612.5,191.5L612.5,191.5z M594.1,181.5c-0.1,1.8,0.4,3.7,1.6,5.1c1,1.2,2.5,1.8,4,1.7c1.5,0,2.9-0.6,3.9-1.7
		c1-1.1,1.5-2.9,1.5-5.2s-0.5-4-1.5-5.1c-2.1-2.2-5.7-2.3-7.9-0.1l-0.1,0.1C594.5,177.8,594,179.6,594.1,181.5z M590,181.7
		c0-1.7,0.3-3.5,0.9-5.1c0.5-1,1.1-1.9,1.8-2.7s1.6-1.4,2.6-1.8c1.4-0.5,2.8-0.8,4.3-0.8c2.6-0.1,5.2,0.9,7,2.7s2.6,4.3,2.6,7.6
		c0.1,2.7-0.8,5.4-2.6,7.5c-1.8,1.8-4.4,2.8-7,2.7c-2.6,0.1-5.2-0.8-7-2.7C590.8,187,589.8,184.4,590,181.7z M570.9,191.5v-19.8h3.9
		l8.1,13.2v-13.2h3.7v19.8h-4l-8-12.9v12.9H570.9z M563.5,184.2l3.9,1.2c-0.4,1.9-1.5,3.6-3,4.8c-1.5,1.1-3.4,1.7-5.3,1.6
		c-2.5,0.1-4.8-0.9-6.5-2.7c-1.8-2-2.7-4.7-2.5-7.4c0-3.3,0.8-5.9,2.6-7.7c1.7-1.8,4.2-2.8,6.7-2.7c2.2-0.1,4.3,0.7,5.9,2.1
		c1,1,1.7,2.2,2,3.6l-4,0.9c-0.2-1-0.7-1.8-1.5-2.4c-0.8-0.6-1.7-0.9-2.7-0.9c-1.4-0.1-2.7,0.5-3.6,1.6c-1,1.5-1.5,3.3-1.4,5.1
		c-0.1,1.9,0.3,3.8,1.3,5.4c0.9,1.1,2.1,1.6,3.5,1.6c1,0,2-0.3,2.8-1C562.6,186.5,563.3,185.4,563.5,184.2z M532.4,191.5v-19.8h14.7
		v3.4h-10.7v4.4h10v3.3h-10v5.4h11.1v3.3L532.4,191.5z M519.9,191.5V175H514v-3.4h15.8v3.4h-5.9v16.5H519.9z M489.3,191.5v-19.8H504
		v3.4h-10.7v4.4h10v3.3h-10v5.4h11.1v3.3L489.3,191.5z M473.1,183.6l-2.7-7.4l-2.7,7.4H473.1z M480.5,191.5h-4.4l-1.7-4.5h-7.9
		l-1.6,4.5h-4.3l7.7-19.8h4.2L480.5,191.5L480.5,191.5z M454.8,191.5v-19.8h4v19.8H454.8z M447.6,184.2l3.9,1.2
		c-0.4,1.9-1.5,3.6-3,4.8c-1.5,1.1-3.4,1.7-5.3,1.6c-2.5,0.1-4.8-0.9-6.5-2.7c-1.8-2-2.7-4.7-2.5-7.4c0-3.3,0.9-5.9,2.6-7.7
		s4.2-2.8,6.7-2.7c2.2-0.1,4.3,0.7,5.9,2.1c1,1,1.7,2.2,2,3.6l-4,0.9c-0.2-1-0.7-1.8-1.5-2.4c-0.8-0.6-1.7-0.9-2.7-0.9
		c-1.4-0.1-2.7,0.5-3.6,1.6c-1,1.5-1.5,3.3-1.4,5.1c0,2.5,0.5,4.3,1.4,5.4c0.9,1.1,2.1,1.6,3.5,1.6c1,0,2-0.3,2.8-1
		C446.8,186.5,447.4,185.4,447.6,184.2L447.6,184.2z M415,191.5v-19.8h3.9l8.1,13.2v-13.2h3.7v19.8h-4l-8-12.9v12.9H415z M399,170.5
		l2.8-4h3.5l2.8,4h-3l-1.6-2l-1.5,2H399z M396.5,191.5v-19.8h14.7v3.4h-10.7v4.4h10v3.3h-10v5.4h11.1v3.3L396.5,191.5z M388.7,191.5
		v-19.8h4v19.8H388.7z M381.5,184.2l3.9,1.2c-0.4,1.9-1.5,3.6-3,4.8c-1.5,1.1-3.4,1.7-5.3,1.6c-2.5,0.1-4.8-0.9-6.5-2.7
		c-1.8-2-2.7-4.7-2.5-7.4c0-3.3,0.9-5.9,2.6-7.7s4.2-2.8,6.7-2.7c2.2-0.1,4.3,0.7,5.9,2.1c1,1,1.7,2.2,2,3.6l-4,0.9
		c-0.2-1-0.7-1.8-1.5-2.4c-0.8-0.6-1.7-0.9-2.7-0.9c-1.4-0.1-2.7,0.5-3.6,1.6c-1,1.5-1.5,3.3-1.4,5.1c0,2.5,0.5,4.3,1.4,5.4
		c0.9,1.1,2.1,1.6,3.5,1.6c1,0,2-0.3,2.8-1C380.6,186.4,381.2,185.3,381.5,184.2L381.5,184.2z M342.6,191.5v-19.8h14.7v3.4h-10.7
		v4.4h10v3.3h-10v5.4h11.1v3.3L342.6,191.5z M326.6,175v13.1h3c0.8,0,1.6-0.1,2.4-0.2c0.6-0.1,1.1-0.4,1.6-0.8
		c0.5-0.5,0.9-1.2,1-1.9c0.3-1.2,0.5-2.4,0.4-3.6c0.1-1.2-0.1-2.4-0.4-3.5c-0.2-0.7-0.6-1.4-1.1-1.9s-1.2-0.8-1.9-0.9
		c-1.1-0.2-2.2-0.2-3.3-0.2L326.6,175L326.6,175z M322.6,171.6h7.3c1.3-0.1,2.6,0.1,3.8,0.4c1.2,0.3,2.2,0.9,3,1.8
		c0.9,0.9,1.5,2,1.9,3.2c0.4,1.5,0.6,3.1,0.6,4.7c0,1.4-0.2,2.8-0.6,4.2c-0.4,1.3-1.2,2.5-2.1,3.5c-0.8,0.7-1.8,1.3-2.8,1.6
		c-1.1,0.3-2.3,0.4-3.5,0.4h-7.5L322.6,171.6L322.6,171.6z M306.5,183.6l-2.7-7.4l-2.7,7.4H306.5z M313.9,191.5h-4.4l-1.7-4.5h-7.9
		l-1.6,4.5H294l7.7-19.8h4.2L313.9,191.5L313.9,191.5z M280,180h3c1.2,0,2.4,0,3.6-0.2c0.5-0.1,0.9-0.4,1.1-0.8
		c0.3-0.5,0.4-1,0.4-1.5c0-0.6-0.2-1.1-0.5-1.6c-0.4-0.4-0.9-0.7-1.5-0.8c-0.3,0-1.3-0.1-2.9-0.1H280V180L280,180z M276,191.5v-19.8
		h8.4c1.5,0,3.1,0.1,4.6,0.5c1,0.3,1.8,1,2.3,1.9c0.6,0.9,0.9,2,0.9,3.1c0.1,1.4-0.4,2.7-1.3,3.7c-1,1.1-2.4,1.7-3.9,1.8
		c0.8,0.4,1.5,1,2.1,1.7c0.8,1,1.6,2.1,2.3,3.2l2.4,3.9H289l-2.9-4.3c-0.6-1-1.3-2-2.1-2.9c-0.3-0.4-0.7-0.6-1.2-0.8
		c-0.7-0.1-1.3-0.2-2-0.2H280v8.3L276,191.5L276,191.5z M268.2,191.5v-19.8h4v19.8H268.2z M249.8,191.5v-19.8h14.7v3.4h-10.7v4.4h10
		v3.3h-9.9v5.4H265v3.3L249.8,191.5z M233,191.5v-19.8h13.6v3.4H237v4.7h8.3v3.4H237v8.4L233,191.5L233,191.5z"/>
	<path class="st2" d="M687.7,211.5h2.2c0.9,0,1.8,0,2.7-0.2c0.3-0.1,0.6-0.3,0.8-0.6s0.3-0.7,0.3-1.1c0-0.4-0.1-0.9-0.4-1.2
		c-0.3-0.3-0.7-0.5-1.1-0.6c-0.2,0-1-0.1-2.2-0.1h-2.3V211.5z M684.7,219.9v-14.7h6.2c1.1-0.1,2.3,0.1,3.4,0.4
		c0.7,0.3,1.3,0.8,1.7,1.4c0.4,0.7,0.6,1.5,0.6,2.3c0.1,1-0.3,2-1,2.7c-0.8,0.8-1.8,1.3-2.9,1.4c0.6,0.4,1.1,0.8,1.6,1.2
		c0.7,0.7,1.2,1.5,1.7,2.4l1.8,2.9h-3.5l-2.1-3.2c-0.5-0.7-1-1.5-1.6-2.1c-0.2-0.3-0.6-0.5-0.9-0.6c-0.5-0.1-1-0.2-1.5-0.2h-0.6v6.1
		L684.7,219.9L684.7,219.9z M674,207.7v4.2h1.6c0.8,0,1.5,0,2.3-0.2c0.4-0.1,0.7-0.4,0.9-0.7s0.3-0.7,0.3-1.1c0-0.5-0.2-0.9-0.5-1.3
		c-0.3-0.4-0.7-0.6-1.2-0.6c-0.7-0.1-1.4-0.1-2.1-0.1L674,207.7L674,207.7z M671.1,219.9v-14.7h4.7c1.2,0,2.3,0,3.5,0.2
		c0.8,0.2,1.6,0.7,2.1,1.4c0.6,0.8,0.9,1.9,0.8,2.9c0,0.8-0.2,1.6-0.5,2.3c-0.3,0.6-0.7,1.1-1.2,1.4c-0.4,0.4-0.9,0.6-1.5,0.7
		c-1,0.1-2.1,0.2-3.1,0.2H674v5.5L671.1,219.9L671.1,219.9z M658.2,216v-2.8h5.5v2.8H658.2z M646.6,214.1l-2-5.4l-2,5.4H646.6z
		 M652.1,219.9h-3.2l-1.3-3.3h-5.9l-1.2,3.3h-3.1l5.7-14.7h3.1L652.1,219.9z M624.1,219.9v-14.7h2.9l6,9.8v-9.8h2.7v14.7h-3
		l-5.9-9.6v9.6H624.1z M618.3,219.9v-14.7h3v14.7H618.3z M609.2,219.9v-12.2h-4.3v-2.5h11.6v2.5h-4.3v12.2H609.2z M592.4,212.6
		c-0.1,1.4,0.3,2.7,1.2,3.8c0.7,0.9,1.8,1.3,2.9,1.3c1.1,0.1,2.2-0.4,2.9-1.3c0.8-1.1,1.2-2.4,1.1-3.8c0.1-1.4-0.3-2.7-1.1-3.8
		c-0.7-0.8-1.8-1.3-2.9-1.2c-1.1,0-2.2,0.4-3,1.3C592.6,209.9,592.3,211.2,592.4,212.6L592.4,212.6z M589.4,212.7
		c-0.1-1.3,0.2-2.6,0.7-3.8c0.3-0.8,0.8-1.4,1.4-2c0.5-0.6,1.2-1,1.9-1.3c1-0.4,2.1-0.6,3.2-0.6c1.9-0.1,3.8,0.6,5.2,2
		c1.4,1.5,2,3.6,1.9,5.6c0.1,2-0.6,4.1-1.9,5.6c-3,2.7-7.4,2.7-10.4,0C590,216.7,589.2,214.7,589.4,212.7L589.4,212.7z M577.5,219.9
		v-14.5h3v12.1h7.3v2.5L577.5,219.9L577.5,219.9z M570.5,214.1l-2-5.4l-2,5.4H570.5z M575.9,219.9h-3.2l-1.3-3.3h-5.9l-1.2,3.3h-3.1
		l5.7-14.7h3.1L575.9,219.9z M553.5,207.7v4.2h1.6c0.8,0,1.5,0,2.3-0.2c0.4-0.1,0.7-0.4,0.9-0.7s0.3-0.7,0.3-1.1
		c0-0.5-0.2-0.9-0.5-1.3c-0.3-0.4-0.7-0.6-1.2-0.6c-0.7-0.1-1.4-0.1-2.1-0.1L553.5,207.7L553.5,207.7z M550.6,219.9v-14.7h4.8
		c1.2,0,2.3,0,3.5,0.2c0.8,0.2,1.6,0.7,2.1,1.4c0.6,0.8,0.9,1.9,0.8,2.9c0,0.8-0.2,1.6-0.5,2.3c-0.3,0.6-0.7,1.1-1.2,1.4
		c-0.4,0.4-0.9,0.6-1.5,0.7c-1,0.1-2.1,0.2-3.1,0.2h-1.9v5.5L550.6,219.9L550.6,219.9z"/>
	<polygon class="st3" points="152.6,111.2 173.4,111.2 172.3,114.4 151.6,114.4 	"/>
	<g>
		<path class="st2" d="M152.1,101.5c0-5.6,3.6-8.6,12-9.6c-0.2-1.9-1.1-2.5-2.9-2.5c-1.6,0-3.3,0.8-5.6,2.2l-2.8-6.3
			c3.1-2.2,6.4-3.5,9.8-3.5c5.6,0,9.3,3.9,9.3,12.4v14.9h-6.2l-0.6-2.5h-0.3c-1.6,1.9-3.6,3.2-5.9,3.2
			C154.6,109.6,152.1,105.8,152.1,101.5z M164,100.8v-3.5c-3.4,0.4-4.5,1.9-4.5,3.4c-0.1,0.9,0.6,1.7,1.5,1.8c0.1,0,0.3,0,0.4,0
			C162.6,102.4,163.2,101.8,164,100.8L164,100.8z"/>
	</g>
	<g>
		<path class="st2" d="M95.7,83v68.4H76v-36.7c0-5.3-0.1-8.5-0.4-9.5s-1.1-1.9-2.4-2.4s-4.3-0.8-8.8-0.8h-2v-8
			c9.6-1.8,16.8-5.4,21.8-11H95.7z"/>
		<path class="st2" d="M140.5,112.6c3,0.9,5.2,2.3,6.7,4.3c1.5,2,2.2,6.6,2.2,14c0,5.4-0.7,9.7-2.2,12.7c-1.4,3-3.9,5.3-7.4,6.8
			s-8,2.3-13.6,2.3c-6.3,0-11.2-0.9-14.7-2.7c-3.6-1.8-5.9-4-7-6.7s-1.7-7.2-1.7-13.7v-5.4h19.8v11.1c0,3,0.2,4.8,0.6,5.6
			c0.4,0.8,1.3,1.2,2.7,1.2c1.5,0,2.5-0.5,3-1.5s0.7-3.7,0.7-7.9V128c0-2.6-0.3-4.5-1-5.7c-0.7-1.2-1.7-2-3-2.4
			c-1.3-0.4-3.9-0.6-7.8-0.7v-9.9c4.7,0,7.6-0.2,8.7-0.5c1.1-0.3,1.9-1,2.4-2c0.5-1,0.7-2.7,0.7-4.9v-3.8c0-2.4-0.3-4-0.9-4.7
			c-0.6-0.8-1.5-1.1-2.7-1.1c-1.4,0-2.3,0.4-2.8,1.2c-0.5,0.8-0.8,2.5-0.8,5.1v5.6h-19.8v-5.8c0-6.5,1.7-10.9,5.2-13.2
			c3.5-2.3,9-3.4,16.5-3.4c9.4,0,15.8,1.6,19.2,4.8c3.4,3.2,5,7.6,5,13.3c0,3.8-0.6,6.6-1.8,8.3
			C145.7,109.7,143.6,111.2,140.5,112.6z"/>
	</g>
</g>
</svg>
