<svg xmlns="http://www.w3.org/2000/svg" viewBox="0 0 704.65 190.37"><path d="M697.61,80.35H650.23L660.66,58.6c3-6.4,4.47-10.27,4.17-11.91s-2.08-2.39-5.51-2.39c-3.87,0-6.85.9-8.79,2.83s-4.47,6.11-7.45,12.37l-27.86,58.1c-3,6.11-4.32,10.13-4.17,11.92s2.09,2.83,5.81,2.83,6.26-.9,8.2-2.83,4.61-6.26,7.89-13.11l7.45-15.65h47.37l-2.38,4.92c-6.26,13-11.92,22.2-17.13,27.56s-13.41,10.13-24.43,14.3-23.24,6.11-36.65,6.11c-13.85,0-24.58-1.79-31.88-5.21s-11-8.2-11-14.31,3-15.34,8.79-27.56l17.57-36.64a168,168,0,0,1,11-20.26c3.13-4.47,7.89-8.79,14.3-13.11a79.39,79.39,0,0,1,23.24-9.84,114.29,114.29,0,0,1,29-3.57c14,0,24.58,1.94,31.88,5.51q11,5.6,11.17,13.86c.15,5.51-2.53,14.15-8.19,25.92l-5.51,11.91ZM523.46,25.83h79.1l-12.07,25H558.91L547.59,74.54h29.65L565.77,98.38H536.12l-13.26,27.56h34.71l-12.06,25H463.57L523.46,25.83Zm-4.62,0-11.92,25H478.77L430.8,151H383.42l48-100.11h-28l12.07-25Zm-108.16,0-60,125.29H303.28l60-125.29ZM326.22,80.35H278.84L289.27,58.6c3-6.4,4.47-10.27,4.17-11.91s-2.08-2.39-5.51-2.39c-3.87,0-6.85.9-8.79,2.83s-4.47,6.11-7.45,12.37l-27.86,58.1c-3,6.11-4.32,10.13-4.17,11.92s2.09,2.83,5.81,2.83,6.26-.9,8.2-2.83,4.62-6.26,7.89-13.11L269,100.76h47.37L314,105.68c-6.26,13-11.92,22.2-17.13,27.56s-13.41,10.13-24.43,14.3-23.39,6.11-36.65,6.11c-13.85,0-24.58-1.79-31.88-5.21s-11-8.2-11-14.31,3-15.34,8.79-27.56l17.57-36.64a168,168,0,0,1,11-20.26c3.13-4.47,7.89-8.79,14.3-13.11a79.39,79.39,0,0,1,23.24-9.84,114.29,114.29,0,0,1,29.05-3.57c14,0,24.58,1.94,31.88,5.51q11,5.6,11.17,13.86c.15,5.51-2.53,14.15-8.19,25.92l-5.51,11.91Zm-174-54.52h78.95l-11.92,25H187.67L176.35,74.54h29.5L194.38,98.38H164.73l-13.26,27.56h34.86l-12.07,25H92C92.18,151,152.22,25.83,152.22,25.83Zm-85.66,0h80.29l-11.91,25H102L90.69,74.54h29.2L108.42,98.38H79.22L54,151H6.67Z" transform="translate(-6.67 -23.15)"/><path d="M700.79,179.81,697.56,171l-3.23,8.86Zm8.87,9.46h-5.27l-2-5.39h-9.46L691,189.27h-5.15l9.23-23.71h5l9.58,23.71Zm-30.78,0V165.56h4.79v23.71Zm-14.61-8.74v-3.95h10.3V186a11.68,11.68,0,0,1-4.44,2.52,16.41,16.41,0,0,1-5.74,1.07,12.41,12.41,0,0,1-6.47-1.55,10.72,10.72,0,0,1-4.19-4.43,14.13,14.13,0,0,1-1.44-6.35,13.06,13.06,0,0,1,1.56-6.59,10.81,10.81,0,0,1,4.55-4.43,11.5,11.5,0,0,1,5.63-1.2c3,0,5.27.6,6.94,1.92a8.71,8.71,0,0,1,3.24,5.15l-4.79.84a5.06,5.06,0,0,0-1.92-2.76,5.41,5.41,0,0,0-3.47-1,6.65,6.65,0,0,0-5,2,8.59,8.59,0,0,0-1.8,5.87c0,2.87.6,4.91,1.92,6.35a6.11,6.11,0,0,0,4.91,2.15,8.85,8.85,0,0,0,3-.6,9.55,9.55,0,0,0,2.64-1.43v-3l-5.39-.12Zm-32.82-3.23c0,2.63.6,4.67,1.92,6.11a5.79,5.79,0,0,0,4.79,2,6.1,6.1,0,0,0,4.67-2c1.2-1.32,1.8-3.48,1.8-6.23s-.6-4.79-1.8-6.11a6.64,6.64,0,0,0-9.58,0,9.86,9.86,0,0,0-1.8,6.23Zm-4.91.24a15.46,15.46,0,0,1,1.08-6.11,14.93,14.93,0,0,1,2.16-3.23,9,9,0,0,1,3.11-2.16,13.59,13.59,0,0,1,5.15-1,11.07,11.07,0,0,1,8.38,3.24c2.16,2.15,3.12,5.15,3.12,9.1s-1.08,6.82-3.12,9a11.07,11.07,0,0,1-8.38,3.23c-3.59,0-6.35-1.07-8.38-3.23s-3.12-5.15-3.12-8.86Zm-19.16,11.73V165.68h4.79V185.2h12v4l-16.77.12Zm-22-12c0,2.63.6,4.67,1.92,6.11a5.79,5.79,0,0,0,4.79,2,6.08,6.08,0,0,0,4.67-2c1.2-1.32,1.8-3.48,1.8-6.23s-.6-4.79-1.8-6.11a6.64,6.64,0,0,0-9.58,0,9.86,9.86,0,0,0-1.8,6.23Zm-4.91.24a15.46,15.46,0,0,1,1.08-6.11,14.93,14.93,0,0,1,2.16-3.23,9.1,9.1,0,0,1,3.11-2.16,13.59,13.59,0,0,1,5.15-1,11.07,11.07,0,0,1,8.38,3.24c2.16,2.15,3.12,5.15,3.12,9.1s-1.08,6.82-3.12,9a11.07,11.07,0,0,1-8.38,3.23c-3.59,0-6.35-1.07-8.38-3.23a12.47,12.47,0,0,1-3.12-8.86Zm-22.87,11.73V165.56h4.67l9.7,15.81V165.56h4.43v23.71h-4.79L562,173.82v15.45Zm-8.86-8.74,4.67,1.44a10,10,0,0,1-3.6,5.75,9.8,9.8,0,0,1-6.34,1.91,10.29,10.29,0,0,1-7.79-3.23c-2-2.16-3-5.15-3-8.86,0-3.95,1-7.07,3.11-9.22a10.47,10.47,0,0,1,8-3.24,10,10,0,0,1,7.06,2.52,8.83,8.83,0,0,1,2.4,4.31L548.46,173a4.61,4.61,0,0,0-1.8-2.88,5,5,0,0,0-3.23-1.08,5.22,5.22,0,0,0-4.31,1.92c-1.08,1.32-1.68,3.35-1.68,6.11,0,3,.6,5.15,1.56,6.47a5.16,5.16,0,0,0,4.19,1.91,4.81,4.81,0,0,0,3.35-1.2A5.71,5.71,0,0,0,548.7,180.53Zm-37.25,8.74V165.56h17.61v4.07H516.24v5.27h12v3.95h-12v6.47h13.29v4Zm-15,0V169.51h-7.07v-4.07h18.93v4.07h-7.07v19.76Zm-36.65,0V165.56h17.61v4.07H464.62v5.27h12v3.95h-12v6.47h13.3v4Zm-19.4-9.46L437.2,171,434,179.81Zm8.86,9.46H444l-2-5.39h-9.46l-1.92,5.39h-5.15l9.22-23.71h5l9.58,23.71Zm-30.77,0V165.56h4.79v23.71Zm-8.63-8.74,4.67,1.44a10,10,0,0,1-3.59,5.75,9.83,9.83,0,0,1-6.35,1.91,10.27,10.27,0,0,1-7.78-3.23c-2-2.16-3-5.15-3-8.86,0-3.95,1.08-7.07,3.12-9.22a10.44,10.44,0,0,1,8-3.24,10,10,0,0,1,7.07,2.52,8.82,8.82,0,0,1,2.39,4.31L409.65,173a4.64,4.64,0,0,0-1.79-2.88,4.8,4.8,0,0,0-3.24-1.08,5.24,5.24,0,0,0-4.31,1.92c-1.08,1.32-1.68,3.35-1.68,6.11,0,3,.6,5.15,1.68,6.47a5.19,5.19,0,0,0,4.19,1.91,4.82,4.82,0,0,0,3.36-1.2,6.19,6.19,0,0,0,2-3.71Zm-39,8.74V165.56h4.67l9.7,15.81V165.56h4.43v23.71h-4.79l-9.58-15.45v15.45Zm-19.16-25.15,3.35-4.79h4.19l3.36,4.79H359l-1.91-2.39-1.8,2.39Zm-3,25.15V165.56H366.3v4.07H353.48v5.27h12v3.95h-12v6.47h13.3v4Zm-9.34,0V165.56h4.79v23.71Zm-8.62-8.74L335.4,182a10,10,0,0,1-3.59,5.75,9.83,9.83,0,0,1-6.35,1.91,10.27,10.27,0,0,1-7.78-3.23c-2-2.16-3-5.15-3-8.86,0-3.95,1.08-7.07,3.12-9.22a10.44,10.44,0,0,1,8-3.24,10,10,0,0,1,7.07,2.52,8.9,8.9,0,0,1,2.39,4.31L330.49,173a4.61,4.61,0,0,0-1.8-2.88,4.76,4.76,0,0,0-3.23-1.08,5.23,5.23,0,0,0-4.31,1.92c-1.08,1.32-1.68,3.35-1.68,6.11,0,3,.6,5.15,1.68,6.47a5.18,5.18,0,0,0,4.19,1.91,4.78,4.78,0,0,0,3.35-1.2,6.82,6.82,0,0,0,2-3.71Zm-46.59,8.74V165.56h17.61v4.07H288.93v5.27h12v3.95h-12v6.47h13.3v4ZM265,169.51V185.2h3.59a15,15,0,0,0,2.88-.24,4.72,4.72,0,0,0,1.91-1,4.45,4.45,0,0,0,1.2-2.27,14.26,14.26,0,0,0,.48-4.31,12.87,12.87,0,0,0-.48-4.19,5.21,5.21,0,0,0-1.32-2.28,3.66,3.66,0,0,0-2.27-1.08,24.65,24.65,0,0,0-4-.24l-2-.12Zm-4.79-4.07h8.74a15.42,15.42,0,0,1,4.55.48,7,7,0,0,1,3.6,2.16,10.21,10.21,0,0,1,2.27,3.83,18.89,18.89,0,0,1,.72,5.63,15.93,15.93,0,0,1-.72,5,11.37,11.37,0,0,1-2.51,4.19,8.26,8.26,0,0,1-3.36,1.92,14.19,14.19,0,0,1-4.19.47h-9l-.12-23.71Zm-19.28,14.37L237.68,171l-3.24,8.86Zm8.86,9.46H244.5l-2-5.39H233l-1.91,5.39h-5.15l9.22-23.71h5l9.58,23.71Zm-40.6-13.77h3.59a26.89,26.89,0,0,0,4.32-.24,1.86,1.86,0,0,0,1.31-1,3.93,3.93,0,0,0,.48-1.79,3.05,3.05,0,0,0-.6-1.92,3.27,3.27,0,0,0-1.79-1c-.36,0-1.56-.12-3.48-.12h-3.83v6Zm-4.79,13.77V165.56h10.06a19.94,19.94,0,0,1,5.51.6,5.07,5.07,0,0,1,2.75,2.28,6.41,6.41,0,0,1,1.08,3.71,6.31,6.31,0,0,1-1.55,4.43,7.16,7.16,0,0,1-4.67,2.16,8.79,8.79,0,0,1,2.51,2,29.62,29.62,0,0,1,2.75,3.83l2.88,4.67H220l-3.47-5.15a30.59,30.59,0,0,0-2.52-3.47,3.4,3.4,0,0,0-1.43-1,10.5,10.5,0,0,0-2.4-.24h-1v9.94l-4.79-.12Zm-9.34,0V165.56h4.79v23.71Zm-22,0V165.56h17.61v4.07H177.79v5.27h12v3.95H177.91v6.47h13.3v4Zm-20.12,0V165.56h16.29v4.07h-11.5v5.63h9.94v4.07h-9.94v10.06l-4.79-.12Z" transform="translate(-6.67 -23.15)"/><path d="M698.05,202.5h2.79a16.43,16.43,0,0,0,3.42-.25,2,2,0,0,0,1-.76,2.5,2.5,0,0,0,.38-1.39,2,2,0,0,0-.5-1.52,2.46,2.46,0,0,0-1.4-.76c-.25,0-1.26-.13-2.78-.13h-2.92Zm-3.8,10.64V194.52h7.86a11.89,11.89,0,0,1,4.3.51,4.26,4.26,0,0,1,2.16,1.77,5.65,5.65,0,0,1,.76,2.92,4.58,4.58,0,0,1-1.27,3.42,6.33,6.33,0,0,1-3.67,1.77,13.6,13.6,0,0,1,2,1.52,16.16,16.16,0,0,1,2.16,3l2.27,3.67h-4.43l-2.66-4a18.19,18.19,0,0,0-2-2.66,3,3,0,0,0-1.14-.76,6.12,6.12,0,0,0-1.9-.25h-.76v7.72ZM680.7,197.69V203h2a12.87,12.87,0,0,0,2.91-.25,2,2,0,0,0,1.14-.89,2.59,2.59,0,0,0,.38-1.39,2.4,2.4,0,0,0-.63-1.65,1.8,1.8,0,0,0-1.52-.76,12.84,12.84,0,0,0-2.66-.13l-1.65-.25ZM677,213.14V194.52h6a26.81,26.81,0,0,1,4.43.26,5.15,5.15,0,0,1,2.66,1.77,5.51,5.51,0,0,1,1,3.67,7.08,7.08,0,0,1-.64,2.92,4.16,4.16,0,0,1-1.52,1.77,4.27,4.27,0,0,1-1.9.89,28.37,28.37,0,0,1-3.92.25H680.7v7l-3.67.12Zm-16.34-4.94v-3.54h7v3.54ZM646,205.8,643.47,199l-2.54,6.84Zm7,7.34h-4.06L647.27,209h-7.48l-1.52,4.18h-3.92l7.22-18.62h3.92Zm-35.47,0V194.52h3.68l7.6,12.42V194.52h3.42v18.62h-3.8L620.92,201v12.16Zm-7.34,0V194.52H614v18.62Zm-11.53,0V197.69h-5.44v-3.17h14.69v3.17h-5.45v15.45Zm-21.27-9.24a6.82,6.82,0,0,0,1.52,4.81,4.56,4.56,0,0,0,3.67,1.65,4.39,4.39,0,0,0,3.67-1.65c1-1.14,1.39-2.66,1.39-4.81a7.5,7.5,0,0,0-1.39-4.82,4.68,4.68,0,0,0-3.67-1.52,4.82,4.82,0,0,0-3.8,1.65c-.89.89-1.39,2.53-1.39,4.69Zm-3.8.12a11,11,0,0,1,.88-4.81,7.1,7.1,0,0,1,1.78-2.53,7.48,7.48,0,0,1,2.4-1.65,10,10,0,0,1,4.06-.76,8.9,8.9,0,0,1,6.58,2.53c1.65,1.65,2.41,4.06,2.41,7.1a9.81,9.81,0,0,1-2.41,7.09,9.83,9.83,0,0,1-13.17,0c-1.77-1.65-2.53-4.05-2.53-7Zm-15.07,9.12V194.78h3.79V210.1h9.25v3.17l-13-.13Zm-8.87-7.34L547.09,199l-2.54,6.84Zm6.84,7.34h-4.05L550.76,209h-7.47l-1.52,4.18h-3.93l7.22-18.62H549Zm-28.37-15.45V203h2a12.94,12.94,0,0,0,2.91-.25,2,2,0,0,0,1.14-.89,2.59,2.59,0,0,0,.38-1.39,2.4,2.4,0,0,0-.63-1.65,1.8,1.8,0,0,0-1.52-.76,12.89,12.89,0,0,0-2.66-.13l-1.65-.25Zm-3.67,15.45V194.52h6.08a26.81,26.81,0,0,1,4.43.26,5.19,5.19,0,0,1,2.66,1.77,5.5,5.5,0,0,1,1,3.67,7.08,7.08,0,0,1-.63,2.92,4.23,4.23,0,0,1-1.52,1.77,4.37,4.37,0,0,1-1.9.89,28.54,28.54,0,0,1-3.93.25h-2.4v7l-3.8.12Z" transform="translate(-6.67 -23.15)"/></svg>