<svg xmlns="http://www.w3.org/2000/svg" viewBox="0 0 710.28 223.01"><defs><style>.a,.b,.d{fill:#fff;}.b{fill-rule:evenodd;}.c{isolation:isolate;}.d{font-size:120.5px;font-family:Arial-Black, Arial;font-weight:800;letter-spacing:-0.2em;}</style></defs><path class="a" d="M701.1,113.8H669.3l7-14.6c2-4.3,3-6.9,2.8-8s-1.4-1.6-3.7-1.6c-2.6,0-4.6.6-5.9,1.9s-3,4.1-5,8.3l-18.7,39c-2,4.1-2.9,6.8-2.8,8s1.4,1.9,3.9,1.9a7.36,7.36,0,0,0,5.5-1.9c1.3-1.2,3.1-4.2,5.3-8.8l5-10.5h31.8l-1.6,3.3c-4.2,8.7-8,14.9-11.5,18.5s-9,6.8-16.4,9.6a69,69,0,0,1-24.6,4.1c-9.3,0-16.5-1.2-21.4-3.5s-7.4-5.5-7.4-9.6,2-10.3,5.9-18.5l11.8-24.6a113.06,113.06,0,0,1,7.4-13.6,36.24,36.24,0,0,1,9.6-8.8,53.14,53.14,0,0,1,15.6-6.6,76.6,76.6,0,0,1,19.5-2.4c9.4,0,16.5,1.3,21.4,3.7s7.4,5.6,7.5,9.3-1.7,9.5-5.5,17.4l-3.7,8ZM584.2,77.2h53.1L629.2,94H608l-7.6,15.9h19.9l-7.7,16H592.7l-8.9,18.5h23.3L599,161.2H544l40.2-84Zm-3.1,0-8,16.8H554.2L522,161.2H490.2L522.4,94H503.6l8.1-16.8Zm-72.6,0-40.3,84.1H436.4l40.3-84.1Zm-56.7,36.6H420l7-14.6c2-4.3,3-6.9,2.8-8s-1.4-1.6-3.7-1.6c-2.6,0-4.6.6-5.9,1.9s-3,4.1-5,8.3l-18.7,39c-2,4.1-2.9,6.8-2.8,8s1.4,1.9,3.9,1.9a7.36,7.36,0,0,0,5.5-1.9c1.3-1.2,3.1-4.2,5.3-8.8l5-10.5h31.8l-1.6,3.3c-4.2,8.7-8,14.9-11.5,18.5s-9,6.8-16.4,9.6a69.41,69.41,0,0,1-24.6,4.1c-9.3,0-16.5-1.2-21.4-3.5s-7.4-5.5-7.4-9.6,2-10.3,5.9-18.5L380,106.8a113.06,113.06,0,0,1,7.4-13.6,36.24,36.24,0,0,1,9.6-8.8,53.14,53.14,0,0,1,15.6-6.6,76.6,76.6,0,0,1,19.5-2.4c9.4,0,16.5,1.3,21.4,3.7s7.4,5.6,7.5,9.3-1.7,9.5-5.5,17.4l-3.7,8ZM335,77.2h53L380,94H358.8l-7.6,15.9H371l-7.7,16H343.4l-8.9,18.5h23.4l-8.1,16.8H294.6C294.7,161.2,335,77.2,335,77.2Zm-57.5,0h53.9l-8,16.8H301.3l-7.6,15.9h19.6l-7.7,16H286l-16.9,35.3H237.3Z" transform="translate(-0.03 -7.04)"/><path class="b" d="M105.5,53.3c59.8-12.4,113.9,4.9,120.9,38.6s-35.9,71-95.7,83.4S16.8,170.4,9.8,136.7s35.9-71,95.7-83.4m-.7-3.4C169.6,36.5,228.1,54.5,235.5,90s-39.3,75.2-104.1,88.6S8.1,174.1.8,138.6,40,63.3,104.8,49.9Z" transform="translate(-0.03 -7.04)"/><path class="b" d="M172.9,91.1c26.9,54.8,23.7,111.5-7.2,126.7S88,200.8,61.1,146,37.5,34.4,68.3,19.3s77.7,17,104.6,71.8m3.1-1.5c29.1,59.4,26.4,120.6-6.2,136.6S87.2,206.9,58,147.5,31.6,26.9,64.2,10.9,146.9,30.1,176,89.6Z" transform="translate(-0.03 -7.04)"/><path class="b" d="M63.3,91.1c-26.9,54.8-23.7,111.5,7.2,126.7s77.7-17,104.6-71.8,23.7-111.5-7.2-126.7S90.2,36.3,63.3,91.1m-3.1-1.5C31,149,33.8,210.2,66.4,226.1s82.7-19.2,111.8-78.7S204.6,26.9,172,10.9,89.3,30.1,60.2,89.6Z" transform="translate(-0.03 -7.04)"/><path class="a" d="M690.5,190.6l-2.7-7.4-2.7,7.4Zm7.4,7.9h-4.4l-1.7-4.5h-7.9l-1.6,4.5H678l7.7-19.8h4.2l8,19.8Zm-25.7,0V178.7h4v19.8ZM660,191.2v-3.3h8.6v7.9a9.74,9.74,0,0,1-3.7,2.1,13.59,13.59,0,0,1-4.8.9,10.29,10.29,0,0,1-5.4-1.3,8.92,8.92,0,0,1-3.5-3.7,11.78,11.78,0,0,1-1.2-5.3,10.92,10.92,0,0,1,1.3-5.5,9,9,0,0,1,3.8-3.7,9.62,9.62,0,0,1,4.7-1,9.1,9.1,0,0,1,5.8,1.6,7.28,7.28,0,0,1,2.7,4.3l-4,.7a4.22,4.22,0,0,0-1.6-2.3,4.52,4.52,0,0,0-2.9-.8,5.57,5.57,0,0,0-4.2,1.7,7.18,7.18,0,0,0-1.5,4.9c0,2.4.5,4.1,1.6,5.3a5.1,5.1,0,0,0,4.1,1.8,7.42,7.42,0,0,0,2.5-.5,7.76,7.76,0,0,0,2.2-1.2v-2.5l-4.5-.1Zm-27.4-2.7a7.26,7.26,0,0,0,1.6,5.1,4.82,4.82,0,0,0,4,1.7,5.07,5.07,0,0,0,3.9-1.7c1-1.1,1.5-2.9,1.5-5.2s-.5-4-1.5-5.1a5.56,5.56,0,0,0-8,0,8.24,8.24,0,0,0-1.5,5.2Zm-4.1.2a12.93,12.93,0,0,1,.9-5.1,12.71,12.71,0,0,1,1.8-2.7,7.61,7.61,0,0,1,2.6-1.8,11.37,11.37,0,0,1,4.3-.8,9.27,9.27,0,0,1,7,2.7c1.8,1.8,2.6,4.3,2.6,7.6a10.51,10.51,0,0,1-2.6,7.5,9.27,9.27,0,0,1-7,2.7,9.12,9.12,0,0,1-7-2.7c-1.8-1.8-2.6-4.3-2.6-7.4Zm-16,9.8V178.8h4v16.3h10v3.3l-14,.1Zm-18.4-10a7.26,7.26,0,0,0,1.6,5.1,4.82,4.82,0,0,0,4,1.7,5.07,5.07,0,0,0,3.9-1.7c1-1.1,1.5-2.9,1.5-5.2s-.5-4-1.5-5.1a5.56,5.56,0,0,0-8,0,8.24,8.24,0,0,0-1.5,5.2Zm-4.1.2a12.93,12.93,0,0,1,.9-5.1,12.71,12.71,0,0,1,1.8-2.7,7.61,7.61,0,0,1,2.6-1.8,11.37,11.37,0,0,1,4.3-.8,9.27,9.27,0,0,1,7,2.7c1.8,1.8,2.6,4.3,2.6,7.6a10.51,10.51,0,0,1-2.6,7.5,9.27,9.27,0,0,1-7,2.7,9.12,9.12,0,0,1-7-2.7,10.42,10.42,0,0,1-2.6-7.4Zm-19.1,9.8V178.7h3.9l8.1,13.2V178.7h3.7v19.8h-4l-8-12.9v12.9Zm-7.4-7.3,3.9,1.2a8.32,8.32,0,0,1-3,4.8,8.17,8.17,0,0,1-5.3,1.6,8.6,8.6,0,0,1-6.5-2.7,10.37,10.37,0,0,1-2.5-7.4c0-3.3.8-5.9,2.6-7.7a8.74,8.74,0,0,1,6.7-2.7,8.35,8.35,0,0,1,5.9,2.1,7.39,7.39,0,0,1,2,3.6l-4,.9a3.84,3.84,0,0,0-1.5-2.4,4.19,4.19,0,0,0-2.7-.9,4.38,4.38,0,0,0-3.6,1.6,8,8,0,0,0-1.4,5.1,9.29,9.29,0,0,0,1.3,5.4,4.31,4.31,0,0,0,3.5,1.6,4,4,0,0,0,2.8-1A4.8,4.8,0,0,0,563.5,191.2Zm-31.1,7.3V178.7h14.7v3.4H536.4v4.4h10v3.3h-10v5.4h11.1v3.3Zm-12.5,0V182H514v-3.4h15.8V182h-5.9v16.5Zm-30.6,0V178.7H504v3.4H493.3v4.4h10v3.3h-10v5.4h11.1v3.3Zm-16.2-7.9-2.7-7.4-2.7,7.4Zm7.4,7.9h-4.4l-1.7-4.5h-7.9l-1.6,4.5h-4.3l7.7-19.8h4.2l8,19.8Zm-25.7,0V178.7h4v19.8Zm-7.2-7.3,3.9,1.2a8.32,8.32,0,0,1-3,4.8,8.17,8.17,0,0,1-5.3,1.6,8.6,8.6,0,0,1-6.5-2.7,10.37,10.37,0,0,1-2.5-7.4c0-3.3.9-5.9,2.6-7.7a8.74,8.74,0,0,1,6.7-2.7,8.35,8.35,0,0,1,5.9,2.1,7.39,7.39,0,0,1,2,3.6l-4,.9a3.84,3.84,0,0,0-1.5-2.4,4,4,0,0,0-2.7-.9,4.38,4.38,0,0,0-3.6,1.6,8,8,0,0,0-1.4,5.1c0,2.5.5,4.3,1.4,5.4a4.31,4.31,0,0,0,3.5,1.6,4,4,0,0,0,2.8-1,5.17,5.17,0,0,0,1.7-3.1ZM415,198.5V178.7h3.9l8.1,13.2V178.7h3.7v19.8h-4l-8-12.9v12.9Zm-16-21,2.8-4h3.5l2.8,4h-3l-1.6-2-1.5,2Zm-2.5,21V178.7h14.7v3.4H400.5v4.4h10v3.3h-10v5.4h11.1v3.3Zm-7.8,0V178.7h4v19.8Zm-7.2-7.3,3.9,1.2a8.32,8.32,0,0,1-3,4.8,8.17,8.17,0,0,1-5.3,1.6,8.6,8.6,0,0,1-6.5-2.7,10.37,10.37,0,0,1-2.5-7.4c0-3.3.9-5.9,2.6-7.7a8.74,8.74,0,0,1,6.7-2.7,8.35,8.35,0,0,1,5.9,2.1,7.39,7.39,0,0,1,2,3.6l-4,.9a3.84,3.84,0,0,0-1.5-2.4,4,4,0,0,0-2.7-.9,4.38,4.38,0,0,0-3.6,1.6,8,8,0,0,0-1.4,5.1c0,2.5.5,4.3,1.4,5.4a4.31,4.31,0,0,0,3.5,1.6,4,4,0,0,0,2.8-1,5.74,5.74,0,0,0,1.7-3.1Zm-38.9,7.3V178.7h14.7v3.4H346.6v4.4h10v3.3h-10v5.4h11.1v3.3Zm-16-16.5v13.1h3a12.53,12.53,0,0,0,2.4-.2,4,4,0,0,0,1.6-.8,3.77,3.77,0,0,0,1-1.9,11.91,11.91,0,0,0,.4-3.6,10.81,10.81,0,0,0-.4-3.5,4.34,4.34,0,0,0-1.1-1.9,3.1,3.1,0,0,0-1.9-.9,20.59,20.59,0,0,0-3.3-.2l-1.7-.1Zm-4-3.4h7.3a12.94,12.94,0,0,1,3.8.4,5.8,5.8,0,0,1,3,1.8,8.52,8.52,0,0,1,1.9,3.2,15.8,15.8,0,0,1,.6,4.7,13.3,13.3,0,0,1-.6,4.2,9.35,9.35,0,0,1-2.1,3.5,6.88,6.88,0,0,1-2.8,1.6,11.61,11.61,0,0,1-3.5.4h-7.5l-.1-19.8Zm-16.1,12-2.7-7.4-2.7,7.4Zm7.4,7.9h-4.4l-1.7-4.5h-7.9l-1.6,4.5H294l7.7-19.8h4.2l8,19.8ZM280,187h3a22.4,22.4,0,0,0,3.6-.2,1.55,1.55,0,0,0,1.1-.8,3.31,3.31,0,0,0,.4-1.5,2.54,2.54,0,0,0-.5-1.6,2.75,2.75,0,0,0-1.5-.8c-.3,0-1.3-.1-2.9-.1H280v5Zm-4,11.5V178.7h8.4a16.69,16.69,0,0,1,4.6.5,4.27,4.27,0,0,1,2.3,1.9,5.38,5.38,0,0,1,.9,3.1,5.24,5.24,0,0,1-1.3,3.7,6,6,0,0,1-3.9,1.8,7.41,7.41,0,0,1,2.1,1.7,25,25,0,0,1,2.3,3.2l2.4,3.9H289l-2.9-4.3a25.06,25.06,0,0,0-2.1-2.9,2.8,2.8,0,0,0-1.2-.8,8.75,8.75,0,0,0-2-.2H280v8.3l-4-.1Zm-7.8,0V178.7h4v19.8Zm-18.4,0V178.7h14.7v3.4H253.8v4.4h10v3.3h-9.9v5.4H265v3.3Zm-16.8,0V178.7h13.6v3.4H237v4.7h8.3v3.4H237v8.4l-4-.1Z" transform="translate(-0.03 -7.04)"/><path class="a" d="M687.7,218.5h2.2a13.05,13.05,0,0,0,2.7-.2,1.56,1.56,0,0,0,.8-.6,2,2,0,0,0,.3-1.1,1.59,1.59,0,0,0-.4-1.2,2,2,0,0,0-1.1-.6c-.2,0-1-.1-2.2-.1h-2.3Zm-3,8.4V212.2h6.2a9.43,9.43,0,0,1,3.4.4A3.33,3.33,0,0,1,696,214a4.38,4.38,0,0,1,.6,2.3,3.62,3.62,0,0,1-1,2.7,5,5,0,0,1-2.9,1.4,11.09,11.09,0,0,1,1.6,1.2A12.71,12.71,0,0,1,696,224l1.8,2.9h-3.5l-2.1-3.2a14.44,14.44,0,0,0-1.6-2.1,2.36,2.36,0,0,0-.9-.6,4.87,4.87,0,0,0-1.5-.2h-.6v6.1ZM674,214.7v4.2h1.6a9.86,9.86,0,0,0,2.3-.2,1.6,1.6,0,0,0,.9-.7,2,2,0,0,0,.3-1.1,1.9,1.9,0,0,0-.5-1.3,1.43,1.43,0,0,0-1.2-.6,10.41,10.41,0,0,0-2.1-.1l-1.3-.2Zm-2.9,12.2V212.2h4.7a21.78,21.78,0,0,1,3.5.2,4.12,4.12,0,0,1,2.1,1.4,4.35,4.35,0,0,1,.8,2.9,5.56,5.56,0,0,1-.5,2.3,3.33,3.33,0,0,1-1.2,1.4,3.4,3.4,0,0,1-1.5.7,21.61,21.61,0,0,1-3.1.2H674v5.5l-2.9.1ZM658.2,223v-2.8h5.5V223Zm-11.6-1.9-2-5.4-2,5.4Zm5.5,5.8h-3.2l-1.3-3.3h-5.9l-1.2,3.3h-3.1l5.7-14.7h3.1Zm-28,0V212.2H627l6,9.8v-9.8h2.7v14.7h-3l-5.9-9.6v9.6Zm-5.8,0V212.2h3v14.7Zm-9.1,0V214.7h-4.3v-2.5h11.6v2.5h-4.3v12.2Zm-16.8-7.3a5.41,5.41,0,0,0,1.2,3.8,3.6,3.6,0,0,0,2.9,1.3,3.47,3.47,0,0,0,2.9-1.3,5.4,5.4,0,0,0,1.1-3.8,5.93,5.93,0,0,0-1.1-3.8,3.7,3.7,0,0,0-2.9-1.2,3.8,3.8,0,0,0-3,1.3,5.27,5.27,0,0,0-1.1,3.7Zm-3,.1a8.61,8.61,0,0,1,.7-3.8,5.58,5.58,0,0,1,1.4-2,5.86,5.86,0,0,1,1.9-1.3,7.94,7.94,0,0,1,3.2-.6,7,7,0,0,1,5.2,2,7.61,7.61,0,0,1,1.9,5.6,7.77,7.77,0,0,1-1.9,5.6,7.76,7.76,0,0,1-10.4,0,7.18,7.18,0,0,1-2-5.5Zm-11.9,7.2V212.4h3v12.1h7.3V227l-10.3-.1Zm-7-5.8-2-5.4-2,5.4Zm5.4,5.8h-3.2l-1.3-3.3h-5.9l-1.2,3.3h-3.1l5.7-14.7H570Zm-22.4-12.2v4.2h1.6a9.86,9.86,0,0,0,2.3-.2,1.6,1.6,0,0,0,.9-.7,2,2,0,0,0,.3-1.1,1.9,1.9,0,0,0-.5-1.3,1.43,1.43,0,0,0-1.2-.6,10.41,10.41,0,0,0-2.1-.1l-1.3-.2Zm-2.9,12.2V212.2h4.8a21.78,21.78,0,0,1,3.5.2,4.12,4.12,0,0,1,2.1,1.4,4.35,4.35,0,0,1,.8,2.9,5.56,5.56,0,0,1-.5,2.3,3.33,3.33,0,0,1-1.2,1.4,3.4,3.4,0,0,1-1.5.7,21.61,21.61,0,0,1-3.1.2h-1.9v5.5l-3,.1Z" transform="translate(-0.03 -7.04)"/><polygon class="b" points="140.37 109.66 173.37 109.66 171.67 113.06 138.77 113.06 140.37 109.66"/><g class="c"><path class="a" d="M142.23,104.5c0-7.5,4.7-11.6,15.76-12.9-.23-2.5-1.41-3.4-3.76-3.4-2.12,0-4.35,1.1-7.41,3l-3.65-8.4c4.12-3,8.47-4.7,12.94-4.7,7.41,0,12.23,5.2,12.23,16.6v20h-8.23l-.82-3.4h-.36c-2.11,2.6-4.7,4.3-7.76,4.3C145.52,115.4,142.23,110.3,142.23,104.5Zm15.76-.9V98.9c-4.47.6-5.88,2.6-5.88,4.5a2.19,2.19,0,0,0,2.47,2.4C156.11,105.8,156.93,104.9,158,103.6Z" transform="translate(-0.03 -7.04)"/></g><text class="d" transform="translate(53.8 158.29) scale(0.71 1)">11</text></svg>