<?xml version="1.0" encoding="utf-8"?>
<!-- Generator: Adobe Illustrator 24.0.1, SVG Export Plug-In . SVG Version: 6.00 Build 0)  -->
<svg version="1.1" id="Layer_1" xmlns="http://www.w3.org/2000/svg" xmlns:xlink="http://www.w3.org/1999/xlink" x="0px" y="0px"
	 viewBox="0 0 715 230" style="enable-background:new 0 0 715 230;" xml:space="preserve">
<style type="text/css">
	.st0{fill:#FFFFFF;}
	.st1{fill-rule:evenodd;clip-rule:evenodd;fill:#FFFFFF;}
	.st2{enable-background:new    ;}
</style>
<g id="Layer_2">
</g>
<g id="Layer_2_1_">
</g>
<g id="Camada_1" xmlns:cc="http://creativecommons.org/ns#" xmlns:dc="http://purl.org/dc/elements/1.1/" xmlns:inkscape="http://www.inkscape.org/namespaces/inkscape" xmlns:rdf="http://www.w3.org/1999/02/22-rdf-syntax-ns#" xmlns:sodipodi="http://sodipodi.sourceforge.net/DTD/sodipodi-0.dtd" xmlns:svg="http://www.w3.org/2000/svg">
	<g id="Camada_2">
	</g>
	
		<sodipodi:namedview  bordercolor="#666666" borderopacity="1" gridtolerance="10" guidetolerance="10" id="namedview25" inkscape:current-layer="Camada_1" inkscape:cx="-631.807" inkscape:cy="680.315" inkscape:pageopacity="0" inkscape:pageshadow="2" inkscape:window-height="1007" inkscape:window-maximized="1" inkscape:window-width="1920" inkscape:window-x="0" inkscape:window-y="27" inkscape:zoom="0.17344906" objecttolerance="10" pagecolor="#ffffff" showgrid="false">
		</sodipodi:namedview>
	<path id="path5" inkscape:connector-curvature="0" class="st0" d="M701.1,113.8h-31.8l7-14.6c2-4.3,3-6.9,2.8-8s-1.4-1.6-3.7-1.6
		c-2.6,0-4.6,0.6-5.9,1.9c-1.3,1.3-3,4.1-5,8.3l-18.7,39c-2,4.1-2.9,6.8-2.8,8c0.1,1.3,1.4,1.9,3.9,1.9c2.4,0,4.2-0.6,5.5-1.9
		c1.3-1.2,3.1-4.2,5.3-8.8l5-10.5h31.8l-1.6,3.3c-4.2,8.7-8,14.9-11.5,18.5s-9,6.8-16.4,9.6s-15.6,4.1-24.6,4.1
		c-9.3,0-16.5-1.2-21.4-3.5s-7.4-5.5-7.4-9.6s2-10.3,5.9-18.5l11.8-24.6c2.9-6.1,5.4-10.6,7.4-13.6c2.1-3,5.3-5.9,9.6-8.8
		c4.3-2.8,9.5-5,15.6-6.6s12.6-2.4,19.5-2.4c9.4,0,16.5,1.3,21.4,3.7c4.9,2.5,7.4,5.6,7.5,9.3c0.1,3.7-1.7,9.5-5.5,17.4L701.1,113.8
		L701.1,113.8z M584.2,77.2h53.1L629.2,94H608l-7.6,15.9h19.9l-7.7,16h-19.9l-8.9,18.5h23.3l-8.1,16.8h-55L584.2,77.2L584.2,77.2z
		 M581.1,77.2l-8,16.8h-18.9L522,161.2h-31.8L522.4,94h-18.8l8.1-16.8H581.1L581.1,77.2z M508.5,77.2l-40.3,84.1h-31.8l40.3-84.1
		C476.7,77.2,508.5,77.2,508.5,77.2z M451.8,113.8H420l7-14.6c2-4.3,3-6.9,2.8-8s-1.4-1.6-3.7-1.6c-2.6,0-4.6,0.6-5.9,1.9
		s-3,4.1-5,8.3l-18.7,39c-2,4.1-2.9,6.8-2.8,8c0.1,1.3,1.4,1.9,3.9,1.9c2.4,0,4.2-0.6,5.5-1.9c1.3-1.2,3.1-4.2,5.3-8.8l5-10.5h31.8
		l-1.6,3.3c-4.2,8.7-8,14.9-11.5,18.5s-9,6.8-16.4,9.6S400,163,391.1,163c-9.3,0-16.5-1.2-21.4-3.5s-7.4-5.5-7.4-9.6
		s2-10.3,5.9-18.5l11.8-24.6c2.9-6.1,5.4-10.6,7.4-13.6c2.1-3,5.3-5.9,9.6-8.8c4.3-2.8,9.5-5,15.6-6.6s12.6-2.4,19.5-2.4
		c9.4,0,16.5,1.3,21.4,3.7c4.9,2.5,7.4,5.6,7.5,9.3c0.1,3.7-1.7,9.5-5.5,17.4L451.8,113.8L451.8,113.8z M335,77.2h53L380,94h-21.2
		l-7.6,15.9H371l-7.7,16h-19.9l-8.9,18.5h23.4l-8.1,16.8h-55.2C294.7,161.2,335,77.2,335,77.2z M277.5,77.2h53.9l-8,16.8h-22.1
		l-7.6,15.9h19.6l-7.7,16H286l-16.9,35.3h-31.8L277.5,77.2z"/>
	<path id="path7" inkscape:connector-curvature="0" class="st1" d="M105.5,53.3c59.8-12.4,113.9,4.9,120.9,38.6s-35.9,71-95.7,83.4
		S16.8,170.4,9.8,136.7C2.9,103,45.7,65.7,105.5,53.3 M104.8,49.9c64.8-13.4,123.3,4.6,130.7,40.1s-39.3,75.2-104.1,88.6
		c-64.8,13.5-123.3-4.5-130.6-40C-6.6,103,40,63.3,104.8,49.9z"/>
	<path id="path9" inkscape:connector-curvature="0" class="st1" d="M172.9,91.1c26.9,54.8,23.7,111.5-7.2,126.7S88,200.8,61.1,146
		S37.5,34.4,68.3,19.3S146,36.3,172.9,91.1 M176,89.6c29.1,59.4,26.4,120.6-6.2,136.6S87.2,206.9,58,147.5S31.6,26.9,64.2,10.9
		S146.9,30.1,176,89.6z"/>
	<path id="path11" inkscape:connector-curvature="0" class="st1" d="M63.3,91.1c-26.9,54.8-23.7,111.5,7.2,126.7s77.7-17,104.6-71.8
		s23.7-111.5-7.2-126.7S90.2,36.3,63.3,91.1 M60.2,89.6C31,149,33.8,210.2,66.4,226.1s82.7-19.2,111.8-78.7S204.6,26.9,172,10.9
		S89.3,30.1,60.2,89.6z"/>
	<path id="path13" inkscape:connector-curvature="0" class="st0" d="M690.5,190.6l-2.7-7.4l-2.7,7.4H690.5z M697.9,198.5h-4.4
		l-1.7-4.5h-7.9l-1.6,4.5H678l7.7-19.8h4.2L697.9,198.5L697.9,198.5z M672.2,198.5v-19.8h4v19.8H672.2L672.2,198.5z M660,191.2v-3.3
		h8.6v7.9c-0.8,0.8-2,1.5-3.7,2.1c-1.6,0.6-3.2,0.9-4.8,0.9c-2.1,0-3.9-0.4-5.4-1.3c-1.5-0.9-2.7-2.1-3.5-3.7
		c-0.8-1.6-1.2-3.4-1.2-5.3c0-2.1,0.4-3.9,1.3-5.5s2.1-2.8,3.8-3.7c1.3-0.7,2.8-1,4.7-1c2.5,0,4.4,0.5,5.8,1.6s2.3,2.5,2.7,4.3
		l-4,0.7c-0.3-1-0.8-1.7-1.6-2.3s-1.7-0.8-2.9-0.8c-1.8,0-3.1,0.6-4.2,1.7c-1,1.1-1.5,2.8-1.5,4.9c0,2.4,0.5,4.1,1.6,5.3
		c1,1.2,2.4,1.8,4.1,1.8c0.8,0,1.7-0.2,2.5-0.5s1.6-0.7,2.2-1.2v-2.5L660,191.2L660,191.2z M632.6,188.5c0,2.2,0.5,3.9,1.6,5.1
		c1,1.2,2.3,1.7,4,1.7c1.6,0,2.9-0.6,3.9-1.7c1-1.1,1.5-2.9,1.5-5.2s-0.5-4-1.5-5.1s-2.3-1.7-4-1.7s-3,0.6-4,1.7
		C633.1,184.6,632.6,186.3,632.6,188.5L632.6,188.5z M628.5,188.7c0-2,0.3-3.7,0.9-5.1c0.5-1,1.1-1.9,1.8-2.7
		c0.8-0.8,1.6-1.4,2.6-1.8c1.2-0.5,2.7-0.8,4.3-0.8c2.9,0,5.3,0.9,7,2.7c1.8,1.8,2.6,4.3,2.6,7.6c0,3.2-0.9,5.7-2.6,7.5
		c-1.7,1.8-4.1,2.7-7,2.7c-3,0-5.3-0.9-7-2.7C629.3,194.3,628.5,191.8,628.5,188.7L628.5,188.7z M612.5,198.5v-19.7h4v16.3h10v3.3
		L612.5,198.5L612.5,198.5z M594.1,188.5c0,2.2,0.5,3.9,1.6,5.1c1,1.2,2.3,1.7,4,1.7c1.6,0,2.9-0.6,3.9-1.7c1-1.1,1.5-2.9,1.5-5.2
		s-0.5-4-1.5-5.1s-2.3-1.7-4-1.7s-3,0.6-4,1.7C594.6,184.6,594.1,186.3,594.1,188.5L594.1,188.5z M590,188.7c0-2,0.3-3.7,0.9-5.1
		c0.5-1,1.1-1.9,1.8-2.7c0.8-0.8,1.6-1.4,2.6-1.8c1.2-0.5,2.7-0.8,4.3-0.8c2.9,0,5.3,0.9,7,2.7c1.8,1.8,2.6,4.3,2.6,7.6
		c0,3.2-0.9,5.7-2.6,7.5c-1.7,1.8-4.1,2.7-7,2.7c-3,0-5.3-0.9-7-2.7C590.9,194.3,590,191.8,590,188.7L590,188.7z M570.9,198.5v-19.8
		h3.9l8.1,13.2v-13.2h3.7v19.8h-4l-8-12.9v12.9H570.9L570.9,198.5z M563.5,191.2l3.9,1.2c-0.6,2.2-1.6,3.8-3,4.8
		c-1.4,1.1-3.1,1.6-5.3,1.6c-2.6,0-4.8-0.9-6.5-2.7s-2.5-4.3-2.5-7.4c0-3.3,0.8-5.9,2.6-7.7c1.7-1.8,3.9-2.7,6.7-2.7
		c2.4,0,4.4,0.7,5.9,2.1c0.9,0.8,1.6,2.1,2,3.6l-4,0.9c-0.2-1-0.7-1.8-1.5-2.4c-0.7-0.6-1.7-0.9-2.7-0.9c-1.5,0-2.7,0.5-3.6,1.6
		c-0.9,1.1-1.4,2.8-1.4,5.1c0,2.5,0.5,4.3,1.3,5.4c0.9,1.1,2.1,1.6,3.5,1.6c1.1,0,2-0.3,2.8-1C562.6,193.7,563.2,192.6,563.5,191.2z
		 M532.4,198.5v-19.8h14.7v3.4h-10.7v4.4h10v3.3h-10v5.4h11.1v3.3L532.4,198.5L532.4,198.5z M519.9,198.5V182H514v-3.4h15.8v3.4
		h-5.9v16.5H519.9L519.9,198.5z M489.3,198.5v-19.8H504v3.4h-10.7v4.4h10v3.3h-10v5.4h11.1v3.3L489.3,198.5L489.3,198.5z
		 M473.1,190.6l-2.7-7.4l-2.7,7.4H473.1z M480.5,198.5h-4.4l-1.7-4.5h-7.9l-1.6,4.5h-4.3l7.7-19.8h4.2L480.5,198.5L480.5,198.5z
		 M454.8,198.5v-19.8h4v19.8H454.8L454.8,198.5z M447.6,191.2l3.9,1.2c-0.6,2.2-1.6,3.8-3,4.8c-1.4,1.1-3.1,1.6-5.3,1.6
		c-2.6,0-4.8-0.9-6.5-2.7s-2.5-4.3-2.5-7.4c0-3.3,0.9-5.9,2.6-7.7s3.9-2.7,6.7-2.7c2.4,0,4.4,0.7,5.9,2.1c0.9,0.8,1.6,2.1,2,3.6
		l-4,0.9c-0.2-1-0.7-1.8-1.5-2.4c-0.7-0.6-1.6-0.9-2.7-0.9c-1.5,0-2.7,0.5-3.6,1.6s-1.4,2.8-1.4,5.1c0,2.5,0.5,4.3,1.4,5.4
		c0.9,1.1,2.1,1.6,3.5,1.6c1.1,0,2-0.3,2.8-1C446.7,193.7,447.3,192.6,447.6,191.2L447.6,191.2z M415,198.5v-19.8h3.9l8.1,13.2
		v-13.2h3.7v19.8h-4l-8-12.9v12.9H415L415,198.5z M399,177.5l2.8-4h3.5l2.8,4h-3l-1.6-2l-1.5,2H399z M396.5,198.5v-19.8h14.7v3.4
		h-10.7v4.4h10v3.3h-10v5.4h11.1v3.3L396.5,198.5L396.5,198.5z M388.7,198.5v-19.8h4v19.8H388.7z M381.5,191.2l3.9,1.2
		c-0.6,2.2-1.6,3.8-3,4.8c-1.4,1.1-3.1,1.6-5.3,1.6c-2.6,0-4.8-0.9-6.5-2.7s-2.5-4.3-2.5-7.4c0-3.3,0.9-5.9,2.6-7.7s3.9-2.7,6.7-2.7
		c2.4,0,4.4,0.7,5.9,2.1c0.9,0.8,1.6,2.1,2,3.6l-4,0.9c-0.2-1-0.7-1.8-1.5-2.4c-0.7-0.6-1.6-0.9-2.7-0.9c-1.5,0-2.7,0.5-3.6,1.6
		s-1.4,2.8-1.4,5.1c0,2.5,0.5,4.3,1.4,5.4c0.9,1.1,2.1,1.6,3.5,1.6c1.1,0,2-0.3,2.8-1C380.6,193.7,381.1,192.6,381.5,191.2
		L381.5,191.2z M342.6,198.5v-19.8h14.7v3.4h-10.7v4.4h10v3.3h-10v5.4h11.1v3.3L342.6,198.5L342.6,198.5z M326.6,182v13.1h3
		c1.1,0,1.9-0.1,2.4-0.2c0.6-0.2,1.2-0.4,1.6-0.8c0.4-0.4,0.8-1,1-1.9c0.3-0.9,0.4-2.1,0.4-3.6s-0.1-2.7-0.4-3.5s-0.6-1.5-1.1-1.9
		c-0.5-0.5-1.1-0.8-1.9-0.9c-0.6-0.1-1.6-0.2-3.3-0.2L326.6,182L326.6,182z M322.6,178.6h7.3c1.6,0,2.9,0.1,3.8,0.4
		c1.2,0.3,2.2,0.9,3,1.8c0.8,0.9,1.5,1.9,1.9,3.2s0.6,2.8,0.6,4.7c0,1.6-0.2,3-0.6,4.2c-0.5,1.4-1.2,2.6-2.1,3.5
		c-0.7,0.7-1.6,1.2-2.8,1.6c-0.9,0.3-2.1,0.4-3.5,0.4h-7.5L322.6,178.6L322.6,178.6z M306.5,190.6l-2.7-7.4l-2.7,7.4H306.5z
		 M313.9,198.5h-4.4l-1.7-4.5h-7.9l-1.6,4.5H294l7.7-19.8h4.2L313.9,198.5L313.9,198.5z M280,187h3c1.9,0,3.1-0.1,3.6-0.2
		s0.9-0.4,1.1-0.8s0.4-0.9,0.4-1.5c0-0.7-0.2-1.2-0.5-1.6c-0.4-0.4-0.9-0.7-1.5-0.8c-0.3,0-1.3-0.1-2.9-0.1H280V187L280,187z
		 M276,198.5v-19.8h8.4c2.1,0,3.6,0.2,4.6,0.5s1.7,1,2.3,1.9c0.6,0.9,0.9,1.9,0.9,3.1c0,1.5-0.4,2.7-1.3,3.7s-2.2,1.6-3.9,1.8
		c0.9,0.5,1.6,1.1,2.1,1.7c0.6,0.6,1.3,1.7,2.3,3.2l2.4,3.9H289l-2.9-4.3c-1-1.5-1.7-2.5-2.1-2.9s-0.8-0.7-1.2-0.8
		c-0.4-0.1-1.1-0.2-2-0.2H280v8.3L276,198.5L276,198.5z M268.2,198.5v-19.8h4v19.8H268.2L268.2,198.5z M249.8,198.5v-19.8h14.7v3.4
		h-10.7v4.4h10v3.3h-9.9v5.4H265v3.3L249.8,198.5L249.8,198.5z M233,198.5v-19.8h13.6v3.4H237v4.7h8.3v3.4H237v8.4L233,198.5
		L233,198.5z"/>
	<path id="path15" inkscape:connector-curvature="0" class="st0" d="M687.7,218.5h2.2c1.4,0,2.3-0.1,2.7-0.2
		c0.3-0.1,0.6-0.3,0.8-0.6s0.3-0.7,0.3-1.1c0-0.5-0.1-0.9-0.4-1.2c-0.3-0.3-0.6-0.5-1.1-0.6c-0.2,0-1-0.1-2.2-0.1h-2.3V218.5z
		 M684.7,226.9v-14.7h6.2c1.6,0,2.7,0.1,3.4,0.4c0.7,0.3,1.3,0.7,1.7,1.4s0.6,1.4,0.6,2.3c0,1.1-0.3,2-1,2.7s-1.6,1.2-2.9,1.4
		c0.6,0.4,1.2,0.8,1.6,1.2c0.4,0.4,1,1.2,1.7,2.4l1.8,2.9h-3.5l-2.1-3.2c-0.8-1.1-1.3-1.9-1.6-2.1c-0.3-0.3-0.6-0.5-0.9-0.6
		c-0.3-0.1-0.8-0.2-1.5-0.2h-0.6v6.1L684.7,226.9L684.7,226.9z M674,214.7v4.2h1.6c1.2,0,1.9-0.1,2.3-0.2s0.7-0.4,0.9-0.7
		s0.3-0.7,0.3-1.1c0-0.5-0.2-1-0.5-1.3c-0.3-0.4-0.7-0.6-1.2-0.6c-0.3-0.1-1.1-0.1-2.1-0.1L674,214.7L674,214.7z M671.1,226.9v-14.7
		h4.7c1.8,0,3,0.1,3.5,0.2c0.8,0.2,1.5,0.7,2.1,1.4s0.8,1.7,0.8,2.9c0,0.9-0.2,1.6-0.5,2.3c-0.3,0.6-0.7,1.1-1.2,1.4
		c-0.5,0.4-1,0.6-1.5,0.7c-0.7,0.1-1.7,0.2-3.1,0.2H674v5.5L671.1,226.9L671.1,226.9z M658.2,223v-2.8h5.5v2.8H658.2z M646.6,221.1
		l-2-5.4l-2,5.4H646.6L646.6,221.1z M652.1,226.9h-3.2l-1.3-3.3h-5.9l-1.2,3.3h-3.1l5.7-14.7h3.1L652.1,226.9z M624.1,226.9v-14.7
		h2.9l6,9.8v-9.8h2.7v14.7h-3l-5.9-9.6v9.6H624.1z M618.3,226.9v-14.7h3v14.7H618.3z M609.2,226.9v-12.2h-4.3v-2.5h11.6v2.5h-4.3
		v12.2H609.2z M592.4,219.6c0,1.7,0.4,2.9,1.2,3.8c0.8,0.9,1.7,1.3,2.9,1.3s2.2-0.4,2.9-1.3c0.8-0.9,1.1-2.1,1.1-3.8
		s-0.4-2.9-1.1-3.8c-0.7-0.8-1.7-1.2-2.9-1.2s-2.2,0.4-3,1.3C592.8,216.6,592.4,217.9,592.4,219.6L592.4,219.6z M589.4,219.7
		c0-1.5,0.2-2.8,0.7-3.8c0.3-0.8,0.8-1.4,1.4-2c0.6-0.6,1.2-1,1.9-1.3c0.9-0.4,2-0.6,3.2-0.6c2.2,0,3.9,0.7,5.2,2s1.9,3.2,1.9,5.6
		c0,2.4-0.6,4.2-1.9,5.6c-1.3,1.3-3,2-5.2,2s-3.9-0.7-5.2-2C590,223.9,589.4,222,589.4,219.7L589.4,219.7z M577.5,226.9v-14.5h3
		v12.1h7.3v2.5L577.5,226.9L577.5,226.9z M570.5,221.1l-2-5.4l-2,5.4H570.5L570.5,221.1z M575.9,226.9h-3.2l-1.3-3.3h-5.9l-1.2,3.3
		h-3.1l5.7-14.7h3.1L575.9,226.9z M553.5,214.7v4.2h1.6c1.2,0,1.9-0.1,2.3-0.2s0.7-0.4,0.9-0.7s0.3-0.7,0.3-1.1c0-0.5-0.2-1-0.5-1.3
		c-0.3-0.4-0.7-0.6-1.2-0.6c-0.3-0.1-1.1-0.1-2.1-0.1L553.5,214.7L553.5,214.7z M550.6,226.9v-14.7h4.8c1.8,0,3,0.1,3.5,0.2
		c0.8,0.2,1.5,0.7,2.1,1.4s0.8,1.7,0.8,2.9c0,0.9-0.2,1.6-0.5,2.3c-0.3,0.6-0.7,1.1-1.2,1.4c-0.5,0.4-1,0.6-1.5,0.7
		c-0.7,0.1-1.7,0.2-3.1,0.2h-1.9v5.5L550.6,226.9L550.6,226.9z"/>
	<polygon class="st1" points="140.4,115 173.4,115 171.7,118.4 138.8,118.4 	"/>
	<g class="st2">
		<path class="st0" d="M71.8,137.7h10v-35.3H73V91c5.3-1.5,8.7-3.4,12.2-6.7h9.2v53.4h8.4v14.8h-31V137.7z"/>
		<path class="st0" d="M109.5,137.7h10v-35.3h-8.8V91c5.3-1.5,8.7-3.4,12.2-6.7h9.2v53.4h8.4v14.8h-31V137.7z"/>
		<path class="st0" d="M142.7,100.4c0-7.5,4-11.6,13.4-12.9c-0.2-2.5-1.2-3.4-3.2-3.4c-1.8,0-3.7,1.1-6.3,3l-3.1-8.4
			c3.5-3,7.2-4.7,11-4.7c6.3,0,10.4,5.2,10.4,16.6v20h-7l-0.7-3.4h-0.3c-1.8,2.6-4,4.3-6.6,4.3C145.5,111.3,142.7,106.2,142.7,100.4
			z M156.1,99.5v-4.7c-3.8,0.6-5,2.6-5,4.5c0,1.5,0.7,2.4,2.1,2.4C154.5,101.7,155.2,100.8,156.1,99.5z"/>
	</g>
</g>
</svg>
