<svg width="1139" height="583" viewBox="0 0 1139 583" fill="none" xmlns="http://www.w3.org/2000/svg">
<path d="M1107.12 0.719753H348.508C334.877 0.719753 322.756 11.6904 318.355 28.0115L183.07 529.679C176.018 555.83 191.383 583 213.223 583H997.815C1012.15 583 1024.72 570.888 1028.53 553.405L1137.84 51.7368C1143.43 26.0717 1128.17 0.719753 1107.12 0.719753Z" fill="#09090b"/>
<path d="M31.8783 582.28H790.492C804.123 582.28 816.244 571.31 820.645 554.988L955.93 53.3206C962.982 27.1699 947.617 0 925.777 0H141.185C126.85 0 114.28 12.1119 110.47 29.5953L1.16384 531.263C-4.4282 556.928 10.8348 582.28 31.8783 582.28Z" fill="#09090b"/>
</svg>
