<svg width="1138" height="426" viewBox="0 0 1138 426" fill="none" xmlns="http://www.w3.org/2000/svg">
<path d="M1106.15 0.525926H348.202C334.583 0.525926 322.473 8.54224 318.076 20.4681L182.909 387.039C175.863 406.147 191.215 426 213.036 426H996.939C1011.26 426 1023.82 417.15 1027.63 404.375L1136.84 37.8043C1142.42 19.0507 1127.17 0.525926 1106.15 0.525926Z" fill="#09090b"/>
<path d="M31.8503 425.474H789.798C803.417 425.474 815.527 417.458 819.924 405.532L955.091 38.9615C962.137 19.8532 946.785 0 924.964 0H141.061C126.738 0 114.179 8.85022 110.373 21.6254L1.16282 388.196C-4.42431 406.949 10.8252 425.474 31.8503 425.474Z" fill="#09090b"/>
</svg>
